<svg width="1512" height="189" viewBox="0 0 1512 189" fill="none" xmlns="http://www.w3.org/2000/svg">
<g clip-path="url(#clip0_557_1543)">
<g clip-path="url(#clip1_557_1543)">
<g clip-path="url(#clip2_557_1543)">
<mask id="mask0_557_1543" style="mask-type:alpha" maskUnits="userSpaceOnUse" x="0" y="0" width="1512" height="189">
<path d="M0 0H1512V189H0V0Z" fill="#C4C4C4"/>
</mask>
<g mask="url(#mask0_557_1543)">
<path d="M706.578 128.334C711.027 123.427 710.26 115.333 706.33 110C702.399 104.665 696.082 101.65 689.773 99.6621C686.773 98.7082 683.449 97.9655 680.448 99.0006C678.541 99.7607 676.852 100.983 675.534 102.558C673.088 105.264 671.23 108.449 670.076 111.911C668.923 115.372 668.501 119.035 668.835 122.668C664.193 120.713 659.368 119.224 654.431 118.221C652.497 117.831 650.449 117.531 648.596 118.221C646.293 119.069 644.785 121.221 643.427 123.256C639.376 129.325 635.176 135.805 634.95 143.097C634.589 152.684 641.702 161.642 650.703 164.965C659.706 168.288 670.058 166.54 678.415 161.83C677.348 164.086 676.808 166.555 676.838 169.051C676.868 171.547 677.467 174.003 678.588 176.232C680.358 179.721 683.967 182.692 687.83 182.122C689.279 181.849 690.648 181.254 691.836 180.381C694.69 178.359 696.911 175.566 698.239 172.329C699.568 169.093 699.949 165.545 699.338 162.1C705.175 164.395 709.675 170.516 715.946 170.351C719.053 170.246 721.881 168.529 724.131 166.367C732.143 158.589 732.999 145.836 730.313 135.01C728.933 129.458 726.719 123.99 723.021 119.653C719.323 115.318 714.02 112.099 708.295 111.822" fill="#F9663F"/>
<path d="M650.47 144.934C653.772 137.561 662.721 136.128 669.976 136.683C657.403 112.279 709.976 113.749 703.869 131.53C702.12 136.669 701.993 138.086 701.993 138.086C702.473 135.445 707.244 139.586 709.796 143.022C716.276 151.762 708.632 162.197 698.407 160.726C707.027 178.844 677.087 181.394 668.895 169.902C661.903 172.774 650.696 166.6 655.211 159.331C650.794 156.382 648.198 150.014 650.47 144.934Z" fill="#DFD4E4"/>
<path d="M679.668 94.7995C678.751 96.9413 677.452 98.8985 675.835 100.576C676.601 101.56 677.192 102.669 677.583 103.854C678.16 105.626 678.288 107.513 677.955 109.346C677.623 111.18 676.84 112.902 675.677 114.358C674.278 115.961 672.668 117.367 670.891 118.537C669.06 119.826 667.139 120.936 664.845 120.982C660.89 121.065 657.634 118.147 655.759 114.921C655.143 113.832 654.612 112.698 654.169 111.529C653.741 110.537 653.373 109.521 653.066 108.483C651.033 107.733 648.97 107.028 646.997 106.157C644.852 105.205 643.082 103.809 642.39 101.491C642.133 100.496 642.075 99.4601 642.221 98.4427C642.367 97.4253 642.713 96.447 643.239 95.5644C643.79 94.6473 644.517 93.8487 645.378 93.215C646.24 92.5813 647.219 92.1251 648.258 91.8729C649.365 91.5904 650.511 91.497 651.649 91.5968C651.149 90.1849 650.987 88.6762 651.173 87.1903C651.359 85.7044 651.889 84.2824 652.72 83.0372C654.046 81.118 655.827 79.5583 657.905 78.4982C658.426 78.1575 659.026 77.9566 659.648 77.9147C660.269 77.8728 660.891 77.9914 661.453 78.259C662.489 78.9204 663.396 79.7639 664.131 80.7485C665.475 82.3727 666.506 84.2332 667.17 86.2325C668.018 85.1073 668.67 83.6898 669.525 82.609C670.288 81.6124 671.353 80.8902 672.561 80.5507C673.769 80.2112 675.054 80.2729 676.224 80.7264C681.918 82.925 681.686 90.1026 679.668 94.7995Z" fill="#EF76A4"/>
<path d="M859.504 155.182C863.404 163.953 874.035 165.685 882.654 165.071C867.65 194.072 930.178 192.489 922.992 171.319C920.922 165.205 920.741 163.525 920.741 163.525C921.311 166.661 927.042 161.776 930.059 157.666C937.8 147.291 928.739 134.868 916.555 136.577C926.871 115.048 891.259 111.926 881.477 125.565C873.171 122.122 859.826 129.429 865.174 138.094C859.923 141.552 856.818 149.128 859.504 155.182Z" fill="#F2F2F2"/>
<path d="M842.654 124.852C845.346 129.527 846.892 136.713 841.152 139.765C844.003 144.267 846.232 150.538 844.649 155.866C838.714 164.867 824.393 165.843 820.965 154.042C814.964 156.292 812.046 150.036 812.023 144.957C805.879 143.262 795.399 140.388 798.234 131.963C801.858 121.252 815.931 114.424 825.002 123.037C828.73 116.083 839.315 119.022 842.654 124.852Z" fill="#46B1CB"/>
<path d="M813.274 137.56C810.393 143.563 802.951 144.582 796.98 143.975C806.838 164.455 763.372 162.092 768.803 147.501C769.526 145.764 770.092 143.967 770.491 142.129C770.025 144.289 766.141 140.778 764.144 137.891C758.969 130.516 765.517 122.062 773.943 123.487C767.19 108.319 792.037 106.863 798.519 116.548C804.37 114.297 813.522 119.676 809.599 125.587C813.259 128.108 815.27 133.442 813.274 137.56Z" fill="#EF76A4"/>
<path d="M722.361 142.714C725.022 142.931 727.594 143.777 729.863 145.183C730.538 142.504 732.406 140.096 734.169 138.033C736.555 135.325 739.256 132.654 742.729 131.387C746.54 129.977 750.636 130.817 754.281 132.317C757.876 133.699 761.056 135.979 763.517 138.941C763.681 139.143 763.832 139.36 763.982 139.579C766.31 139.95 768.49 140.955 770.285 142.483C772.079 144.012 773.418 146.005 774.154 148.243C775.053 150.865 775.004 153.718 774.019 156.308C772.842 159.099 769.84 160.103 767.102 160.689C764.339 161.279 761.494 161.388 758.693 161.011C757.684 164.774 755.288 168.016 751.987 170.085C748.686 172.154 744.724 172.898 740.898 172.167C740.561 172.099 739.789 171.777 739.458 171.911C739.127 172.047 739.158 172.227 739.03 172.437C737.857 174.567 736.298 176.46 734.432 178.018C732.752 179.322 730.751 180.149 728.641 180.412C726.688 180.648 724.707 180.448 722.842 179.825C720.976 179.202 719.272 178.172 717.853 176.811C715.921 175.015 714.769 172.536 714.642 169.902C714.647 168.669 715.018 167.465 715.708 166.442C713.426 165.467 711.396 163.984 709.773 162.107C708.682 160.836 707.875 159.346 707.404 157.739C706.933 156.131 706.81 154.441 707.043 152.782C708.235 145.76 715.917 142.195 722.361 142.714Z" fill="#FFCFFF"/>
<path d="M750.058 174.553C754.424 183.683 765.692 185.183 774.754 184.267C759.811 215.287 825.654 211.702 817.44 189.616C815.061 183.232 814.897 181.462 814.897 181.462C815.587 184.747 821.475 179.429 824.514 175.002C832.353 163.848 822.429 150.996 809.66 153.202C819.833 130.216 782.256 128.003 772.368 142.699C763.508 139.309 749.676 147.433 755.579 156.397C750.08 160.194 747.042 168.266 750.058 174.553Z" fill="#F2F2F2"/>
<path d="M195.454 143.593C193.001 137.366 185.65 135.851 179.633 136.016C193.887 119.916 156.189 118.581 151.749 130.487C153.009 134.8 153.512 134.913 153.512 134.913C150.264 134.605 148.62 137.006 146.414 139.774C140.715 146.766 146.655 155.678 155.169 154.86C147.361 169.519 172.042 172.768 179.296 163.556C184.975 166.188 194.472 161.499 191.007 155.303C194.757 153.053 197.143 147.883 195.454 143.593Z" fill="#EF76A4"/>
<path d="M99.6459 163.644C97.3499 165.712 95.4465 168.178 94.0275 170.922C90.8953 169.846 87.491 169.86 84.368 170.963C81.245 172.066 78.5868 174.193 76.8256 176.998C75.4014 179.427 74.323 182.043 73.6215 184.769C72.7739 187.621 72.204 190.494 73.1268 193.404C74.7259 198.401 79.7669 201.252 84.6204 202.219C86.2593 202.531 87.919 202.711 89.586 202.76C91.0168 202.863 92.4506 202.888 93.8843 202.835C95.6857 205.085 97.4635 207.336 99.3993 209.466C101.499 211.754 104.012 213.375 107.224 213.255C108.576 213.155 109.895 212.788 111.105 212.177C112.316 211.565 113.393 210.72 114.276 209.691C115.19 208.606 115.88 207.35 116.304 205.997C116.729 204.643 116.881 203.219 116.75 201.806C116.639 200.286 116.266 198.796 115.647 197.403C117.632 197.429 119.595 196.99 121.38 196.121C123.164 195.252 124.721 193.977 125.924 192.399C127.776 189.909 128.973 186.994 129.406 183.922C129.684 182.234 129.586 180.539 128.251 179.309C126.975 178.29 125.523 177.512 123.968 177.013C121.36 176.007 118.586 175.498 115.791 175.513C116.833 173.937 118.394 172.512 119.324 171.012C120.261 169.631 120.719 167.98 120.628 166.313C120.538 164.647 119.903 163.056 118.822 161.784C113.577 155.7 104.725 159.083 99.6459 163.644ZM859.232 170.516C862.233 172.699 866.735 171.799 869.397 169.286C872.061 166.773 873.441 163.074 874.177 159.429C874.528 157.688 874.754 155.805 873.997 154.176C873.464 153.159 872.691 152.286 871.745 151.634C870.09 150.428 868.203 149.579 866.203 149.141C864.202 148.704 862.133 148.687 860.126 149.091C860.935 146.382 861.477 143.601 861.746 140.787C861.948 139.713 861.86 138.604 861.49 137.575C860.891 136.338 859.593 135.625 858.37 135.033C854.747 133.134 850.868 131.183 846.801 131.468C841.431 131.843 836.854 136.315 835.548 141.537C834.243 146.758 835.819 152.422 838.933 156.787C837.614 156.332 836.21 156.182 834.825 156.347C833.44 156.512 832.11 156.989 830.936 157.741C829.097 158.934 827.658 161.131 828.197 163.247C828.437 164.041 828.852 164.772 829.412 165.385C830.714 166.85 832.404 167.917 834.286 168.461C836.169 169.005 838.168 169.005 840.05 168.461C839.12 171.851 835.977 174.732 836.457 178.213C836.798 179.941 837.765 181.482 839.172 182.541C843.988 186.54 851.175 186.293 857.034 184.109C860.094 183.097 862.88 181.393 865.174 179.129C866.311 177.993 867.206 176.637 867.804 175.145C868.402 173.653 868.691 172.055 868.654 170.448M267.419 130.479C263.032 130.93 258.765 132.182 254.83 134.171C253.478 132.241 251.812 130.552 249.901 129.174C247.026 127.151 243.696 125.87 240.207 125.444C236.718 125.018 233.178 125.461 229.901 126.733C226.214 128.353 222.768 130.474 219.661 133.035C216.271 135.578 213.225 138.451 211.859 142.578C209.496 149.682 212.925 157.192 217.71 162.383C219.332 164.114 221.088 165.714 222.962 167.169C224.519 168.49 226.146 169.725 227.838 170.868C228.033 174.949 228.169 179.067 228.641 183.133C229.143 187.536 230.682 191.513 234.478 194.055C236.121 195.073 237.949 195.757 239.856 196.069C241.764 196.38 243.714 196.313 245.595 195.87C247.559 195.389 249.408 194.521 251.033 193.318C252.659 192.116 254.028 190.601 255.063 188.864C256.211 187.019 257.029 184.989 257.479 182.863C259.744 184.562 262.377 185.706 265.165 186.202C267.953 186.698 270.819 186.533 273.532 185.72C277.738 184.431 281.555 182.111 284.636 178.969C286.375 177.274 287.68 175.219 287.178 172.675C286.563 170.433 285.546 168.321 284.178 166.441C281.993 163.111 279.216 160.21 275.986 157.881C278.528 156.936 281.47 156.644 283.84 155.631C288.401 153.726 291.342 149.63 290.989 144.611C290.142 133.006 277.104 129.466 267.419 130.479Z" fill="#F2F2F2"/>
<path d="M216.308 175.985C214.524 174.406 213.14 172.427 212.271 170.209C210.342 171.77 207.724 172.535 205.355 173.022C202.196 173.682 198.813 174.147 195.648 173.209C192.166 172.167 189.721 169.384 187.868 166.345C186.028 163.424 184.971 160.078 184.799 156.631V155.932C183.325 154.419 182.296 152.53 181.825 150.471C181.354 148.412 181.459 146.263 182.128 144.26C182.895 141.898 184.461 139.878 186.555 138.544C188.895 137.186 191.596 138.063 193.861 139.114C196.159 140.157 198.258 141.591 200.065 143.352C202.811 141.194 206.271 140.156 209.75 140.445C213.229 140.735 216.47 142.331 218.821 144.913C219.03 145.138 219.405 145.76 219.72 145.858C219.927 145.881 220.135 145.828 220.306 145.708C222.28 144.83 224.398 144.322 226.555 144.208C228.457 144.179 230.332 144.658 231.986 145.596C233.511 146.468 234.824 147.667 235.83 149.107C236.837 150.546 237.512 152.191 237.808 153.922C238.23 156.248 237.721 158.647 236.389 160.6C235.73 161.482 234.82 162.146 233.778 162.504C234.889 164.43 235.548 166.582 235.707 168.799C235.806 170.298 235.586 171.801 235.059 173.208C234.533 174.615 233.712 175.894 232.653 176.96C228.055 181.394 220.65 179.811 216.308 175.985Z" fill="#F6AB0B"/>
<path d="M578.319 88.9628C583.001 90.2178 588.492 93.8029 586.796 99.3917C591.463 100.442 596.826 103.023 599.212 107.358C601.148 116.825 592.708 126.518 583.038 121.229C580.6 126.481 574.831 124.343 571.597 121.14C566.632 123.968 558.155 128.761 554.644 121.642C550.143 112.542 554.748 99.2869 565.964 98.9857C563.939 92.257 572.52 87.402 578.319 88.9628Z" fill="#859400"/>
<path d="M562.242 114.108C566.684 109.295 564.89 102.166 562.182 96.9447C584.395 98.498 566.504 59.818 555.198 69.9915C553.891 71.2817 552.473 72.4538 550.96 73.4939C552.767 72.2935 548.16 70.0211 544.778 69.2562C536.157 67.1861 530.824 76.233 535.168 83.3825C518.911 82.7372 526.579 105.888 537.757 108.304C537.839 114.432 546.008 120.809 549.991 115.055C553.637 117.515 559.182 117.416 562.242 114.108Z" fill="#4662C7"/>
<path d="M36.8403 179.631C33.7956 177.936 32.8506 173.696 33.9462 170.374C35.0403 167.05 37.6967 164.491 40.5701 162.458C41.9344 161.476 43.4641 160.553 45.1459 160.598C46.2306 160.669 47.2814 161.004 48.2068 161.574C49.8785 162.539 51.3315 163.841 52.4742 165.397C53.6169 166.953 54.4243 168.729 54.8455 170.613C56.8568 168.867 59.0383 167.326 61.3571 166.015C62.2244 165.428 63.2362 165.091 64.2822 165.039C65.5668 165.244 66.7525 165.848 67.6738 166.765C70.6742 169.15 73.8769 171.724 75.2132 175.34C76.9762 180.096 74.8898 185.767 70.9149 188.903C66.9385 192.038 61.4546 192.878 56.511 191.904C57.4066 192.866 58.074 194.018 58.4636 195.274C58.8531 196.53 58.9549 197.858 58.7613 199.158C58.4394 201.206 57.1105 203.284 55.0773 203.659C54.3036 203.766 53.5155 203.695 52.7739 203.449C51.0104 202.898 49.4397 201.857 48.2446 200.448C47.0495 199.038 46.2791 197.319 46.023 195.489C43.4804 197.605 42.2046 201.423 39.0315 202.353C37.4142 202.728 35.7156 202.493 34.2607 201.693C28.9495 199.105 26.4128 192.834 26.0082 186.946C25.7018 183.922 26.0891 180.869 27.1407 178.018C27.6797 176.601 28.4999 175.307 29.552 174.215C30.6041 173.123 31.8662 172.255 33.2626 171.663" fill="#05946B"/>
<path d="M505.181 94.838C503.778 93.5869 502.688 92.0242 501.999 90.2754C500.378 91.4393 498.509 92.2102 496.539 92.5272C494.04 93.044 491.369 93.3747 488.909 92.6689C486.155 91.8214 484.198 89.6685 482.765 87.2529C481.317 84.9622 480.482 82.3374 480.342 79.6309V79.0698C479.163 77.8716 478.338 76.3704 477.96 74.7325C477.581 73.0945 477.663 71.3837 478.197 69.7896C478.808 67.9308 480.043 66.3403 481.692 65.2875C483.538 64.2008 485.676 64.9051 487.461 65.7305C489.277 66.5721 490.934 67.718 492.36 69.1207C494.531 67.4093 497.27 66.5861 500.025 66.8175C502.779 67.0488 505.343 68.3175 507.198 70.3669C507.371 70.5397 507.663 71.0491 507.911 71.117C508.072 71.1297 508.232 71.0904 508.369 71.0048C509.914 70.3078 511.574 69.9009 513.267 69.8043C514.769 69.785 516.25 70.163 517.559 70.8999C518.76 71.594 519.792 72.545 520.581 73.6848C521.371 74.8246 521.899 76.125 522.127 77.4928C522.452 79.3212 522.053 81.2041 521.017 82.7449C520.492 83.4401 519.771 83.9626 518.947 84.2451C519.818 85.7646 520.332 87.463 520.447 89.2108C520.528 90.3951 520.355 91.583 519.941 92.6955C519.527 93.808 518.881 94.8197 518.046 95.6634C514.452 99.1141 508.624 97.8546 505.181 94.838Z" fill="#F6AB0B"/>
<path d="M577.065 126.187C580.066 120.103 587.688 119.217 593.772 119.939C584.08 98.9339 628.281 102.077 622.512 116.825C621.736 118.594 621.124 120.43 620.681 122.309C621.192 120.103 625.093 123.75 627.08 126.751C632.226 134.373 625.385 142.85 616.855 141.236C623.464 156.803 598.206 157.861 591.678 147.883C585.677 150.051 576.487 144.493 580.554 138.491C576.893 135.866 575.002 130.38 577.065 126.187Z" fill="#DDDEF6"/>
<path d="M418.153 55.0858C423.405 56.4885 429.535 60.487 427.628 66.7122C432.827 67.8758 438.806 70.7639 441.47 75.5952C443.622 86.1423 434.215 96.9463 423.428 91.0563C420.727 96.9006 414.283 94.5218 410.711 90.9589C405.183 94.1187 395.708 99.4358 391.77 91.5214C386.766 81.3568 391.882 66.6 404.403 66.2781C402.1 58.7388 411.695 53.3434 418.153 55.0858Z" fill="#859400"/>
<path d="M410.291 104.043C409.215 106.576 407.69 108.893 405.789 110.883C407.596 113.22 408.561 116.099 408.525 119.053C408.49 122.007 407.457 124.862 405.594 127.155C403.94 129.052 402.035 130.713 399.93 132.091C397.77 133.592 395.497 134.935 392.782 134.994C388.1 135.084 384.252 131.604 382.031 127.815C381.302 126.52 380.673 125.17 380.148 123.78C379.652 122.603 379.219 121.401 378.85 120.178C376.442 119.331 374.012 118.483 371.671 117.425C369.127 116.299 367.042 114.649 366.232 111.911C365.927 110.738 365.857 109.516 366.027 108.316C366.198 107.116 366.604 105.962 367.223 104.92C367.874 103.838 368.733 102.897 369.75 102.15C370.767 101.403 371.923 100.866 373.149 100.568C374.466 100.229 375.831 100.12 377.185 100.246C376.59 98.5685 376.395 96.7747 376.617 95.0083C376.838 93.2419 377.47 91.5517 378.461 90.0728C380.026 87.8029 382.132 85.9596 384.59 84.7099C385.939 83.9598 387.388 83.5921 388.82 84.3718C390.048 85.1537 391.124 86.153 391.993 87.3205C393.577 89.2422 394.793 91.4397 395.58 93.8026C396.615 92.4737 397.343 90.7638 398.371 89.5634C399.268 88.3779 400.528 87.5171 401.959 87.1111C403.389 86.7051 404.913 86.776 406.3 87.3131C412.999 89.9989 412.692 98.4464 410.291 104.043Z" fill="#019AE9"/>
<path d="M523.818 126.398C525.589 124.889 527.624 123.719 529.82 122.947C529.325 120.496 529.679 117.95 530.824 115.727C531.97 113.504 533.838 111.737 536.122 110.718C538.089 109.905 540.159 109.37 542.273 109.128C544.523 108.791 546.698 108.656 548.777 109.645C552.34 111.343 553.953 115.408 554.179 119.136C554.244 120.387 554.208 121.642 554.072 122.887C554.006 123.965 553.877 125.035 553.69 126.098C555.19 127.674 556.692 129.233 558.071 130.899C559.573 132.707 560.525 134.748 560.097 137.125C559.883 138.127 559.473 139.077 558.891 139.92C558.31 140.763 557.567 141.483 556.707 142.039C554.88 143.186 552.673 143.561 550.57 143.082C549.446 142.842 548.372 142.408 547.397 141.8C547.209 143.285 546.677 144.706 545.845 145.951C545.013 147.196 543.903 148.23 542.602 148.972C540.557 150.092 538.266 150.687 535.934 150.704C535.311 150.785 534.677 150.703 534.095 150.467C533.512 150.23 533.001 149.847 532.611 149.354C531.979 148.299 531.546 147.137 531.335 145.926C530.862 143.874 530.773 141.753 531.072 139.669C529.789 140.276 528.59 141.304 527.321 141.844C526.192 142.396 524.914 142.565 523.68 142.327C522.446 142.089 521.322 141.456 520.479 140.524C516.451 136.007 519.917 129.729 523.818 126.398Z" fill="#EF76A4"/>
<path d="M716.87 90.4716C718.557 91.4535 719.12 93.8086 718.46 95.6691C717.704 97.4974 716.391 99.041 714.708 100.081C713.991 100.686 713.101 101.048 712.165 101.116C711.563 101.074 710.981 100.883 710.47 100.561C709.528 100.018 708.708 99.2861 708.062 98.4106C707.417 97.5351 706.96 96.5352 706.72 95.4742C705.587 96.4415 704.36 97.2938 703.058 98.0183C702.568 98.339 702.001 98.5225 701.416 98.5499C700.691 98.4465 700.019 98.1099 699.502 97.5901C697.807 96.2405 696.03 94.792 695.302 92.7588C694.881 91.3894 694.891 89.9237 695.331 88.5604C695.771 87.197 696.62 86.0018 697.762 85.1368C698.923 84.2911 700.254 83.7065 701.663 83.4231C703.072 83.1397 704.525 83.1642 705.924 83.4949C705.422 82.9523 705.049 82.3037 704.832 81.5971C704.615 80.8906 704.561 80.1443 704.672 79.4136C704.662 79.0047 704.754 78.5998 704.939 78.2351C705.125 77.8705 705.398 77.5575 705.734 77.3243C706.069 77.0906 706.457 76.9432 706.863 76.8953C707.27 76.8474 707.681 76.9004 708.062 77.0497C709.047 77.3793 709.918 77.9826 710.573 78.789C711.228 79.5954 711.64 80.5715 711.761 81.6034C713.193 80.4266 713.914 78.2885 715.706 77.7791C716.612 77.5682 717.564 77.7014 718.377 78.1527C721.341 79.6543 722.736 83.1582 722.961 86.4509C723.12 88.1475 722.891 89.858 722.293 91.4535C721.985 92.2452 721.521 92.9667 720.928 93.575C720.335 94.1834 719.626 94.6661 718.842 94.9943" fill="#05946B"/>
<path d="M329.863 99.8421C333.165 92.4741 342.107 91.0418 349.368 91.5896C336.803 67.1791 389.369 68.6482 383.269 86.4275C381.513 91.5748 381.386 92.9923 381.386 92.9923C381.874 90.3522 386.637 94.4925 389.188 97.9285C395.669 106.668 388.025 117.096 377.809 115.632C386.427 133.743 356.487 136.301 348.288 124.808C341.281 127.666 330.082 121.486 334.582 114.253C330.186 111.29 327.591 104.927 329.863 99.8421Z" fill="#64BFEB"/>
<path d="M847.559 150.441C849.333 148.934 851.367 147.765 853.561 146.99C853.313 145.755 853.278 144.486 853.457 143.239C853.741 141.402 854.476 139.663 855.595 138.177C856.714 136.692 858.183 135.506 859.871 134.725C861.838 133.913 863.908 133.375 866.022 133.126C868.227 132.79 870.447 132.661 872.512 133.652C876.089 135.347 877.694 139.421 877.928 143.149C877.987 144.401 877.95 145.655 877.815 146.9C877.747 147.979 877.619 149.054 877.431 150.119C878.933 151.694 880.433 153.255 881.812 154.913C883.314 156.728 884.266 158.768 883.838 161.147C883.626 162.147 883.217 163.096 882.635 163.936C882.053 164.777 881.31 165.494 880.448 166.045C879.546 166.621 878.537 167.01 877.482 167.189C876.426 167.368 875.346 167.333 874.304 167.087C873.183 166.848 872.112 166.417 871.138 165.813C870.953 167.299 870.423 168.722 869.589 169.966C868.755 171.21 867.641 172.241 866.337 172.977C864.293 174.089 862.003 174.672 859.676 174.672C859.054 174.756 858.421 174.676 857.84 174.44C857.258 174.205 856.748 173.821 856.359 173.329C855.721 172.277 855.285 171.114 855.076 169.902C854.603 167.85 854.514 165.728 854.814 163.644C853.523 164.26 852.331 165.28 851.063 165.82C849.933 166.371 848.655 166.54 847.422 166.302C846.188 166.064 845.064 165.432 844.221 164.5C840.207 160.013 843.658 153.764 847.559 150.441ZM455.148 34.4093C455.462 31.0634 458.748 28.5739 462.101 28.2137C465.454 27.8534 468.748 29.1956 471.651 30.8759C473.118 31.5793 474.324 32.7302 475.095 34.1627C475.461 35.1373 475.582 36.1886 475.448 37.2236C475.271 39.0697 474.712 40.8589 473.808 42.4782C472.904 44.0974 471.674 45.5114 470.196 46.6308C472.516 47.7018 474.727 48.9955 476.797 50.4935C477.651 51.0251 478.345 51.7781 478.808 52.67C479.153 53.8721 479.113 55.1516 478.696 56.3304C477.849 59.9317 476.812 63.7279 474.194 66.3223C470.729 69.7139 464.945 70.1717 460.632 67.9435C456.317 65.7139 453.407 61.1912 452.304 56.4884C451.822 57.657 451.081 58.7013 450.138 59.543C449.194 60.3848 448.073 61.0023 446.857 61.3492C444.952 61.8734 442.627 61.5441 441.487 59.9022C441.078 59.2692 440.821 58.55 440.737 57.801C440.52 56.038 440.808 54.2496 441.568 52.6439C442.327 51.0382 443.527 49.6811 445.028 48.7305C442.162 47.3351 438.328 47.7486 436.249 45.3403C435.283 44.076 434.816 42.5003 434.937 40.9136C435.102 35.2436 439.588 30.5614 444.57 27.846C447.085 26.3674 449.911 25.4962 452.822 25.3019C454.275 25.208 455.731 25.4104 457.103 25.8968C458.475 26.3831 459.734 27.1432 460.803 28.131" fill="#F6AB0B"/>
<path d="M330.221 90.8378C328.368 94.702 323.605 95.3413 319.764 94.95C326.096 108.078 298.233 106.563 301.707 97.2003C302.178 96.087 302.544 94.9308 302.803 93.7496C302.502 95.1449 300.012 92.902 298.722 91.0268C295.405 86.3018 299.613 80.8533 305.007 81.7983C300.687 72.0471 316.606 71.1316 320.762 77.3361C324.513 75.9112 330.364 79.3457 327.866 83.142C330.206 84.7632 331.497 88.1756 330.221 90.8378Z" fill="#F9663F"/>
<path d="M857.499 171.161C854.557 177.298 846.996 178.311 840.905 177.688C850.943 198.528 806.696 196.128 812.217 181.282C812.96 179.511 813.541 177.679 813.958 175.805C813.478 178.011 809.524 174.432 807.492 171.47C802.24 163.967 808.887 155.371 817.469 156.818C810.597 141.364 835.879 139.864 842.525 149.751C848.459 147.501 857.784 152.924 853.778 158.949C857.462 161.515 859.525 166.938 857.499 171.161Z" fill="#5E2779"/>
<path d="M471.319 93.0233C468.378 99.1584 460.816 100.17 454.726 99.5497C464.771 120.388 420.517 117.988 426.037 103.142C426.767 101.37 427.335 99.5393 427.734 97.6656C427.262 99.8716 423.307 96.2998 421.267 93.3289C416.016 85.828 422.662 77.23 431.251 78.6711C424.388 63.2248 449.654 61.7172 456.308 71.6043C462.243 69.354 471.567 74.7848 467.561 80.8165C471.304 83.3739 473.367 88.8003 471.319 93.0233Z" fill="#05946B"/>
<path d="M915.457 152.58C915.868 154.625 915.791 156.737 915.233 158.746C917.446 158.811 919.614 159.392 921.564 160.442C924.107 161.657 926.732 163.113 928.443 165.446C930.333 167.988 930.596 171.274 930.265 174.349C930.007 177.367 928.973 180.266 927.265 182.767C927.145 182.925 927.026 183.098 926.89 183.254C927.123 185.092 926.845 186.958 926.086 188.648C925.328 190.338 924.119 191.786 922.592 192.834C920.813 194.088 918.655 194.687 916.485 194.529C914.122 194.252 912.734 192.204 911.67 190.292C910.619 188.336 909.913 186.214 909.583 184.019C906.519 184.083 903.545 182.98 901.262 180.934C898.98 178.889 897.559 176.053 897.288 173C897.288 172.729 897.341 172.077 897.168 171.867C897.033 171.746 896.862 171.673 896.681 171.657C894.83 171.235 893.075 170.472 891.504 169.406C890.153 168.426 889.093 167.099 888.436 165.565C887.828 164.146 887.545 162.608 887.606 161.065C887.667 159.522 888.071 158.012 888.789 156.645C889.718 154.797 891.333 153.386 893.289 152.715C894.222 152.454 895.211 152.473 896.133 152.768C896.368 150.835 897.043 148.982 898.106 147.35C898.827 146.247 899.776 145.31 900.889 144.602C902.001 143.895 903.252 143.433 904.557 143.247C910.094 142.587 914.475 147.606 915.457 152.58Z" fill="#DFD4E4"/>
<path d="M94.0203 163.381C93.1298 165.518 91.859 167.476 90.2698 169.159C91.8108 171.131 92.6341 173.568 92.6041 176.07C92.574 178.572 91.6924 180.99 90.1044 182.924C88.7074 184.528 87.0973 185.934 85.3189 187.102C83.4879 188.408 81.53 189.503 79.2502 189.542C75.296 189.632 72.0401 186.712 70.1649 183.488C69.549 182.399 69.0174 181.265 68.5747 180.096C68.1479 179.103 67.7796 178.086 67.4717 177.05C65.4384 176.3 63.3757 175.595 61.403 174.717C59.2575 173.772 57.4871 172.376 56.7961 170.058C56.5386 169.062 56.4809 168.025 56.6264 167.006C56.7718 165.988 57.1176 165.008 57.6437 164.124C58.1927 163.212 58.9161 162.418 59.7725 161.786C60.6289 161.154 61.6014 160.697 62.6344 160.441C63.7372 160.155 64.8811 160.061 66.0158 160.164C65.5122 158.753 65.347 157.243 65.5334 155.756C65.7199 154.27 66.2528 152.847 67.0892 151.604C68.4112 149.685 70.1904 148.125 72.2661 147.065C72.7867 146.712 73.3901 146.5 74.0173 146.45C74.6444 146.4 75.2738 146.514 75.8438 146.78C76.8794 147.442 77.7868 148.286 78.5223 149.271C79.854 150.897 80.8714 152.757 81.5226 154.755C82.3702 153.63 83.0228 152.211 83.8777 151.132C84.6408 150.133 85.708 149.41 86.9181 149.072C88.1283 148.734 89.4156 148.799 90.5858 149.256C96.3089 151.514 96.0239 158.656 94.0203 163.381ZM502.495 93.3819C501.571 95.4596 500.271 97.3492 498.662 98.9559C500.189 100.84 501.009 103.2 500.979 105.625C500.949 108.051 500.071 110.389 498.496 112.235C497.099 113.795 495.491 115.153 493.718 116.27C491.887 117.516 489.968 118.596 487.672 118.633C483.712 118.708 480.456 115.895 478.587 112.782C477.966 111.727 477.432 110.623 476.989 109.481C476.57 108.524 476.202 107.545 475.886 106.548C473.854 105.798 471.797 105.137 469.817 104.297C467.679 103.381 465.916 102.046 465.219 99.7961C464.966 98.8392 464.911 97.8409 465.057 96.862C465.202 95.8831 465.546 94.9441 466.067 94.1024C467.21 92.3027 469.015 91.0254 471.093 90.5469C472.2 90.2697 473.346 90.1784 474.483 90.2767C473.985 88.9161 473.823 87.4557 474.01 86.0191C474.197 84.5825 474.727 83.2121 475.557 82.0242C476.898 80.1653 478.675 78.6637 480.732 77.6506C481.258 77.3096 481.861 77.1056 482.486 77.0572C483.111 77.0087 483.739 77.1173 484.311 77.373C485.346 78.005 486.256 78.82 486.997 79.7798C488.328 81.326 489.358 83.1073 490.034 85.0319C490.883 83.9526 491.536 82.5498 492.391 81.5517C493.173 80.5812 494.242 79.8824 495.445 79.555C496.648 79.2275 497.924 79.2881 499.09 79.7281C504.784 81.8898 504.559 88.8134 502.495 93.3819Z" fill="#019AE9"/>
<path d="M539.119 121.642C536.358 127.861 528.819 129.084 522.721 128.655C533.365 149.188 489.067 148.071 494.154 133.082C494.843 131.29 495.37 129.44 495.729 127.554C495.323 129.804 491.227 126.315 489.135 123.405C483.651 116.053 490.065 107.298 498.685 108.462C491.37 93.2016 516.599 90.9971 523.531 100.666C529.412 98.2293 538.871 103.412 535.076 109.541C538.82 112.001 541.018 117.358 539.119 121.642Z" fill="#05946B"/>
<path d="M634.785 118.062C631.963 114.95 632.443 109.811 634.948 106.405C637.454 102.999 641.46 101.101 645.451 99.8343C647.365 99.226 649.465 98.7461 651.386 99.4135C652.598 99.8978 653.674 100.67 654.522 101.664C656.072 103.388 657.249 105.414 657.978 107.616C658.708 109.817 658.974 112.145 658.76 114.454C661.71 113.205 664.779 112.258 667.92 111.626C669.129 111.289 670.408 111.289 671.617 111.626C673.118 112.158 674.048 113.531 674.912 114.83C677.454 118.686 680.162 122.811 680.328 127.448C680.552 133.546 676.088 139.233 670.336 141.357C664.582 143.48 658.017 142.353 652.706 139.353C653.377 140.787 653.716 142.355 653.696 143.938C653.677 145.522 653.3 147.08 652.593 148.497C651.476 150.711 649.203 152.601 646.712 152.249C645.791 152.075 644.922 151.696 644.168 151.139C642.352 149.856 640.938 148.083 640.091 146.027C639.243 143.971 638.998 141.716 639.383 139.526C635.632 140.982 632.803 144.875 628.821 144.776C626.834 144.597 624.983 143.692 623.622 142.234C618.535 137.29 617.972 129.174 619.682 122.285C620.468 118.725 622.053 115.391 624.319 112.534C625.464 111.104 626.888 109.92 628.503 109.055C630.119 108.19 631.893 107.66 633.718 107.499" fill="#F6AB0B"/>
<path d="M394.642 123.653C396.238 122.306 398.13 121.354 400.163 120.877C399.15 118.91 398.611 116.735 398.587 114.523C398.407 111.694 398.438 108.701 399.646 106.045C400.988 103.142 403.711 101.342 406.57 100.156C409.332 98.9242 412.365 98.4229 415.377 98.7003C415.583 98.715 415.785 98.7475 415.984 98.7992C417.486 97.7019 419.262 97.0417 421.116 96.8919C422.969 96.742 424.829 97.1083 426.487 97.9502C428.442 98.9073 430 100.518 430.892 102.504C431.791 104.703 430.673 106.931 429.48 108.776C428.264 110.632 426.742 112.268 424.979 113.615C426.514 116.269 426.985 119.405 426.299 122.393C425.613 125.38 423.819 127.996 421.281 129.714C421.056 129.865 420.433 130.113 420.343 130.367C420.299 130.543 420.318 130.728 420.396 130.892C420.92 132.713 421.109 134.613 420.951 136.503C420.74 138.16 420.089 139.729 419.067 141.05C418.113 142.256 416.904 143.236 415.527 143.921C414.15 144.605 412.639 144.977 411.101 145.01C409.033 145.087 407.018 144.348 405.489 142.954C404.799 142.262 404.338 141.374 404.169 140.412C402.36 141.124 400.413 141.414 398.475 141.259C397.162 141.156 395.885 140.775 394.729 140.143C393.573 139.511 392.564 138.64 391.769 137.59C388.483 133.165 390.785 126.931 394.642 123.651V123.653Z" fill="#F9663F"/>
<path d="M400.914 120.614C398.498 115.22 391.957 114.169 386.66 114.568C395.851 96.7131 357.402 97.7851 361.859 110.817C362.461 112.372 362.923 113.979 363.239 115.618C362.872 113.689 359.362 116.698 357.523 119.226C352.782 125.618 358.371 133.248 365.85 132.174C359.549 145.422 381.439 147.282 387.433 138.881C392.519 140.982 400.741 136.465 397.433 131.154C400.674 128.948 402.564 124.289 400.914 120.614Z" fill="#4662C7"/>
<path d="M420.674 135.518C425.048 144.649 436.308 146.15 445.37 145.234C430.427 176.248 496.27 172.661 488.056 150.576C485.677 144.199 485.513 142.429 485.513 142.429C486.217 145.715 492.107 140.395 495.137 135.97C502.976 124.807 493.052 111.964 480.283 114.161C490.456 91.1757 452.887 88.9638 442.992 103.66C434.14 100.268 420.299 108.4 426.202 117.365C420.696 121.154 417.666 129.255 420.674 135.518ZM294.644 173.336C300.195 184.927 314.509 186.841 326.001 185.677C307.014 225.085 390.675 220.531 380.24 192.429C377.24 184.319 376.955 182.076 376.955 182.076C377.802 186.247 385.319 179.533 389.182 173.876C399.146 159.691 386.535 143.405 370.316 146.164C383.294 116.961 335.491 114.154 322.918 132.797C311.665 128.559 294.105 138.798 301.598 150.201C294.675 155.084 290.81 165.34 294.644 173.336ZM166.085 145.933C161.7 146.375 157.434 147.619 153.498 149.6C152.147 147.668 150.481 145.976 148.569 144.598C145.693 142.576 142.363 141.297 138.874 140.872C135.385 140.448 131.845 140.892 128.569 142.166C124.882 143.783 121.436 145.901 118.329 148.46C114.937 151.003 111.891 153.884 110.527 158.011C108.164 165.107 111.593 172.624 116.378 177.823C118.002 179.55 119.757 181.147 121.629 182.601C123.186 183.923 124.814 185.157 126.506 186.3C126.708 190.389 126.843 194.5 127.308 198.557C127.819 202.969 129.348 206.946 133.145 209.488C134.789 210.507 136.618 211.191 138.527 211.501C140.437 211.811 142.388 211.741 144.27 211.296C146.245 210.818 148.104 209.951 149.738 208.745C151.373 207.539 152.75 206.02 153.79 204.274C154.937 202.429 155.754 200.398 156.206 198.272C158.475 199.964 161.109 201.101 163.896 201.592C166.684 202.084 169.548 201.915 172.259 201.101C176.465 199.811 180.282 197.49 183.362 194.349C185.058 192.654 186.363 190.599 185.905 188.056C185.288 185.812 184.272 183.697 182.905 181.813C180.722 178.482 177.945 175.58 174.713 173.253C177.255 172.316 180.197 172.016 182.567 171.003C187.128 169.106 190.069 165.002 189.724 159.991C188.808 148.453 175.77 144.92 166.085 145.933Z" fill="#DDDEF6"/>
<path d="M267.358 147.944C271.259 156.713 281.904 158.445 290.517 157.831C275.513 186.832 338.034 185.249 330.855 164.08C328.776 157.958 328.603 156.285 328.603 156.285C329.182 159.421 334.905 154.537 337.929 150.426C345.671 140.052 336.615 127.628 324.424 129.33C334.74 107.817 299.129 104.686 289.346 118.318C281.042 114.875 267.696 122.182 273.052 130.847C267.764 134.312 264.665 141.888 267.358 147.944ZM558.604 122.864C563.044 117.965 562.279 109.863 558.356 104.537C554.433 99.2113 548.102 96.1873 541.8 94.1999C538.799 93.2401 535.475 92.5048 532.475 93.5325C530.567 94.299 528.875 95.5195 527.546 97.088C525.101 99.7974 523.244 102.984 522.093 106.447C520.941 109.91 520.519 113.574 520.854 117.208C516.211 115.245 511.384 113.752 506.443 112.751C504.522 112.362 502.46 112.047 500.614 112.751C498.319 113.599 496.803 115.752 495.446 117.787C491.402 123.855 487.193 130.328 486.969 137.621C486.616 147.216 493.72 156.173 502.722 159.482C511.725 162.789 522.077 161.056 530.434 156.345C529.37 158.604 528.832 161.074 528.861 163.57C528.89 166.066 529.484 168.524 530.6 170.757C532.37 174.237 535.992 177.215 539.856 176.638C541.304 176.365 542.671 175.767 543.855 174.89C546.707 172.865 548.926 170.072 550.254 166.836C551.582 163.6 551.965 160.053 551.357 156.608C557.185 158.918 561.695 165.025 567.958 164.859C571.064 164.769 573.893 163.045 576.143 160.876C584.155 153.104 585.01 140.351 582.324 129.518C580.952 123.966 578.739 118.506 575.033 114.154C571.326 109.804 566.03 106.609 560.307 106.322M644.896 149.33C642.903 147.652 640.545 146.465 638.009 145.865C639.39 143.532 639.809 140.576 639.975 137.928C640.192 134.387 640.17 130.659 638.647 127.38C636.958 123.756 633.568 121.513 629.998 120.021C626.54 118.482 622.744 117.862 618.977 118.221C618.724 118.237 618.474 118.272 618.226 118.325C616.353 116.964 614.141 116.145 611.833 115.96C609.525 115.775 607.21 116.23 605.144 117.276C602.704 118.469 600.761 120.481 599.653 122.96C598.535 125.707 599.914 128.483 601.407 130.786C602.913 133.11 604.809 135.155 607.012 136.833C605.105 140.14 604.521 144.047 605.378 147.767C606.235 151.488 608.47 154.745 611.632 156.884C611.917 157.081 612.667 157.388 612.803 157.733C612.856 157.955 612.833 158.187 612.735 158.393C612.076 160.667 611.842 163.042 612.046 165.4C612.305 167.468 613.119 169.427 614.401 171.071C615.589 172.59 617.102 173.825 618.827 174.687C620.553 175.548 622.449 176.014 624.378 176.052C626.959 176.155 629.478 175.242 631.393 173.509C632.259 172.656 632.849 171.564 633.088 170.373C635.346 171.276 637.781 171.653 640.207 171.476C641.848 171.353 643.444 170.88 644.888 170.09C646.332 169.299 647.59 168.209 648.579 166.893C652.592 161.214 649.72 153.443 644.896 149.33Z" fill="#DDDEF6"/>
<path d="M755.594 111.957C754.003 108.4 749.667 107.719 746.163 107.966C752.248 96.1501 726.815 96.8618 729.757 105.421C730.163 106.448 730.468 107.511 730.672 108.596C730.432 107.32 728.128 109.346 726.92 110.981C723.786 115.218 727.492 120.254 732.428 119.548C728.257 128.304 742.743 129.541 746.681 123.982C750.071 125.377 755.48 122.392 753.29 118.895C755.436 117.5 756.688 114.418 755.594 111.957Z" fill="#FFC400"/>
<path d="M1266.81 103.105C1271.26 98.1986 1270.5 90.1041 1266.56 84.7707C1262.62 79.4359 1256.32 76.4281 1250 74.4333C1247 73.4883 1243.68 72.7367 1240.68 73.7733C1238.77 74.5384 1237.08 75.7623 1235.76 77.3362C1233.32 80.0426 1231.46 83.2264 1230.31 86.6868C1229.16 90.1471 1228.73 93.8089 1229.07 97.4411C1224.42 95.4858 1219.6 93.9955 1214.66 92.9922C1212.73 92.6024 1210.68 92.3027 1208.83 92.9922C1206.52 93.8398 1205.02 95.9926 1203.66 98.0332C1199.61 104.094 1195.41 110.584 1195.18 117.868C1194.82 127.457 1201.93 136.414 1210.93 139.736C1219.94 143.06 1230.29 141.311 1238.65 136.601C1237.58 138.858 1237.04 141.327 1237.07 143.823C1237.1 146.318 1237.7 148.774 1238.82 151.005C1240.59 154.493 1244.2 157.463 1248.06 156.901C1249.51 156.624 1250.88 156.027 1252.07 155.153C1254.93 153.128 1257.15 150.336 1258.48 147.099C1259.8 143.863 1260.19 140.316 1259.58 136.871C1265.41 139.166 1269.91 145.288 1276.19 145.122C1279.29 145.025 1282.12 143.3 1284.37 141.14C1292.38 133.358 1293.24 120.607 1290.55 109.782C1289.17 104.23 1286.96 98.7685 1283.26 94.426C1279.56 90.0819 1274.26 86.8704 1268.53 86.5928" fill="#DDDEF6"/>
<path d="M1210.7 119.706C1214 112.332 1222.95 110.9 1230.2 111.455C1217.63 87.0431 1270.2 88.5212 1264.11 106.302C1262.35 111.431 1262.22 112.849 1262.22 112.849C1262.7 110.216 1267.47 114.351 1270.02 117.794C1276.51 126.525 1268.86 136.96 1258.64 135.498C1267.26 153.608 1237.32 156.158 1229.12 144.664C1222.13 147.538 1210.93 141.364 1215.44 134.095C1211.02 131.154 1208.43 124.755 1210.7 119.706Z" fill="#64BFEB"/>
<path d="M1239.89 69.571C1238.97 71.7116 1237.68 73.6689 1236.07 75.3488C1236.83 76.3353 1237.42 77.4436 1237.81 78.6268C1238.38 80.3982 1238.51 82.2853 1238.18 84.1185C1237.85 85.9517 1237.06 87.6736 1235.9 89.1296C1234.5 90.7347 1232.89 92.1407 1231.11 93.3082C1229.28 94.5973 1227.36 95.7077 1225.07 95.7534C1221.11 95.8361 1217.86 92.9243 1215.98 89.6921C1215.37 88.6038 1214.84 87.4699 1214.39 86.3005C1213.97 85.3099 1213.6 84.2952 1213.29 83.2617C1211.26 82.5116 1209.19 81.7999 1207.22 80.9287C1205.08 79.9764 1203.31 78.581 1202.62 76.2702C1202.36 75.2746 1202.3 74.2371 1202.45 73.2184C1202.59 72.1997 1202.94 71.2202 1203.47 70.3374C1204.02 69.4208 1204.74 68.6224 1205.6 67.9887C1206.47 67.355 1207.44 66.8986 1208.48 66.646C1209.59 66.3632 1210.73 66.2693 1211.87 66.3684C1211.37 64.9567 1211.21 63.4477 1211.39 61.9615C1211.58 60.4754 1212.11 59.0533 1212.94 57.8087C1214.27 55.9008 1216.05 54.354 1218.13 53.3082C1218.65 52.9643 1219.25 52.7608 1219.87 52.7173C1220.49 52.6738 1221.11 52.7919 1221.68 53.0601C1222.71 53.7224 1223.62 54.5663 1224.36 55.5511C1225.68 57.1797 1226.7 59.0386 1227.36 61.035C1228.2 59.9099 1228.86 58.4909 1229.71 57.4115C1230.47 56.4143 1231.54 55.6922 1232.75 55.354C1233.96 55.0157 1235.25 55.0797 1236.42 55.5363C1242.18 57.6965 1241.92 64.8756 1239.89 69.571Z" fill="#EF76A4"/>
<path d="M1419.73 129.953C1423.63 138.724 1434.26 140.456 1442.88 139.842C1427.88 168.843 1490.41 167.26 1483.22 146.091C1481.15 139.976 1480.96 138.288 1480.96 138.288C1481.54 141.423 1487.27 136.548 1490.28 132.437C1498.03 122.061 1488.97 109.639 1476.78 111.349C1487.11 89.8189 1451.49 86.69 1441.71 100.329C1433.4 96.8931 1420.05 104.192 1425.41 112.865C1420.15 116.323 1417.05 123.899 1419.73 129.953Z" fill="#DDDEF6"/>
<path d="M1402.88 99.6234C1405.58 104.304 1407.12 111.492 1401.38 114.537C1404.24 119.039 1406.47 125.31 1404.88 130.644C1398.95 139.647 1384.63 140.622 1381.2 128.821C1375.2 131.071 1372.28 124.815 1372.26 119.736C1366.11 118.041 1355.63 115.167 1358.47 106.742C1362.09 96.0309 1376.16 89.1959 1385.24 97.8161C1388.96 90.8615 1399.55 93.8028 1402.88 99.6234Z" fill="#859400"/>
<path d="M1373.51 112.332C1370.63 118.333 1363.18 119.353 1357.21 118.754C1367.07 139.226 1323.61 136.864 1329.04 122.28C1329.76 120.541 1330.33 118.741 1330.73 116.901C1330.26 119.061 1326.38 115.55 1324.38 112.663C1319.2 105.295 1325.75 96.8342 1334.17 98.2591C1327.42 83.0904 1352.27 81.6345 1358.76 91.3193C1364.61 89.069 1373.76 94.4481 1369.83 100.366C1373.49 102.887 1375.5 108.251 1373.51 112.332Z" fill="#DDDEF6"/>
<path d="M1282.59 117.485C1285.25 117.702 1287.82 118.548 1290.09 119.954C1290.77 117.276 1292.64 114.867 1294.4 112.812C1296.78 110.095 1299.49 107.425 1302.96 106.157C1306.77 104.747 1310.87 105.587 1314.51 107.087C1318.11 108.471 1321.29 110.755 1323.75 113.72C1323.91 113.922 1324.06 114.133 1324.21 114.35C1326.54 114.72 1328.72 115.724 1330.52 117.253C1332.31 118.781 1333.65 120.775 1334.38 123.015C1335.28 125.636 1335.23 128.489 1334.25 131.078C1333.07 133.869 1330.07 134.875 1327.33 135.459C1324.57 136.054 1321.72 136.164 1318.92 135.783C1317.91 139.546 1315.52 142.789 1312.22 144.858C1308.92 146.928 1304.95 147.671 1301.13 146.938C1300.79 146.87 1300.02 146.548 1299.69 146.683C1299.36 146.817 1299.39 146.997 1299.26 147.208C1298.1 149.323 1296.56 151.205 1294.71 152.759C1293.03 154.063 1291.03 154.89 1288.92 155.152C1286.97 155.39 1284.99 155.19 1283.12 154.566C1281.26 153.944 1279.55 152.914 1278.13 151.551C1276.2 149.756 1275.05 147.276 1274.92 144.642C1274.93 143.409 1275.3 142.206 1275.99 141.184C1273.71 140.208 1271.68 138.725 1270.06 136.847C1268.97 135.575 1268.16 134.086 1267.69 132.478C1267.22 130.871 1267.09 129.182 1267.32 127.523C1268.47 120.502 1276.15 116.976 1282.59 117.485Z" fill="#F9663F"/>
<path d="M1310.29 149.332C1314.66 158.454 1325.92 159.954 1334.98 159.039C1320.04 190.058 1385.88 186.473 1377.67 164.388C1375.29 158.004 1375.13 156.233 1375.13 156.233C1375.82 159.526 1381.71 154.2 1384.74 149.782C1392.58 138.619 1382.66 125.776 1369.89 127.973C1380.06 104.988 1342.49 102.774 1332.6 117.47C1323.75 114.08 1309.91 122.204 1315.81 131.177C1310.31 134.965 1307.28 143.03 1310.29 149.332Z" fill="#DDDEF6"/>
<path d="M760.935 107.109C758.481 100.884 751.129 99.3693 745.113 99.5347C759.367 83.4342 721.67 82.1068 717.228 94.005C718.488 98.318 718.991 98.4317 718.991 98.4317C715.743 98.1231 714.1 100.524 711.895 103.293C706.193 110.284 712.134 119.195 720.65 118.379C712.84 133.045 737.528 136.277 744.738 127.073C750.417 129.714 759.914 125.017 756.447 118.822C760.236 116.571 762.622 111.4 760.935 107.109Z" fill="#EF76A4"/>
<path d="M659.875 138.423C657.578 140.489 655.674 142.955 654.257 145.701C651.127 144.62 647.723 144.631 644.599 145.732C641.476 146.832 638.817 148.958 637.055 151.762C635.628 154.198 634.55 156.822 633.852 159.557C633.005 162.407 632.435 165.287 633.358 168.19C634.955 173.194 639.996 176.038 644.85 177.005C646.487 177.32 648.148 177.5 649.816 177.546C651.246 177.649 652.682 177.674 654.115 177.621C655.915 179.871 657.693 182.122 659.629 184.252C661.728 186.54 664.242 188.168 667.453 188.041C668.805 187.94 670.124 187.572 671.334 186.961C672.544 186.349 673.622 185.505 674.505 184.477C675.418 183.393 676.106 182.138 676.531 180.787C676.956 179.435 677.108 178.012 676.98 176.601C676.87 175.077 676.497 173.585 675.877 172.189C677.86 172.212 679.822 171.773 681.606 170.906C683.39 170.039 684.948 168.768 686.155 167.194C688.005 164.703 689.202 161.788 689.635 158.715C689.913 157.02 689.816 155.325 688.481 154.095C687.202 153.079 685.751 152.301 684.197 151.799C681.587 150.8 678.815 150.292 676.02 150.299C677.063 148.723 678.623 147.298 679.553 145.798C680.49 144.419 680.949 142.77 680.86 141.105C680.771 139.44 680.138 137.85 679.059 136.579C673.807 130.472 664.955 133.853 659.875 138.423ZM1419.46 145.258C1422.47 147.44 1426.97 146.532 1429.64 144.026C1432.31 141.521 1433.68 137.816 1434.42 134.169C1434.76 132.422 1434.99 130.538 1434.23 128.918C1433.7 127.898 1432.93 127.024 1431.98 126.376C1430.32 125.17 1428.43 124.321 1426.43 123.883C1424.43 123.445 1422.36 123.427 1420.36 123.831C1421.17 121.125 1421.72 118.343 1421.98 115.527C1422.18 114.451 1422.09 113.339 1421.72 112.308C1421.12 111.071 1419.82 110.359 1418.6 109.766C1414.98 107.868 1411.1 105.925 1407.03 106.203C1401.66 106.578 1397.09 111.049 1395.78 116.27C1394.48 121.491 1396.05 127.163 1399.17 131.521C1397.85 131.068 1396.45 130.918 1395.06 131.083C1393.67 131.248 1392.34 131.723 1391.17 132.474C1389.33 133.667 1387.89 135.865 1388.43 137.981C1388.67 138.776 1389.08 139.507 1389.64 140.118C1390.94 141.584 1392.63 142.651 1394.52 143.196C1396.4 143.74 1398.4 143.739 1400.28 143.194C1399.35 146.585 1396.21 149.466 1396.69 152.946C1397.03 154.674 1398 156.216 1399.4 157.276C1404.22 161.274 1411.41 161.026 1417.27 158.844C1420.33 157.831 1423.11 156.126 1425.41 153.862C1426.54 152.726 1427.44 151.371 1428.04 149.879C1428.63 148.387 1428.92 146.789 1428.89 145.183M827.648 105.249C823.262 105.7 818.995 106.951 815.059 108.94C813.708 107.011 812.042 105.322 810.13 103.945C807.255 101.923 803.925 100.643 800.436 100.219C796.947 99.7949 793.408 100.239 790.132 101.513C786.445 103.13 782.999 105.248 779.892 107.808C776.5 110.35 773.461 113.224 772.09 117.351C769.726 124.455 773.154 131.964 777.941 137.154C779.564 138.887 781.32 140.49 783.192 141.949C784.748 143.268 786.376 144.5 788.068 145.64C788.264 149.729 788.406 153.847 788.871 157.905C789.373 162.309 790.911 166.286 794.708 168.828C796.35 169.847 798.178 170.532 800.085 170.843C801.993 171.155 803.943 171.087 805.825 170.643C807.788 170.162 809.636 169.295 811.261 168.093C812.886 166.892 814.257 165.38 815.292 163.644C816.439 161.799 817.256 159.768 817.708 157.643C819.975 159.34 822.608 160.482 825.396 160.977C828.184 161.472 831.049 161.306 833.761 160.493C837.968 159.204 841.785 156.883 844.865 153.742C846.604 152.047 847.91 149.99 847.408 147.44C846.794 145.197 845.777 143.085 844.407 141.206C842.225 137.875 839.448 134.973 836.215 132.647C838.758 131.702 841.699 131.409 844.069 130.396C848.63 128.497 851.572 124.394 851.226 119.375C850.371 107.769 837.333 104.236 827.648 105.249Z" fill="#DDDEF6"/>
<path d="M776.537 150.757C774.752 149.179 773.369 147.199 772.502 144.98C770.581 146.54 767.955 147.306 765.584 147.8C762.426 148.461 759.043 148.926 755.884 147.981C752.397 146.938 749.95 144.155 748.097 141.116C746.259 138.197 745.203 134.854 745.029 131.409V130.703C743.555 129.189 742.527 127.298 742.057 125.237C741.588 123.177 741.695 121.027 742.366 119.024C743.128 116.659 744.694 114.636 746.792 113.307C749.125 111.942 751.825 112.827 754.092 113.878C756.39 114.919 758.489 116.353 760.295 118.116C763.04 115.959 766.5 114.921 769.979 115.21C773.458 115.5 776.699 117.095 779.05 119.676C779.267 119.901 779.635 120.524 779.951 120.621C780.158 120.644 780.366 120.592 780.536 120.471C782.509 119.593 784.627 119.084 786.784 118.971C788.687 118.933 790.564 119.412 792.215 120.359C793.746 121.232 795.062 122.437 796.068 123.884C797.074 125.331 797.744 126.984 798.03 128.723C798.457 131.049 797.947 133.449 796.612 135.4C795.953 136.283 795.043 136.946 794.002 137.305C795.112 139.23 795.771 141.383 795.929 143.6C796.03 145.099 795.81 146.603 795.284 148.01C794.757 149.418 793.937 150.697 792.877 151.762C788.292 156.165 780.881 154.582 776.537 150.757Z" fill="#F6AB0B"/>
<path d="M1138.55 63.7353C1143.23 64.9874 1148.72 68.574 1147.02 74.1627C1151.69 75.2126 1157.06 77.801 1159.44 82.1288C1161.38 91.5965 1152.94 101.289 1143.27 95.9996C1140.84 101.252 1135.06 99.1137 1131.83 95.911C1126.86 98.7386 1118.38 103.539 1114.87 96.4204C1110.37 87.313 1114.98 74.0653 1126.2 73.7655C1124.17 67.028 1132.78 62.1819 1138.55 63.7353Z" fill="#859400"/>
<path d="M1122.47 88.8813C1126.91 84.0722 1125.12 76.9463 1122.41 71.7237C1144.61 73.2918 1126.73 34.5896 1115.43 44.8C1114.12 46.0908 1112.7 47.2611 1111.19 48.2965C1113 47.0961 1108.39 44.8222 1105.01 44.0588C1096.39 41.9946 1091.05 51.0341 1095.4 58.191C1079.15 57.5457 1086.81 80.6968 1097.99 83.105C1098.07 89.2328 1106.24 95.6115 1110.22 89.8559C1113.83 92.2951 1119.41 92.1888 1122.47 88.8813Z" fill="#4662C7"/>
<path d="M1065.41 69.6091C1064.01 68.3584 1062.92 66.7955 1062.23 65.0465C1060.61 66.2104 1058.74 66.9813 1056.77 67.2982C1054.27 67.815 1051.6 68.1458 1049.14 67.44C1046.39 66.5924 1044.43 64.4396 1043 62.0313C1041.55 59.7357 1040.72 57.1098 1040.57 54.4019V53.8408C1039.39 52.6434 1038.57 51.1423 1038.19 49.504C1037.81 47.8658 1037.89 46.1547 1038.43 44.5606C1039.04 42.7022 1040.27 41.1119 1041.92 40.0586C1043.77 38.9778 1045.91 39.6762 1047.69 40.5016C1049.51 41.3432 1051.16 42.489 1052.59 43.8918C1054.76 42.1823 1057.5 41.3603 1060.26 41.5916C1063.01 41.8229 1065.57 43.0903 1067.43 45.138C1067.6 45.3181 1067.9 45.8202 1068.14 45.8881C1068.3 45.903 1068.46 45.8663 1068.6 45.7832C1070.14 45.0826 1071.81 44.6755 1073.5 44.5828C1075 44.5594 1076.48 44.9344 1077.79 45.6695C1078.99 46.3646 1080.03 47.3179 1080.82 48.4609C1081.62 49.6039 1082.14 50.9082 1082.37 52.2801C1082.7 54.1081 1082.3 55.9907 1081.26 57.5308C1080.74 58.2283 1080.02 58.7513 1079.19 59.031C1080.06 60.552 1080.57 62.2495 1080.69 63.9966C1080.77 65.1815 1080.6 66.3697 1080.18 67.4822C1079.77 68.5948 1079.12 69.6062 1078.28 70.4492C1074.68 73.8852 1068.85 72.6316 1065.41 69.6076V69.6091Z" fill="#F6AB0B"/>
<path d="M1137.28 100.96C1140.28 94.8763 1147.9 93.9977 1153.99 94.7183C1144.3 73.7127 1188.5 76.8489 1182.73 91.5968C1181.95 93.3659 1181.34 95.2013 1180.9 97.0808C1181.41 94.8748 1185.31 98.5219 1187.3 101.522C1192.44 109.152 1185.6 117.621 1177.07 116.016C1183.68 131.575 1158.42 132.632 1151.89 122.655C1145.89 124.822 1136.7 119.265 1140.77 113.27C1137.16 110.637 1135.23 105.153 1137.28 100.96Z" fill="#DDDEF6"/>
<path d="M978.383 29.8555C983.634 31.2582 989.771 35.2582 987.858 41.4834C993.056 42.6543 999.036 45.5351 1001.7 50.3664C1003.85 60.9135 994.444 71.7234 983.694 65.8349C980.994 71.6717 974.549 69.3004 970.941 65.73C965.412 68.8884 955.937 74.207 951.999 66.3C946.994 56.1265 952.111 41.3712 964.632 41.0493C962.343 33.5173 971.931 28.1146 978.383 29.857V29.8555Z" fill="#859400"/>
<path d="M970.521 78.814C969.445 81.3468 967.92 83.6643 966.02 85.6549C967.826 87.9922 968.79 90.8711 968.754 93.8247C968.719 96.7783 967.687 99.6333 965.825 101.927C964.171 103.825 962.266 105.488 960.161 106.87C958.001 108.37 955.727 109.705 953.019 109.766C948.331 109.856 944.482 106.376 942.261 102.587C941.531 101.292 940.902 99.9436 940.378 98.5512C939.882 97.3744 939.448 96.174 939.08 94.9499C936.672 94.1023 934.242 93.2622 931.901 92.1961C929.359 91.071 927.281 89.4202 926.463 86.6826C926.157 85.5109 926.088 84.2903 926.257 83.0914C926.427 81.8925 926.833 80.7392 927.452 79.6985C928.103 78.6149 928.963 77.6715 929.982 76.9232C931.001 76.1749 932.158 75.6366 933.387 75.3397C934.701 75.0006 936.064 74.8917 937.415 75.0178C936.82 73.3399 936.625 71.5462 936.846 69.7798C937.068 68.0133 937.699 66.3232 938.69 64.8443C940.256 62.5748 942.362 60.7315 944.82 59.4814C946.169 58.7313 947.618 58.3636 949.057 59.1433C950.28 59.9298 951.352 60.9284 952.223 62.0919C953.807 64.0137 955.023 66.2112 955.81 68.5741C956.845 67.2452 957.573 65.5353 958.6 64.3348C959.498 63.1496 960.758 62.2889 962.188 61.8829C963.619 61.4769 965.143 61.5477 966.53 62.0846C973.229 64.7394 972.922 73.209 970.521 78.814Z" fill="#019AE9"/>
<path d="M1084.02 101.169C1085.79 99.6617 1087.82 98.4921 1090.02 97.7186C1089.52 95.2676 1089.88 92.7215 1091.02 90.499C1092.17 88.2765 1094.04 86.5099 1096.32 85.4898C1098.29 84.6807 1100.36 84.1457 1102.47 83.8995C1104.68 83.5628 1106.9 83.427 1108.97 84.4178C1112.54 86.1129 1114.14 90.1793 1114.38 93.9076C1114.44 95.1598 1114.4 96.4134 1114.26 97.6581C1114.19 98.7345 1114.07 99.8065 1113.89 100.87C1115.39 102.445 1116.89 104.006 1118.27 105.679C1119.77 107.479 1120.72 109.527 1120.29 111.904C1119.86 113.924 1118.64 115.689 1116.9 116.811C1115.08 117.957 1112.87 118.332 1110.77 117.853C1109.64 117.612 1108.57 117.178 1107.59 116.571C1107.4 118.057 1106.88 119.48 1106.04 120.725C1105.21 121.971 1104.1 123.004 1102.8 123.743C1100.75 124.863 1098.46 125.458 1096.13 125.475C1095.51 125.559 1094.87 125.478 1094.29 125.241C1093.71 125.005 1093.2 124.62 1092.81 124.125C1092.17 123.071 1091.74 121.909 1091.53 120.697C1091.05 118.644 1090.96 116.524 1091.26 114.441C1089.99 115.055 1088.78 116.075 1087.51 116.616C1086.38 117.168 1085.11 117.339 1083.87 117.1C1082.64 116.862 1081.52 116.229 1080.68 115.296C1076.68 110.764 1080.15 104.5 1084.02 101.169Z" fill="#EF76A4"/>
<path d="M1277.1 65.2505C1278.8 66.2324 1279.35 68.5875 1278.69 70.4421C1277.93 72.2713 1276.62 73.8167 1274.94 74.8599C1274.22 75.4637 1273.33 75.8236 1272.4 75.8876C1271.79 75.8441 1271.21 75.6535 1270.7 75.3324C1269.77 74.7872 1268.95 74.0538 1268.31 73.1786C1267.67 72.3034 1267.22 71.3053 1266.99 70.2472C1265.86 71.2162 1264.63 72.0681 1263.33 72.7898C1262.84 73.1146 1262.27 73.2977 1261.68 73.3214C1260.96 73.217 1260.29 72.8802 1259.77 72.3616C1258.08 71.012 1256.31 69.5709 1255.57 67.5391C1255.15 66.1684 1255.16 64.7016 1255.6 63.3371C1256.04 61.9726 1256.89 60.7762 1258.03 59.9097C1259.19 59.0744 1260.51 58.4974 1261.91 58.2176C1263.31 57.9379 1264.75 57.9621 1266.14 58.2885C1265.64 57.7479 1265.26 57.1008 1265.05 56.3955C1264.83 55.6897 1264.78 54.9442 1264.89 54.2146C1264.88 53.8894 1264.93 53.5654 1265.05 53.2612C1265.16 52.9571 1265.34 52.6788 1265.56 52.4425C1265.79 52.2061 1266.05 52.0164 1266.35 51.8842C1266.65 51.7519 1266.97 51.6798 1267.3 51.672C1267.63 51.6646 1267.97 51.7237 1268.28 51.8448C1269.26 52.1759 1270.13 52.7794 1270.79 53.5854C1271.45 54.3914 1271.86 55.3668 1271.98 56.3985C1273.41 55.2202 1274.13 53.0821 1275.92 52.5727C1276.83 52.3647 1277.78 52.501 1278.59 52.9551C1281.56 54.4553 1282.96 57.9518 1283.18 61.2519C1283.33 62.9465 1283.11 64.6548 1282.51 66.2486C1282.2 67.0411 1281.74 67.7635 1281.14 68.373C1280.55 68.9825 1279.84 69.4667 1279.06 69.7968" fill="#05946B"/>
<path d="M890.094 74.613C893.396 67.245 902.338 65.8127 909.599 66.3605C897.034 41.95 949.607 43.4207 943.5 61.2C941.744 66.3458 941.617 67.7633 941.617 67.7633C942.104 65.1306 946.868 69.2635 949.419 72.6994C955.907 81.4407 948.263 91.8667 938.038 90.4034C946.658 108.521 916.718 111.072 908.519 99.5788C901.527 102.452 890.327 96.2713 894.843 89.0007C890.417 86.0682 887.821 79.6983 890.094 74.613Z" fill="#64BFEB"/>
<path d="M1407.79 125.212C1409.56 123.706 1411.6 122.537 1413.79 121.762C1413.55 120.526 1413.51 119.258 1413.7 118.011C1413.98 116.178 1414.71 114.444 1415.83 112.964C1416.95 111.483 1418.42 110.303 1420.1 109.527C1422.07 108.718 1424.14 108.183 1426.25 107.937C1428.46 107.591 1430.68 107.471 1432.74 108.461C1436.32 110.157 1437.93 114.222 1438.16 117.951C1438.22 119.203 1438.18 120.456 1438.05 121.701C1437.98 122.779 1437.85 123.851 1437.66 124.913C1439.16 126.488 1440.66 128.049 1442.05 129.707C1443.55 131.523 1444.5 133.562 1444.08 135.948C1443.64 137.966 1442.42 139.728 1440.69 140.846C1439.78 141.418 1438.77 141.805 1437.72 141.984C1436.66 142.164 1435.58 142.132 1434.54 141.89C1433.42 141.648 1432.34 141.216 1431.37 140.614C1431.18 142.098 1430.65 143.518 1429.82 144.761C1428.99 146.004 1427.88 147.035 1426.58 147.771C1424.53 148.882 1422.24 149.465 1419.91 149.466C1419.29 149.551 1418.66 149.473 1418.08 149.239C1417.49 149.005 1416.98 148.623 1416.59 148.132C1415.95 147.076 1415.52 145.911 1415.31 144.696C1414.83 142.644 1414.75 140.522 1415.04 138.438C1413.76 139.054 1412.56 140.074 1411.29 140.614C1410.17 141.165 1408.89 141.334 1407.65 141.096C1406.42 140.858 1405.3 140.226 1404.45 139.294C1400.42 134.8 1403.89 128.507 1407.79 125.212ZM1009.28 6.42878C1009.49 4.08842 1011.79 2.34756 1014.12 2.09949C1016.45 1.85291 1018.76 2.79053 1020.79 3.95996C1021.81 4.45088 1022.66 5.25508 1023.19 6.25602C1023.44 6.93524 1023.53 7.66613 1023.44 8.3867C1023.32 9.67458 1022.93 10.923 1022.3 12.0528C1021.67 13.1827 1020.81 14.1693 1019.78 14.95C1021.4 15.6978 1022.94 16.6029 1024.38 17.6521C1024.98 18.0139 1025.47 18.5322 1025.79 19.1508C1026.03 19.9879 1026.01 20.8812 1025.71 21.7023C1025.12 24.2154 1024.4 26.8555 1022.56 28.6717C1020.15 31.0342 1016.11 31.3576 1013.1 29.8042C1011.62 28.9603 1010.34 27.8106 1009.33 26.4318C1008.33 25.0529 1007.63 23.4764 1007.29 21.8072C1006.95 22.6216 1006.43 23.3495 1005.78 23.9365C1005.12 24.5235 1004.34 24.9545 1003.49 25.1974C1002.16 25.5665 1000.54 25.3332 999.74 24.1933C999.458 23.7386 999.286 23.2244 999.238 22.6916C999.087 21.4617 999.289 20.2142 999.82 19.0947C1000.35 17.9752 1001.19 17.0299 1002.24 16.369C1000.24 15.3945 997.565 15.678 996.109 13.9976C995.433 13.1155 995.107 12.015 995.193 10.9072C995.314 6.95296 998.442 3.68237 1001.95 1.78499C1003.71 0.763159 1005.68 0.15711 1007.71 0.0131112C1008.72 -0.0494321 1009.74 0.0931597 1010.7 0.432361C1011.65 0.771562 1012.53 1.30041 1013.28 1.98728" fill="#F6AB0B"/>
<path d="M890.469 65.6105C888.615 69.4732 883.852 70.1111 880.012 69.7212C886.343 82.8494 858.48 81.3344 861.953 71.9715C862.422 70.8569 862.789 69.7019 863.049 68.5208C862.749 69.9088 860.258 67.6732 858.968 65.7892C855.66 61.0642 859.861 55.6171 865.262 56.5636C860.933 46.8109 876.853 45.9028 881.016 52.1073C884.768 50.681 890.619 54.1095 888.121 57.9132C890.469 59.533 891.73 62.9482 890.469 65.6105Z" fill="#F9663F"/>
<path d="M1417.73 145.94C1414.79 152.077 1407.23 153.082 1401.14 152.466C1411.17 173.307 1366.93 170.898 1372.45 156.06C1373.19 154.291 1373.77 152.458 1374.19 150.584C1373.71 152.782 1369.76 149.211 1367.72 146.24C1362.47 138.739 1369.12 130.141 1377.7 131.589C1370.84 116.136 1396.12 114.643 1402.76 124.523C1408.69 122.272 1418.02 127.696 1414.01 133.727C1417.72 136.285 1419.76 141.71 1417.73 145.94Z" fill="#4662C7"/>
<path d="M1031.55 67.8004C1028.61 73.937 1021.05 74.9425 1014.95 74.3268C1025 95.167 980.746 92.7587 986.268 77.9208C986.996 76.1471 987.563 74.3118 987.963 72.4368C987.491 74.6871 983.537 71.071 981.496 68.1001C976.245 60.5992 982.891 52.0012 991.482 53.4423C984.617 38.0034 1009.89 36.4958 1016.54 46.3755C1022.47 44.1252 1031.8 49.5649 1027.79 55.5878C1031.5 58.1466 1033.57 63.5701 1031.55 67.8004Z" fill="#05946B"/>
<path d="M1475.69 127.35C1476.1 129.398 1476.02 131.513 1475.46 133.525C1477.67 133.589 1479.84 134.166 1481.79 135.213C1484.34 136.428 1486.96 137.884 1488.67 140.217C1490.56 142.759 1490.83 146.045 1490.5 149.12C1490.24 152.139 1489.2 155.038 1487.49 157.538C1487.39 157.71 1487.25 157.875 1487.12 158.033C1487.35 159.869 1487.08 161.733 1486.32 163.422C1485.56 165.109 1484.35 166.555 1482.82 167.606C1481.04 168.858 1478.88 169.457 1476.71 169.301C1474.35 169.023 1472.97 166.975 1471.9 165.063C1470.85 163.108 1470.14 160.986 1469.81 158.79C1466.75 158.854 1463.78 157.752 1461.5 155.708C1459.21 153.664 1457.79 150.83 1457.52 147.778C1457.52 147.501 1457.57 146.848 1457.4 146.638C1457.26 146.517 1457.09 146.443 1456.91 146.427C1455.06 146.005 1453.3 145.242 1451.73 144.177C1450.38 143.196 1449.32 141.869 1448.67 140.336C1448.06 138.918 1447.77 137.382 1447.84 135.84C1447.9 134.298 1448.3 132.79 1449.02 131.424C1449.95 129.575 1451.56 128.162 1453.52 127.486C1454.45 127.225 1455.44 127.243 1456.36 127.538C1456.6 125.607 1457.28 123.755 1458.34 122.122C1459.06 121.018 1460.01 120.081 1461.12 119.374C1462.23 118.668 1463.48 118.208 1464.79 118.026C1470.36 117.358 1474.68 122.377 1475.69 127.35Z" fill="#64BFEB"/>
<path d="M654.25 138.162C653.358 140.297 652.087 142.254 650.5 143.938C652.04 145.908 652.864 148.345 652.834 150.846C652.804 153.346 651.922 155.763 650.334 157.695C648.937 159.3 647.327 160.706 645.549 161.874C643.718 163.179 641.76 164.275 639.478 164.32C635.526 164.403 632.27 161.484 630.395 158.258C629.778 157.17 629.246 156.037 628.804 154.867C628.376 153.875 628.008 152.858 627.701 151.821C625.668 151.071 623.605 150.367 621.633 149.496C619.487 148.543 617.715 147.148 617.033 144.83C616.774 143.835 616.716 142.799 616.861 141.781C617.007 140.764 617.353 139.785 617.881 138.903C618.427 137.99 619.148 137.193 620.003 136.56C620.858 135.926 621.83 135.468 622.863 135.211C623.969 134.929 625.115 134.835 626.253 134.935C625.75 133.524 625.585 132.014 625.771 130.528C625.958 129.041 626.49 127.619 627.326 126.376C628.656 124.474 630.434 122.928 632.502 121.874C633.023 121.52 633.626 121.309 634.254 121.259C634.881 121.209 635.511 121.322 636.081 121.589C637.116 122.251 638.023 123.095 638.759 124.08C640.089 125.707 641.106 127.566 641.76 129.564C642.607 128.438 643.26 127.021 644.115 125.947C644.877 124.949 645.944 124.225 647.154 123.885C648.363 123.546 649.651 123.609 650.821 124.065C656.539 126.256 656.276 133.426 654.25 138.162ZM1063.48 69.6535C1062.55 71.7336 1061.25 73.6256 1059.64 75.2349C1061.17 77.1194 1061.99 79.478 1061.96 81.9028C1061.93 84.3276 1061.06 86.666 1059.49 88.5136C1058.08 90.0695 1056.47 91.4249 1054.7 92.5417C1052.87 93.7879 1050.95 94.8673 1048.65 94.9042C1044.69 94.9795 1041.44 92.174 1039.57 89.0541C1038.95 87.9983 1038.41 86.8941 1037.97 85.7525C1037.56 84.7927 1037.22 83.8182 1036.87 82.82C1034.84 82.0699 1032.78 81.4099 1030.8 80.5697C1028.66 79.6543 1026.9 78.318 1026.2 76.0677C1025.95 75.1107 1025.89 74.1126 1026.04 73.1339C1026.19 72.1552 1026.53 71.2163 1027.05 70.3741C1028.19 68.5764 1030 67.3016 1032.07 66.8259C1033.18 66.5452 1034.33 66.4539 1035.47 66.5557C1034.97 65.1953 1034.81 63.7348 1034.99 62.2982C1035.18 60.8616 1035.71 59.4911 1036.54 58.3032C1037.88 56.4425 1039.66 54.9404 1041.71 53.9296C1042.24 53.5867 1042.84 53.381 1043.47 53.3312C1044.09 53.2814 1044.72 53.3892 1045.29 53.6446C1046.32 54.281 1047.23 55.0961 1047.98 56.0529C1049.3 57.6147 1050.32 59.4081 1050.98 61.3419C1051.83 60.2611 1052.48 58.8584 1053.34 57.8617C1054.12 56.8914 1055.19 56.1927 1056.39 55.8653C1057.59 55.5379 1058.87 55.5984 1060.03 56.0381C1065.77 58.1614 1065.55 65.085 1063.48 69.6535Z" fill="#019AE9"/>
<path d="M1099.35 96.4191C1096.59 102.632 1089.05 103.855 1082.95 103.427C1093.6 123.96 1049.3 122.842 1054.38 107.854C1055.07 106.061 1055.6 104.211 1055.96 102.324C1055.55 104.574 1051.46 101.086 1049.37 98.1747C1043.88 90.8244 1050.3 82.0698 1058.92 83.2319C1051.61 67.9731 1076.83 65.7745 1083.76 75.4371C1089.64 73.0008 1099.1 78.1835 1095.31 84.3201C1099.02 86.7653 1101.27 92.1282 1099.35 96.4191Z" fill="#05946B"/>
<path d="M1195.04 92.834C1192.22 89.7214 1192.7 84.583 1195.21 81.1765C1197.72 77.7716 1201.73 75.8727 1205.71 74.6058C1207.62 73.9975 1209.73 73.5176 1211.65 74.185C1212.86 74.6669 1213.94 75.4396 1214.78 76.4353C1216.33 78.1541 1217.5 80.1743 1218.23 82.3689C1218.96 84.5636 1219.23 86.8853 1219.02 89.1884C1221.97 87.9432 1225.04 86.9959 1228.18 86.3607C1229.39 86.0232 1230.67 86.0232 1231.89 86.3607C1233.39 86.8923 1234.31 88.2655 1235.17 89.5649C1237.71 93.4187 1240.42 97.5457 1240.59 102.182C1240.81 108.288 1236.35 113.975 1230.6 116.091C1224.84 118.206 1218.28 117.088 1212.97 114.095C1213.64 115.529 1213.98 117.096 1213.96 118.68C1213.94 120.264 1213.56 121.823 1212.85 123.239C1211.74 125.445 1209.46 127.335 1206.97 126.99C1206.05 126.817 1205.18 126.437 1204.43 125.879C1202.61 124.596 1201.2 122.823 1200.35 120.768C1199.5 118.712 1199.26 116.458 1199.64 114.268C1195.89 115.722 1193.06 119.616 1189.08 119.518C1187.09 119.342 1185.24 118.436 1183.88 116.976C1178.79 112.04 1178.23 103.914 1179.94 97.0274C1180.73 93.4669 1182.31 90.1321 1184.58 87.2762C1185.73 85.8601 1187.15 84.6897 1188.76 83.835C1190.37 82.9803 1192.13 82.4588 1193.95 82.3017" fill="#F6AB0B"/>
<path d="M954.881 98.4157C956.474 97.0701 958.364 96.1217 960.395 95.6487C959.383 93.6813 958.844 91.5055 958.819 89.2935C958.639 86.4585 958.668 83.4729 959.876 80.8181C961.22 77.9137 963.943 76.1123 966.801 74.9207C969.566 73.696 972.597 73.1979 975.608 73.4736C975.813 73.4854 976.017 73.5179 976.216 73.5696C977.717 72.4716 979.494 71.8111 981.348 71.6615C983.202 71.5119 985.061 71.879 986.719 72.7221C988.673 73.6755 990.231 75.2843 991.122 77.2684C992.023 79.4744 990.912 81.6951 989.712 83.5394C988.5 85.398 986.977 87.0347 985.211 88.3781C986.744 91.0332 987.215 94.1704 986.529 97.1586C985.843 100.147 984.05 102.764 981.512 104.484C981.286 104.635 980.665 104.883 980.575 105.137C980.53 105.314 980.551 105.5 980.634 105.663C981.156 107.485 981.343 109.387 981.182 111.274C980.972 112.928 980.322 114.496 979.299 115.813C978.347 117.028 977.135 118.017 975.753 118.706C974.371 119.395 972.853 119.767 971.309 119.796C969.242 119.879 967.226 119.143 965.698 117.748C965.007 117.057 964.546 116.169 964.378 115.206C962.569 115.915 960.622 116.205 958.685 116.053C957.371 115.951 956.094 115.571 954.938 114.938C953.782 114.306 952.773 113.435 951.978 112.384C948.715 107.937 951.017 101.708 954.881 98.4157Z" fill="#F9663F"/>
<path d="M961.143 95.3855C958.727 89.9916 952.186 88.9418 946.89 89.339C956.08 71.4844 917.633 72.5564 922.088 85.5885C922.689 87.1447 923.151 88.7511 923.469 90.3888C923.101 88.4604 919.599 91.4697 917.753 93.9975C913.012 100.39 918.6 108.019 926.079 106.946C919.779 120.193 941.676 122.061 947.662 113.652C952.749 115.753 960.97 111.236 957.663 105.925C960.902 103.75 962.794 99.0607 961.143 95.3855Z" fill="#4662C7"/>
<path d="M980.904 110.291C985.277 119.421 996.538 120.923 1005.6 120.007C990.656 151.027 1056.5 147.442 1048.29 125.355C1045.92 118.971 1045.74 117.2 1045.74 117.2C1046.45 120.487 1052.34 115.167 1055.38 110.742C1063.21 99.5788 1053.29 86.7357 1040.52 88.9328C1050.69 65.9472 1013.12 63.7427 1003.23 78.4315C994.37 75.0398 980.529 83.1713 986.441 92.137C980.926 95.9258 977.896 103.997 980.904 110.291ZM854.872 148.108C860.424 159.699 874.737 161.612 886.23 160.441C867.242 199.857 950.903 195.303 940.468 167.194C937.468 159.083 937.19 156.84 937.19 156.84C938.038 161.011 945.555 154.297 949.41 148.633C959.38 134.448 946.763 118.169 930.543 120.921C943.522 91.7161 895.719 88.9107 883.154 107.554C871.901 103.315 854.34 113.555 861.826 124.958C854.903 129.848 851.039 140.11 854.872 148.108ZM726.313 120.697C721.929 121.147 717.663 122.393 713.726 124.373C712.376 122.439 710.71 120.747 708.797 119.368C705.921 117.347 702.591 116.068 699.102 115.644C695.613 115.22 692.073 115.664 688.797 116.937C685.109 118.562 681.663 120.687 678.557 123.254C675.165 125.798 672.128 128.677 670.755 132.797C668.391 139.901 671.819 147.418 676.606 152.617C678.229 154.344 679.985 155.942 681.857 157.395C683.412 158.716 685.04 159.949 686.734 161.087C686.936 165.183 687.071 169.293 687.536 173.352C688.047 177.763 689.577 181.732 693.373 184.274C695.016 185.296 696.845 185.983 698.754 186.295C700.664 186.607 702.616 186.537 704.499 186.091C706.462 185.61 708.31 184.744 709.935 183.542C711.56 182.34 712.93 180.827 713.965 179.09C715.106 177.242 715.923 175.213 716.381 173.09C718.649 174.784 721.283 175.923 724.071 176.414C726.86 176.905 729.725 176.735 732.435 175.917C736.642 174.63 740.459 172.309 743.537 169.166C745.225 167.479 746.538 165.414 746.073 162.872C745.461 160.628 744.444 158.515 743.072 156.638C740.903 153.286 738.136 150.362 734.91 148.01C737.454 147.065 740.394 146.773 742.773 145.76C747.326 143.855 750.275 139.759 749.922 134.74C749.036 123.254 735.998 119.691 726.313 120.697Z" fill="#DDDEF6"/>
<path d="M827.588 122.715C831.489 131.485 842.135 133.217 850.746 132.608C835.743 161.605 898.264 160.022 891.085 138.851C889.006 132.73 888.834 131.057 888.834 131.057C889.412 134.193 895.142 129.308 898.159 125.198C905.9 114.823 896.846 102.399 884.656 104.102C894.971 82.5884 859.359 79.4581 849.577 93.0897C841.271 89.6464 827.926 96.9539 833.283 105.626C827.994 109.091 824.895 116.669 827.588 122.715ZM1118.83 99.1362C1123.28 94.2385 1122.51 86.1366 1118.59 80.8091C1114.66 75.4832 1108.33 72.4666 1102.03 70.4732C1099.03 69.512 1095.71 68.7752 1092.7 69.8043C1090.8 70.5691 1089.11 71.79 1087.78 73.3599C1085.34 76.0694 1083.48 79.2558 1082.33 82.7184C1081.18 86.1811 1080.75 89.845 1081.08 93.4795C1076.44 91.5214 1071.62 90.0315 1066.68 89.0321C1064.76 88.6408 1062.7 88.3263 1060.85 89.0321C1058.56 89.8797 1057.03 92.0325 1055.68 94.0657C1051.64 100.134 1047.43 106.609 1047.21 113.9C1046.85 123.495 1053.91 132.452 1062.92 135.768C1071.92 139.085 1082.27 137.344 1090.63 132.632C1089.57 134.89 1089.03 137.359 1089.06 139.854C1089.09 142.349 1089.68 144.804 1090.8 147.036C1092.57 150.516 1096.19 153.494 1100.06 152.917C1101.51 152.649 1102.87 152.05 1104.05 151.169C1106.91 149.147 1109.13 146.356 1110.46 143.12C1111.79 139.885 1112.17 136.339 1111.56 132.895C1117.39 135.198 1121.9 141.304 1128.16 141.147C1131.27 141.05 1134.09 139.324 1136.35 137.164C1144.36 129.391 1145.21 116.631 1142.53 105.806C1141.15 100.254 1138.94 94.7863 1135.24 90.4349C1131.54 86.0834 1126.24 82.8881 1120.51 82.6032M1205.13 124.103C1203.13 122.425 1200.77 121.235 1198.23 120.629C1199.62 118.303 1200.04 115.34 1200.21 112.7C1200.42 109.159 1200.4 105.431 1198.88 102.153C1197.18 98.5294 1193.8 96.2865 1190.23 94.7922C1186.77 93.2546 1182.98 92.6323 1179.21 92.9849C1178.96 92.9996 1178.7 93.038 1178.46 93.0971C1176.59 91.7344 1174.37 90.9147 1172.07 90.7282C1169.76 90.5417 1167.44 90.9956 1165.38 92.0399C1162.94 93.2356 1160.99 95.2474 1159.88 97.7261C1158.77 100.473 1160.15 103.248 1161.64 105.558C1163.15 107.879 1165.04 109.922 1167.24 111.597C1165.34 114.905 1164.75 118.813 1165.61 122.533C1166.47 126.254 1168.71 129.511 1171.87 131.649C1172.15 131.845 1172.9 132.152 1173.04 132.498C1173.09 132.719 1173.06 132.95 1172.97 133.158C1172.31 135.432 1172.07 137.81 1172.28 140.171C1172.54 142.237 1173.35 144.194 1174.63 145.835C1175.82 147.356 1177.33 148.594 1179.06 149.457C1180.78 150.32 1182.68 150.787 1184.61 150.825C1187.19 150.921 1189.71 150.008 1191.62 148.281C1192.49 147.428 1193.08 146.337 1193.32 145.146C1195.58 146.044 1198.01 146.422 1200.44 146.247C1202.08 146.121 1203.68 145.647 1205.12 144.855C1206.57 144.064 1207.83 142.973 1208.82 141.657C1212.82 136.007 1209.95 128.214 1205.13 124.103Z" fill="#DDDEF6"/>
<path d="M774.386 190.306C775.031 190.179 775.886 188.896 776.344 188.446C777.226 187.593 778.16 186.796 779.142 186.06H760.98C765.347 186.51 769.231 188.049 773.186 189.931C773.598 190.126 773.958 190.396 774.386 190.306ZM816.951 186.067H813.456C814.063 186.525 814.655 186.99 815.226 187.494C815.773 187.021 816.351 186.532 816.951 186.067Z" fill="#FFFFB6"/>
<path d="M1315.83 86.7285C1314.24 83.1729 1309.9 82.4907 1306.4 82.7373C1312.48 70.9219 1287.05 71.6336 1289.99 80.1947C1290.39 81.2209 1290.7 82.2825 1290.9 83.3678C1290.66 82.0921 1288.36 84.1179 1287.15 85.754C1284.02 89.9917 1287.72 95.0268 1292.66 94.3283C1288.5 103.083 1302.97 104.32 1306.91 98.7536C1310.3 100.149 1315.71 97.1634 1313.52 93.6742C1315.67 92.2715 1316.92 89.1884 1315.83 86.7285Z" fill="#F6AB0B"/>
<path d="M501.867 65.8351C502.019 65.8351 502.164 65.7751 502.27 65.6682C502.377 65.5613 502.437 65.4163 502.437 65.2652C502.437 65.114 502.377 64.969 502.27 64.8622C502.164 64.7553 502.019 64.6952 501.867 64.6952C501.716 64.6952 501.571 64.7553 501.464 64.8622C501.357 64.969 501.297 65.114 501.297 65.2652C501.297 65.4163 501.357 65.5613 501.464 65.6682C501.571 65.7751 501.716 65.8351 501.867 65.8351ZM509.331 65.813C509.444 65.8135 509.555 65.7804 509.649 65.7178C509.743 65.6552 509.816 65.5659 509.859 65.4616C509.91 65.3311 509.912 65.1861 509.864 65.0543C509.816 64.9224 509.721 64.8129 509.597 64.7466C509.473 64.6804 509.33 64.662 509.193 64.695C509.057 64.728 508.937 64.8101 508.857 64.9256C508.799 65.011 508.764 65.111 508.759 65.2146C508.753 65.3182 508.776 65.4213 508.825 65.5128C508.874 65.6043 508.947 65.6805 509.036 65.7332C509.126 65.7859 509.228 65.8144 509.331 65.813ZM1511.94 187.567V161.409H1486.23C1485.08 159.636 1483.81 157.94 1482.44 156.331C1476.03 148.768 1466.81 143.239 1456.94 142.767L1456.73 145.017C1455.91 143.19 1454.9 141.453 1453.73 139.835C1446.97 130.591 1435.93 125.355 1425.02 121.905C1419.77 120.21 1414.07 118.941 1408.92 120.756C1405.53 121.934 1402.78 124.313 1400.4 126.923C1395.16 132.681 1391.48 139.681 1389.71 147.26C1375.52 111.665 1281.01 122.684 1291.9 161.423H1283.97C1282.29 159.044 1280.32 156.888 1278.1 155.009C1287.1 137.208 1273.07 106.488 1253.03 116.923C1246.28 104.657 1230 96.5772 1216.18 101.507C1208.02 104.44 1202.26 109.983 1198.3 116.915C1197.66 115.379 1196.98 113.858 1196.27 112.354C1193.91 107.389 1190.98 102.302 1186.1 99.7444C1182.96 98.0936 1179.35 97.6728 1175.77 97.6949C1169.45 97.7887 1163.21 99.1932 1157.45 101.82C1151.7 104.446 1146.55 108.238 1142.33 112.955C1139.35 104.726 1135.55 96.8168 1130.99 89.345C1129.21 86.4361 1127.18 83.4727 1124.15 81.9119C1120.4 79.9776 1115.84 80.6067 1111.65 81.2814C1100.7 83.0533 1089.22 85.0319 1080.1 91.1094C1056.94 82.6325 1027.15 92.0692 1022.93 119.076C1014.26 115.228 1005.92 118.401 999.885 124.583C999.885 123.299 999.78 122.017 999.637 120.741C998.911 115.231 996.71 110.019 993.269 105.655C990.08 101.607 986.031 98.3184 981.414 96.0284C976.798 93.7384 971.73 92.504 966.577 92.4147C959.916 92.4147 952.616 94.448 947.823 99.331C945.558 101.628 944.03 104.548 943.433 107.718C937.396 105.316 930.888 104.328 924.409 104.83C915.692 105.618 907.207 109.916 902.069 117.132C900.104 119.881 898.668 122.972 897.837 126.247C894.642 127.592 891.597 129.27 888.753 131.253C885.397 133.647 882.231 136.298 879.286 139.182C877.732 140.578 876.231 142.032 874.785 143.539C874.28 141.879 873.645 140.261 872.886 138.701C876.581 136.203 879.32 132.526 880.652 128.269C881.985 124.013 881.834 119.431 880.223 115.272C878.746 111.771 876.795 108.49 874.425 105.521C872.039 102.317 869.399 99.3693 865.527 98.0183C858.857 95.6853 851.717 98.8127 846.773 103.269C845.123 104.788 843.588 106.428 842.181 108.176C840.919 109.633 839.735 111.156 838.633 112.738C834.77 112.864 830.876 112.932 827.034 113.321C822.879 113.735 819.098 115.123 816.638 118.678C814.74 121.654 814.048 125.241 814.702 128.709C811.393 128.483 807.95 129.556 804.837 130.742C799.993 132.651 795.516 135.384 791.604 138.82C786.201 134.044 779.192 131.488 771.982 131.666C764.773 131.844 757.897 134.742 752.737 139.78C752.272 140.238 751.417 141.476 750.772 141.634C750.341 141.643 749.92 141.512 749.571 141.259C745.475 139.309 741.462 137.711 736.862 137.335C732.92 137.031 728.969 137.802 725.429 139.564C724.509 140.022 723.62 140.542 722.767 141.116C710.336 130.074 694.162 124.269 685.903 133.742C677.831 126.638 666.203 123.096 655.895 126.765C647.733 129.698 641.973 135.242 638.011 142.173C637.37 140.637 636.692 139.116 635.978 137.612C633.623 132.647 630.689 127.561 625.806 125.002C622.669 123.352 619.053 122.932 615.483 122.962C609.156 123.05 602.917 124.451 597.16 127.076C591.403 129.702 586.254 133.494 582.039 138.213C579.055 129.986 575.258 122.078 570.705 114.605C568.918 111.694 566.886 108.731 563.855 107.17C560.104 105.236 555.551 105.865 551.365 106.541C540.412 108.311 528.934 110.328 519.812 116.368C496.646 107.892 466.855 117.336 462.647 144.334C453.968 140.486 445.625 143.668 439.593 149.841C439.579 148.557 439.496 147.275 439.347 146.001C438.618 140.492 436.421 135.28 432.984 130.913C429.794 126.862 425.743 123.571 421.124 121.28C416.504 118.989 411.433 117.754 406.278 117.665C399.617 117.665 392.317 119.706 387.524 124.583C385.288 126.904 383.79 129.835 383.218 133.007C377.182 130.606 370.677 129.618 364.2 130.119C355.484 130.906 346.998 135.198 341.86 142.421C339.893 145.167 338.456 148.256 337.622 151.529C334.424 152.873 331.379 154.553 328.537 156.54C325.182 158.934 322.017 161.583 319.069 164.462C317.515 165.862 316.014 167.318 314.568 168.828C314.063 167.168 313.428 165.55 312.67 163.99C316.371 161.485 319.111 157.797 320.44 153.531C321.769 149.264 321.609 144.673 319.984 140.509C318.507 137.008 316.556 133.727 314.186 130.757C311.8 127.552 309.16 124.605 305.288 123.256C298.619 120.923 291.478 124.05 286.533 128.506C284.88 130.025 283.344 131.664 281.935 133.411C280.675 134.873 279.49 136.398 278.387 137.981C274.523 138.1 270.63 138.176 266.796 138.566C262.633 138.98 258.852 140.368 256.392 143.922C254.493 146.897 253.803 150.485 254.463 153.952C251.147 153.728 247.711 154.799 244.598 155.985C239.753 157.897 235.273 160.63 231.357 164.065C225.954 159.289 218.944 156.733 211.735 156.911C204.526 157.089 197.651 159.988 192.491 165.025C192.025 165.482 191.171 166.712 190.525 166.878C190.097 166.888 189.678 166.756 189.332 166.503C185.229 164.552 181.223 162.955 176.579 162.58C172.661 162.28 168.734 163.045 165.214 164.793C164.296 165.251 163.41 165.766 162.558 166.337C148.755 154.095 130.352 148.273 123.271 162.647C118.724 171.972 116.991 174.013 116.991 174.013C119.879 169.773 107.861 168.926 99.8186 170.156C89.49 171.656 83.4214 178.633 81.9581 186.661H63.5261C53.8635 181.769 43.6915 177.598 33.0086 178.333C25.5856 178.95 18.5359 181.851 12.8284 186.637H0V223.929H1.87523V224.326H1512V187.567H1511.94Z" fill="#F9F7EE"/>
</g>
</g>
</g>
</g>
<defs>
<clipPath id="clip0_557_1543">
<rect width="1512" height="189" fill="white"/>
</clipPath>
<clipPath id="clip1_557_1543">
<rect width="1512" height="189" fill="white"/>
</clipPath>
<clipPath id="clip2_557_1543">
<rect width="1512" height="189" fill="white"/>
</clipPath>
</defs>
</svg>
