<svg width="156" height="318" viewBox="0 0 156 318" fill="none" xmlns="http://www.w3.org/2000/svg">
<path d="M87.9029 58.7099C98.4302 82.9614 81.2275 116.249 63.0348 140.288C152.42 139.724 26.8891 318.108 -2.84379 266.016C-11.4757 250.97 -14.6795 248.054 -14.6795 248.054C-9.29387 254.348 -30.5587 263.505 -44.9557 266.279C-81.5544 273.303 -89.5615 228.752 -62.2575 196.142C-126.94 194.139 -63.8209 86.5966 -16.44 78.4721C-7.24674 49.3541 33.9808 21.6098 41.3924 49.751C58.9002 39.8019 80.6226 41.9935 87.9029 58.7099Z" fill="#F8CCD9"/>
<path d="M59.3553 102.57C66.0143 117.91 55.1328 138.966 43.6252 154.172C100.165 153.815 20.7614 266.651 1.95404 233.7C-3.50599 224.183 -5.53257 222.339 -5.53257 222.339C-2.12591 226.32 -15.5768 232.112 -24.6836 233.867C-47.8339 238.31 -52.8987 210.129 -35.6277 189.502C-76.5422 188.235 -36.6166 120.21 -6.64618 115.071C-0.831012 96.6524 25.2472 79.1029 29.9353 96.9035C41.0098 90.6102 54.7502 91.9965 59.3553 102.57Z" fill="#FAE6EC"/>
</svg>
