<svg width="276" height="75" viewBox="0 0 276 75" fill="none" xmlns="http://www.w3.org/2000/svg">
<g clip-path="url(#clip0_489_1459)">
<path d="M8.29724 18.5118V8.85272H9.38838C13.0994 8.85272 14.6679 10.3073 14.6679 13.6027C14.6679 16.8982 13.5029 18.5118 9.66116 18.5118H8.29724ZM8.29724 35.9948V24.7107H10.0362C13.5654 24.7107 15.9409 26.2618 15.9409 30.2107C15.9409 33.8584 15.1623 35.9948 10.3204 35.9948H8.29724ZM24.0903 30.7277C24.0903 25.7504 21.8171 23.0232 17.3161 21.4664C21.4818 20.1879 22.732 16.3073 22.732 13.0118C22.732 7.21635 19.3222 2.41522 12.2469 2.41522H0.244446V42.4266H12.9289C21.5045 42.4266 24.0846 36.3982 24.0846 30.7277H24.0903ZM47.1064 0.0458984L45.8845 3.05726C44.0001 2.33712 41.9972 1.97673 39.9799 1.99476C31.9839 1.99476 26.0736 6.97204 26.0736 16.5289V28.3641C26.0736 33.58 27.8126 37.3925 30.6541 39.7675L28.8583 44.1141H32.5579L33.6093 41.6254C35.6439 42.4665 37.8297 42.8804 40.0311 42.8414C48.027 42.8414 53.9373 38.0914 53.9373 28.3016V16.4777C53.9373 11.0857 52.0222 7.16522 48.8965 4.71635L50.8117 0.0629439L47.1064 0.0458984ZM45.3106 13.3527C45.3589 13.8681 45.3759 14.3868 45.3617 14.9039V29.9777C45.3617 34.8414 43.4579 36.2277 39.9799 36.2277C38.6481 36.3422 37.3222 35.9484 36.2689 35.1254L45.3106 13.3527ZM34.6663 30.1141V14.8641C34.6663 10.1709 36.5758 8.61408 40.0481 8.61408C41.1649 8.56698 42.2721 8.83686 43.2419 9.39249L34.6663 30.1141ZM65.2294 18.5345V8.89817H67.6276C71.6057 8.89817 73.4243 10.2902 73.4243 13.3527C73.4243 16.4152 72.174 18.5118 67.6276 18.5118L65.2294 18.5345ZM74.7882 23.8016C78.4878 22.4152 81.2157 18.2504 81.2157 13.5743C81.2157 7.77885 77.8059 2.45499 70.0941 2.45499H57.1369V42.4664H65.2294V25.0516H66.9684L72.9867 42.4266H82.2216L74.7882 23.8016ZM92.0475 42.4209V16.6027L101.385 42.4266H111.387V2.41522H103.925V28.1766L94.4798 2.41522H84.5175V42.4266L92.0475 42.4209ZM134.619 35.7561H123.741V24.8754H133.755V18.2789H123.73V9.09135H134.039V2.41522H115.416V42.4266H134.533L134.619 35.7561ZM146.104 18.5345V8.87544H147.19C150.9 8.87544 152.458 10.33 152.458 13.6254C152.458 16.9209 151.321 18.5516 147.462 18.5516L146.104 18.5345ZM146.104 36.0232V24.7107H147.843C151.372 24.7107 153.748 26.2618 153.748 30.2107C153.748 33.8584 152.969 35.9948 148.127 35.9948L146.104 36.0232ZM161.857 30.7504C161.857 25.7732 159.584 23.0516 155.083 21.4891C159.254 20.2107 160.51 16.33 160.51 13.0345C160.51 7.23908 157.101 2.43794 150.031 2.43794H138.034V42.4493H150.719C159.289 42.4493 161.835 36.4209 161.835 30.7504H161.857ZM164.739 42.4493H173.019V2.41522H164.739V42.4493ZM198.791 9.09135V2.41522H177.65V42.4266H185.936V24.9323H196.165V18.2789H185.936V9.09135H198.791ZM223.12 9.09135V2.41522H201.974V42.4266H210.271V24.9323H220.5V18.2789H210.271V9.09135H223.12ZM245.42 35.7959H234.56V24.9039H244.607V18.2789H234.588V9.09135H244.903V2.41522H226.28V42.4266H245.392L245.42 35.7959ZM255.786 42.4607V16.6027L265.168 42.4266H275.193V2.41522H267.726V28.1766L258.275 2.41522H248.347V42.4266L255.786 42.4607ZM4.36461 70.3073C3.79374 70.3092 3.22362 70.2655 2.65972 70.1766C2.19655 70.105 1.73907 70.0004 1.29012 69.8641C1.0041 69.78 0.727865 69.6658 0.466082 69.5232L0.903673 67.6311C1.1793 67.7857 1.46856 67.9147 1.76749 68.0175C2.13859 68.1493 2.51821 68.2556 2.90408 68.3357C3.3217 68.4167 3.74598 68.4586 4.17139 68.4607C4.79232 68.4994 5.41187 68.3657 5.96153 68.0743C6.16654 67.9364 6.33099 67.7462 6.43789 67.5235C6.54479 67.3007 6.59026 67.0535 6.56961 66.8073C6.58116 66.4509 6.47314 66.1009 6.26273 65.813C5.99551 65.5003 5.674 65.2385 5.31367 65.0402C4.88745 64.7959 4.35325 64.5175 3.70539 64.2107C3.14532 63.9403 2.61247 63.6168 2.11415 63.2448C1.63379 62.8832 1.22193 62.4387 0.89799 61.9323C0.600563 61.4169 0.435079 60.836 0.416242 60.2413C0.397404 59.6465 0.525798 59.0564 0.790013 58.5232C1.03665 58.0829 1.38799 57.7102 1.81295 57.4379C2.26136 57.1506 2.75518 56.9412 3.27348 56.8186C4.53081 56.5486 5.83329 56.57 7.08108 56.8811C7.4948 56.9879 7.89375 57.1465 8.26883 57.3527L7.83692 59.1823C7.4819 58.9588 7.09999 58.7813 6.70032 58.6539C6.14953 58.4789 5.57311 58.3982 4.99542 58.4152C4.59492 58.41 4.19608 58.4676 3.81336 58.5857C3.49231 58.6726 3.2001 58.8432 2.9666 59.08C2.85932 59.1913 2.77579 59.3232 2.72108 59.4678C2.66637 59.6123 2.64163 59.7665 2.64835 59.9209C2.63698 60.2647 2.72564 60.6044 2.90408 60.8982C3.11663 61.2107 3.3985 61.4692 3.72812 61.6539C4.1032 61.8868 4.59193 62.1595 5.20001 62.4777C5.67738 62.7107 6.13202 62.9607 6.5753 63.222C7.00016 63.4749 7.3998 63.7679 7.76872 64.097C8.11295 64.4061 8.39462 64.7784 8.59844 65.1936C8.80928 65.6328 8.91441 66.1158 8.90532 66.6027C8.93047 67.3285 8.73209 68.0445 8.33702 68.6539C7.94326 69.209 7.39624 69.6375 6.76283 69.8868C5.9987 70.1827 5.18385 70.3256 4.36461 70.3073ZM15.1111 70.3073C14.4761 70.3477 13.8401 70.2452 13.2499 70.0072C12.6598 69.7693 12.1306 69.4019 11.7014 68.9323C10.8512 67.852 10.4266 66.4976 10.5079 65.1254C10.4917 64.2237 10.6741 63.3295 11.0421 62.5061C11.3808 61.7614 11.9249 61.1287 12.6106 60.6823C13.3735 60.2132 14.2556 59.9745 15.1509 59.9948C15.6421 59.9806 16.1321 60.0498 16.6001 60.1993C17.0442 60.3498 17.4538 60.5874 17.8049 60.8982C18.1721 61.235 18.4611 61.648 18.6516 62.1084C18.8739 62.6629 18.9858 63.2556 18.9813 63.8527V64.8641C18.9801 65.1296 18.9515 65.3942 18.896 65.6539H11.8036L11.9855 64.2845H16.8388C16.8703 63.8355 16.8397 63.3843 16.7478 62.9436C16.6812 62.568 16.496 62.2235 16.2193 61.9607C15.8891 61.6912 15.4679 61.559 15.0429 61.5914C14.6122 61.5829 14.1901 61.7123 13.8382 61.9607C13.436 62.2852 13.1507 62.7321 13.0255 63.2334C12.8152 64.0374 12.7357 64.8698 12.7868 65.6993C12.7882 66.2944 12.9366 66.8799 13.2187 67.4039C13.4579 67.8057 13.8179 68.1219 14.2473 68.3073C14.7048 68.4948 15.1964 68.5879 15.6908 68.58C15.9841 68.5772 16.2762 68.5527 16.566 68.5061C16.8916 68.4612 17.2139 68.3965 17.5321 68.313C17.7776 68.2556 18.0152 68.1658 18.2368 68.0459L18.6573 69.347C18.3816 69.555 18.0747 69.718 17.7481 69.83C17.3349 69.9749 16.9109 70.0868 16.4807 70.1652C16.0295 70.2544 15.5715 70.3022 15.1111 70.3073ZM33.2228 60.1198L26.6135 67.0459L26.7726 66.5345L26.8124 68.2391V70.1368H24.5392V55.5402H26.8124V62.7902L26.7101 65.2675L26.2384 64.9095L30.5234 60.1198H33.2228ZM27.8013 65.3414L29.3527 63.8186L33.615 70.1425H31.0121L27.8013 65.3414ZM38.724 70.3073C37.9898 70.3294 37.2604 70.1817 36.5928 69.8754C36.0293 69.6042 35.5414 69.1983 35.1721 68.6936C34.8042 68.1808 34.538 67.6021 34.3878 66.9891C34.2225 66.3201 34.1442 65.6326 34.1548 64.9436C34.1398 64.0002 34.3626 63.0681 34.8027 62.2334C35.1953 61.5232 35.7882 60.9443 36.5076 60.5686C37.2538 60.1838 38.0833 59.9887 38.9229 60.0004C39.8795 59.9505 40.8265 60.2117 41.6223 60.7448C42.2932 61.2383 42.7986 61.9238 43.0715 62.7107C43.3727 63.5578 43.5176 64.4533 43.4977 65.3527C43.512 66.2997 43.2893 67.2353 42.8498 68.0743C42.4597 68.7878 41.8663 69.3693 41.1449 69.7448C40.3974 70.1311 39.5652 70.3244 38.724 70.3073ZM38.7865 68.688C39.1337 68.7147 39.4815 68.6457 39.7922 68.4884C40.1029 68.3311 40.3644 68.0916 40.5482 67.7959C40.9733 67.0198 41.1703 66.1394 41.1165 65.2561C41.1234 64.6418 41.043 64.0297 40.8778 63.438C40.7532 62.9436 40.5003 62.4908 40.1447 62.1254C39.9719 61.9598 39.7678 61.8302 39.5444 61.7444C39.3209 61.6585 39.0826 61.6181 38.8433 61.6254C38.5004 61.598 38.1563 61.6625 37.8466 61.8123C37.537 61.9621 37.2729 62.1918 37.0816 62.4777C36.6543 63.2386 36.4569 64.107 36.5133 64.9777C36.5051 65.5992 36.5835 66.2188 36.7463 66.8186C36.8759 67.3323 37.1384 67.8022 37.5078 68.1823C37.6765 68.3475 37.8765 68.4773 38.0961 68.5641C38.3157 68.651 38.5504 68.6931 38.7865 68.688ZM45.6061 70.1652V60.1368H47.5837L47.7258 61.5061L47.9077 62.1766V70.1652H45.6061ZM47.7827 63.0686L47.6519 61.5061C47.7865 61.2366 47.9809 61.0015 48.2202 60.8186C48.5301 60.5692 48.8747 60.3663 49.2432 60.2164C49.631 60.0573 50.0458 59.9743 50.465 59.972C50.6543 59.9624 50.844 59.9624 51.0333 59.972C51.1583 59.9789 51.2811 60.0141 51.3914 60.0743V62.2618C51.2636 62.1931 51.1282 62.1397 50.9879 62.1027C50.7071 62.0347 50.4183 62.006 50.1297 62.0175C49.7756 62.0111 49.4233 62.0688 49.0897 62.188C48.8099 62.283 48.5456 62.419 48.3055 62.5914C48.1157 62.7323 47.9401 62.8925 47.7827 63.0686ZM56.131 70.3073C55.6713 70.3186 55.2144 70.2334 54.7898 70.0573C54.4116 69.882 54.1062 69.5807 53.926 69.205C53.7019 68.6797 53.599 68.1107 53.6248 67.5402V61.7675H52.3518V60.5345C52.8007 60.4095 53.1417 60.2959 53.3918 60.1993C53.5219 60.1512 53.64 60.0755 53.7381 59.9774C53.8362 59.8794 53.9119 59.7612 53.9601 59.6311C54.0112 59.4948 54.0624 59.3357 54.1249 59.1539C54.1874 58.972 54.2613 58.7675 54.3351 58.5459L54.5738 57.8357H55.9548V60.1084H58.7338V61.7561H55.9548V66.4095C55.9411 66.8811 55.9718 67.3527 56.0457 67.8186C56.0531 67.9323 56.0866 68.0428 56.1438 68.1414C56.201 68.24 56.2802 68.324 56.3753 68.3868C56.5987 68.4772 56.8391 68.5181 57.08 68.5061C57.271 68.5044 57.4608 68.4857 57.6483 68.4493C57.8553 68.4106 58.0602 68.3613 58.2621 68.3016C58.4195 68.2544 58.5718 68.1919 58.7167 68.1141L59.0691 69.4209C58.844 69.5925 58.5974 69.734 58.336 69.8414C58.0018 69.9817 57.6551 70.0919 57.3017 70.1709C56.9178 70.2602 56.5251 70.306 56.131 70.3073ZM61.6264 70.1652V61.7789H60.1886V60.472L61.6264 60.1198V59.2107C61.6071 58.5747 61.7213 57.9418 61.9617 57.3527C62.1618 56.894 62.4676 56.4891 62.8539 56.1709C63.2083 55.8807 63.6183 55.666 64.0587 55.5402C64.4729 55.4226 64.9011 55.3615 65.3317 55.3584C65.6362 55.3559 65.9403 55.3787 66.241 55.4266C66.4331 55.451 66.6229 55.4891 66.8093 55.5402V57.2448C66.6242 57.184 66.434 57.1403 66.241 57.1141C65.949 57.0755 65.6546 57.0584 65.3601 57.0629C65.1685 57.0582 64.9783 57.0972 64.804 57.177C64.6298 57.2567 64.4759 57.3751 64.3542 57.5232C64.0625 57.9282 63.9236 58.4233 63.9621 58.9209V60.1027H66.3603V61.7618H63.9621V70.1482L61.6264 70.1652ZM69.4178 58.4607C69.0559 58.468 68.7046 58.3381 68.4346 58.097C68.2976 57.9786 68.1891 57.8307 68.1172 57.6644C68.0454 57.4981 68.0121 57.3178 68.0198 57.1368C68.0181 56.8669 68.0993 56.6027 68.2528 56.3811C68.3977 56.1595 68.592 55.9749 68.8211 55.8414C69.0529 55.7078 69.3155 55.6374 69.5826 55.6368C69.7639 55.6185 69.947 55.6396 70.1193 55.6988C70.2916 55.758 70.449 55.8537 70.5808 55.9795C70.7126 56.1053 70.8155 56.2582 70.8826 56.4275C70.9496 56.5969 70.9792 56.7788 70.9692 56.9607C70.9745 57.162 70.9354 57.3619 70.8549 57.5465C70.7744 57.7311 70.6544 57.8957 70.5032 58.0289C70.2106 58.3072 69.8217 58.4619 69.4178 58.4607ZM68.3892 70.1652V60.1368H70.6624V70.1652H68.3892ZM73.7994 70.1652V55.5004H76.118V70.1652H73.7994ZM79.1698 70.1652V60.1368H81.2668V61.1993C81.5588 60.9898 81.8645 60.8 82.1818 60.6311C82.5617 60.4363 82.9595 60.2784 83.3695 60.1595C83.7904 60.0325 84.2259 59.9599 84.6653 59.9436C85.2627 59.8974 85.8615 60.0132 86.3986 60.2789C86.8612 60.5586 87.2065 60.9967 87.3704 61.5118C87.6005 62.2658 87.7039 63.0533 87.6772 63.8414V70.1368H85.404V64.0573C85.4145 63.6195 85.3686 63.1822 85.2676 62.7561C85.2369 62.6092 85.1774 62.4698 85.0925 62.346C85.0077 62.2221 84.8991 62.1163 84.7732 62.0345C84.4489 61.8698 84.0836 61.8027 83.7219 61.8414C83.3567 61.8617 82.9966 61.9364 82.6535 62.063C82.242 62.2056 81.8579 62.4169 81.5169 62.6879V70.1368L79.1698 70.1652ZM87.5636 62.7334L87.0976 61.2902C87.3763 61.0702 87.6773 60.8798 87.9955 60.722C88.3999 60.5084 88.8244 60.3353 89.2628 60.205C89.7297 60.0659 90.2135 59.9913 90.7006 59.9834C91.3021 59.9499 91.9023 60.0691 92.4453 60.33C92.9228 60.5959 93.2851 61.029 93.4625 61.5459C93.7131 62.2942 93.8262 63.0811 93.7978 63.8698V70.1766H91.4962V64.097C91.5059 63.6577 91.4621 63.2189 91.3655 62.7902C91.3051 62.4973 91.1315 62.24 90.8824 62.0743C90.5601 61.9096 90.1967 61.8425 89.8368 61.8811C89.4458 61.8987 89.061 61.9852 88.7002 62.1368C88.2971 62.2858 87.9151 62.4863 87.5636 62.7334ZM99.9582 70.1652V60.1368H102.032V61.1993C102.325 60.9902 102.63 60.8004 102.947 60.6311C103.329 60.4356 103.729 60.2777 104.141 60.1595C104.56 60.0322 104.993 59.9596 105.431 59.9436C106.019 59.9026 106.607 60.0182 107.136 60.2789C107.598 60.5589 107.943 60.9969 108.108 61.5118C108.338 62.2664 108.441 63.0533 108.414 63.8414V70.1368H106.141V64.0573C106.152 63.6195 106.106 63.1822 106.005 62.7561C105.974 62.6092 105.915 62.4698 105.83 62.346C105.745 62.2221 105.636 62.1163 105.51 62.0345C105.188 61.8698 104.825 61.8027 104.465 61.8414C104.098 61.8611 103.736 61.9358 103.391 62.063C102.969 62.2026 102.575 62.4141 102.226 62.6879V70.1368L99.9582 70.1652ZM108.352 62.7334L107.886 61.2902C108.166 61.0693 108.469 60.8788 108.79 60.722C109.193 60.5073 109.618 60.3341 110.057 60.205C110.524 60.0653 111.007 59.9907 111.495 59.9834C112.094 59.9499 112.693 60.0692 113.234 60.33C113.7 60.5976 114.054 61.0257 114.228 61.5345C114.478 62.2828 114.592 63.0698 114.563 63.8584V70.1652H112.256V64.0857C112.265 63.6467 112.223 63.2083 112.131 62.7789C112.07 62.4861 111.897 62.2289 111.648 62.063C111.324 61.8988 110.958 61.8317 110.597 61.8698C110.206 61.8876 109.821 61.9741 109.46 62.1254C109.066 62.2801 108.694 62.4844 108.352 62.7334ZM121.468 70.3073C120.833 70.3466 120.198 70.2435 119.608 70.0056C119.018 69.7677 118.488 69.401 118.059 68.9323C117.208 67.852 116.784 66.4976 116.865 65.1254C116.852 64.224 117.034 63.3305 117.399 62.5061C117.739 61.76 118.285 61.127 118.973 60.6823C119.735 60.2141 120.615 59.9754 121.508 59.9948C121.999 59.9807 122.489 60.0498 122.957 60.1993C123.404 60.3482 123.815 60.5857 124.168 60.8982C124.533 61.2355 124.82 61.6485 125.009 62.1084C125.233 62.6624 125.347 63.255 125.344 63.8527V64.8641C125.342 65.1292 125.315 65.3936 125.265 65.6539H118.161L118.337 64.2845H123.19C123.221 63.8358 123.192 63.3849 123.105 62.9436C123.036 62.5674 122.849 62.223 122.571 61.9607C122.241 61.6912 121.819 61.559 121.394 61.5914C120.964 61.5835 120.542 61.7128 120.19 61.9607C119.789 62.2858 119.506 62.7326 119.383 63.2334C119.167 64.0365 119.087 64.8698 119.144 65.6993C119.143 66.2947 119.291 66.8809 119.576 67.4039C119.813 67.8072 120.174 68.1238 120.604 68.3073C121.062 68.4958 121.553 68.5886 122.048 68.58C122.341 68.5772 122.633 68.5522 122.923 68.5061C123.247 68.4611 123.568 68.3966 123.884 68.313C124.13 68.2567 124.367 68.1669 124.588 68.0459L125.014 69.347C124.737 69.555 124.428 69.718 124.1 69.83C123.686 69.9754 123.263 70.0874 122.832 70.1652C122.383 70.2544 121.926 70.3022 121.468 70.3073ZM130.982 70.3073C130.272 70.3162 129.574 70.1227 128.97 69.7494C128.366 69.376 127.881 68.8383 127.572 68.1993C127.169 67.3582 126.974 66.4326 127.004 65.5005C126.98 64.5011 127.199 63.5109 127.64 62.6141C128.032 61.8144 128.646 61.144 129.407 60.6823C130.213 60.2101 131.134 59.972 132.067 59.9948C132.592 59.9806 133.116 60.0516 133.619 60.205C133.9 60.282 134.167 60.4048 134.408 60.5686L133.698 62.0289C133.498 61.8721 133.261 61.7685 133.01 61.7277C132.671 61.667 132.327 61.6384 131.982 61.6425C131.515 61.6397 131.059 61.7806 130.675 62.0459C130.256 62.3578 129.933 62.781 129.743 63.2675C129.491 63.9075 129.369 64.5913 129.385 65.2789C129.298 66.1409 129.498 67.0075 129.953 67.7448C130.154 68.0008 130.414 68.2043 130.711 68.3379C131.008 68.4714 131.333 68.5311 131.658 68.5118C132.07 68.5181 132.479 68.4367 132.857 68.2732C133.156 68.1521 133.439 67.9937 133.698 67.8016L134.039 68.9379C133.897 69.0857 133.704 69.2675 133.471 69.5061C133.181 69.7452 132.855 69.9369 132.505 70.0743C132.017 70.2504 131.5 70.3295 130.982 70.3073ZM133.823 70.1652V68.8584L133.687 68.7732V61.7675L133.761 61.7164L133.687 59.5402V55.5004H135.96V70.1652H133.823ZM145.485 70.3073C144.794 70.3147 144.114 70.134 143.518 69.7845C142.891 69.4027 142.389 68.8457 142.075 68.1823C141.672 67.3412 141.477 66.4156 141.507 65.4834C141.484 64.4848 141.7 63.4952 142.137 62.597C142.531 61.7986 143.144 61.1287 143.905 60.6652C144.712 60.1936 145.635 59.9556 146.57 59.9777C147.095 59.9635 147.619 60.0345 148.122 60.188C148.403 60.2649 148.67 60.3878 148.911 60.5516L148.201 62.0118C147.999 61.854 147.761 61.7504 147.508 61.7107C147.17 61.65 146.828 61.6214 146.485 61.6254C146.018 61.6225 145.562 61.7634 145.178 62.0289C144.757 62.3388 144.433 62.7627 144.246 63.2504C143.994 63.8905 143.872 64.5742 143.888 65.2618C143.804 66.1237 144.003 66.9895 144.456 67.7277C144.658 67.9829 144.918 68.1858 145.215 68.3193C145.512 68.4528 145.836 68.513 146.161 68.4948C146.573 68.5005 146.982 68.4192 147.36 68.2561C147.659 68.1351 147.942 67.9766 148.201 67.7845L148.542 68.9209C148.4 69.0686 148.201 69.2505 147.974 69.4891C147.682 69.7292 147.354 69.9211 147.002 70.0573C146.518 70.2395 146.002 70.3244 145.485 70.3073ZM148.326 70.1652V68.8584L148.19 68.7732V61.7675L148.264 61.7164L148.19 59.5402V55.5004H150.463V70.1652H148.326ZM157.419 70.3073C156.784 70.3461 156.148 70.2429 155.559 70.005C154.969 69.7671 154.439 69.4006 154.009 68.9323C153.159 67.852 152.734 66.4976 152.816 65.1254C152.81 64.2212 153.004 63.3268 153.384 62.5061C153.721 61.7603 154.265 61.1271 154.952 60.6823C155.715 60.2132 156.597 59.9745 157.493 59.9948C157.982 59.9809 158.47 60.0501 158.936 60.1993C159.383 60.3482 159.794 60.5857 160.147 60.8982C160.512 61.2355 160.799 61.6485 160.988 62.1084C161.212 62.6624 161.326 63.255 161.323 63.8527V64.8641C161.324 65.1294 161.297 65.3942 161.244 65.6539H154.083L154.259 64.2845H159.124C159.16 63.8358 159.131 63.3842 159.039 62.9436C158.972 62.5679 158.787 62.2234 158.51 61.9607C158.178 61.6953 157.758 61.5636 157.334 61.5914C156.903 61.5817 156.48 61.7112 156.129 61.9607C155.727 62.2852 155.441 62.732 155.316 63.2334C155.101 64.0365 155.02 64.8698 155.077 65.6993C155.076 66.2947 155.225 66.8809 155.509 67.4039C155.747 67.8072 156.107 68.1238 156.538 68.3073C156.996 68.4948 157.487 68.5879 157.982 68.58C158.275 68.5772 158.567 68.5522 158.857 68.5061C159.182 68.4607 159.505 68.3965 159.823 68.313C160.067 68.2573 160.302 68.1669 160.522 68.0459L160.948 69.347C160.671 69.5537 160.365 69.7165 160.039 69.83C159.626 69.9749 159.202 70.0868 158.771 70.1652C158.326 70.2533 157.873 70.301 157.419 70.3073ZM166.563 74.4834V72.6368C166.713 72.6828 166.867 72.713 167.023 72.7277C167.179 72.7516 167.337 72.7647 167.495 72.7675C167.809 72.7579 168.119 72.6924 168.41 72.5743C168.809 72.4067 169.152 72.1288 169.399 71.7732C169.777 71.2142 170.026 70.5773 170.126 69.9095L170.251 70.1652H169.279L165.716 60.1198H168.177L170.154 66.3698L170.984 69.2732H170.49L171.229 66.3698L172.888 60.1198H175.354L172.058 70.455C171.771 71.4589 171.291 72.397 170.643 73.2164C170.178 73.7943 169.554 74.223 168.847 74.4493C168.663 74.5107 168.472 74.5544 168.279 74.58C168.092 74.6147 167.901 74.634 167.711 74.6368C167.584 74.6431 167.457 74.6431 167.33 74.6368L166.853 74.58C166.752 74.5619 166.654 74.5293 166.563 74.4834ZM176.934 70.1652V60.1368H179.014V61.2164C179.309 61.0077 179.616 60.8179 179.935 60.6482C180.32 60.4543 180.721 60.2946 181.134 60.1709C181.56 60.0391 182.001 59.9646 182.447 59.9493C182.871 59.8978 183.301 59.9465 183.703 60.0915C184.104 60.2366 184.467 60.474 184.76 60.7845C185.237 61.3681 185.476 62.3948 185.476 63.8641V70.1425H183.157V64.063C183.205 63.4588 183.091 62.8528 182.828 62.3073C182.606 61.955 182.151 61.8016 181.452 61.8357C181.22 61.8485 180.99 61.8847 180.765 61.9436C180.495 62.0186 180.23 62.1135 179.975 62.2277C179.705 62.3549 179.449 62.5111 179.213 62.6936V70.1425L176.934 70.1652ZM192.142 74.7107C191.003 74.7721 189.87 74.5101 188.874 73.955C188.504 73.7194 188.204 73.3892 188.004 72.9987C187.804 72.6081 187.712 72.1713 187.738 71.7334C187.73 71.3868 187.823 71.0455 188.005 70.7504C188.178 70.4624 188.408 70.2129 188.681 70.0175C188.938 69.8203 189.227 69.6669 189.533 69.563L190.937 69.7391L190.539 70.0857C190.38 70.2253 190.247 70.3928 190.147 70.58C190.026 70.8331 189.969 71.1122 189.982 71.3925C189.974 71.7334 190.051 72.0709 190.204 72.3754C190.361 72.6681 190.614 72.8987 190.92 73.0289C191.342 73.206 191.798 73.2875 192.256 73.2675C192.723 73.272 193.19 73.2147 193.642 73.097C194.014 73.0124 194.361 72.8411 194.654 72.597C194.776 72.4929 194.873 72.3629 194.939 72.2165C195.005 72.0701 195.038 71.9109 195.035 71.7504C195.043 71.4534 194.979 71.1587 194.847 70.8925C194.698 70.623 194.452 70.4199 194.159 70.3243C193.68 70.1743 193.178 70.109 192.676 70.1311H191.46C191.153 70.1311 190.892 70.1311 190.647 70.097C190.433 70.0772 190.22 70.043 190.011 69.9948C189.932 69.9764 189.857 69.9436 189.789 69.8982C189.721 69.8551 189.646 69.8225 189.568 69.8016C189.189 69.6949 188.861 69.4573 188.641 69.1311C188.473 68.8556 188.385 68.539 188.385 68.2164C188.397 67.9664 188.459 67.7203 188.567 67.4948C188.695 67.23 188.868 66.9897 189.079 66.7845C189.327 66.5424 189.611 66.3393 189.92 66.1823L191.301 66.4834C191.079 66.581 190.884 66.7312 190.733 66.9209C190.579 67.0976 190.492 67.323 190.488 67.5573C190.472 67.6867 190.487 67.8183 190.534 67.9402C190.581 68.0621 190.657 68.1707 190.755 68.2561C191.036 68.4046 191.354 68.4696 191.67 68.4436H193.472C194.115 68.4266 194.757 68.5067 195.376 68.6823C195.799 68.805 196.188 69.0249 196.512 69.3243C196.774 69.5715 196.969 69.88 197.08 70.222C197.187 70.5525 197.241 70.8976 197.24 71.2448C197.248 71.7619 197.108 72.2706 196.836 72.7107C196.556 73.1549 196.177 73.5283 195.728 73.8016C195.225 74.1078 194.676 74.3322 194.103 74.4664C193.461 74.627 192.803 74.7091 192.142 74.7107ZM192.051 66.7561C191.335 66.7673 190.624 66.6279 189.965 66.347C189.385 66.1095 188.882 65.7162 188.511 65.2107C188.155 64.7015 187.97 64.0928 187.982 63.472C187.955 62.7944 188.14 62.1253 188.511 61.5573C188.87 61.0412 189.377 60.6452 189.965 60.4209C190.639 60.1596 191.356 60.0266 192.079 60.0289C192.803 60.0071 193.524 60.1228 194.205 60.3698C194.799 60.5857 195.318 60.9684 195.699 61.472C196.091 62.0257 196.29 62.6922 196.268 63.3698C196.3 64.0194 196.123 64.6623 195.765 65.2049C195.406 65.7475 194.883 66.1615 194.273 66.3868C193.563 66.6516 192.808 66.7732 192.051 66.7448V66.7561ZM192.085 65.3414C192.586 65.3681 193.082 65.2282 193.495 64.9436C193.694 64.7462 193.845 64.5058 193.936 64.2408C194.028 63.9759 194.058 63.6934 194.023 63.4152C194.063 62.8901 193.901 62.3694 193.568 61.9607C193.384 61.7845 193.165 61.6494 192.925 61.5642C192.685 61.479 192.43 61.4456 192.176 61.4664C191.84 61.4629 191.506 61.5147 191.187 61.6198C190.895 61.7238 190.646 61.9242 190.483 62.188C190.284 62.5929 190.196 63.043 190.227 63.4928C190.258 63.9427 190.407 64.3765 190.659 64.7504C190.831 64.9574 191.05 65.1193 191.299 65.2223C191.547 65.3252 191.817 65.3661 192.085 65.3414ZM195.108 61.8243L194.586 60.8868C194.803 60.6612 195.064 60.4815 195.353 60.3584C195.757 60.1647 196.2 60.0675 196.649 60.0743H197.711V61.8243H195.108ZM198.859 69.5516L199.149 67.8811C199.326 67.9982 199.517 68.0936 199.717 68.1652C200.053 68.2999 200.399 68.4078 200.752 68.4891C201.16 68.5861 201.577 68.6375 201.996 68.6425C202.442 68.6781 202.889 68.5813 203.281 68.3641C203.416 68.2808 203.527 68.1635 203.603 68.024C203.678 67.8844 203.716 67.7274 203.713 67.5686C203.714 67.4491 203.691 67.3306 203.645 67.2202C203.599 67.1098 203.531 67.01 203.445 66.9266C203.231 66.7196 202.983 66.5505 202.712 66.4266C202.405 66.2732 202.053 66.1141 201.667 65.9436C201.141 65.7242 200.64 65.4499 200.172 65.1254C199.78 64.8578 199.452 64.5066 199.212 64.097C198.981 63.6684 198.869 63.1858 198.888 62.6993C198.878 62.1487 199.066 61.6127 199.416 61.188C199.779 60.7714 200.249 60.4612 200.774 60.2902C201.386 60.0851 202.028 59.9851 202.673 59.9948C203.258 59.9832 203.843 60.0501 204.412 60.1936C204.749 60.2697 205.077 60.3841 205.389 60.5345L205.093 62.2391C204.933 62.1228 204.757 62.0291 204.571 61.9607C204.314 61.8551 204.048 61.777 203.775 61.7277C203.475 61.671 203.171 61.6424 202.866 61.6425C202.399 61.6146 201.933 61.7004 201.508 61.8925C201.373 61.9541 201.259 62.0524 201.179 62.1761C201.099 62.2998 201.055 62.4438 201.053 62.5914C201.039 62.7673 201.072 62.9437 201.149 63.1025C201.226 63.2613 201.344 63.3967 201.49 63.4948C201.851 63.7306 202.231 63.934 202.627 64.1027C203.21 64.3703 203.78 64.6681 204.332 64.9948C204.774 65.2492 205.16 65.5892 205.469 65.9948C205.753 66.3976 205.899 66.8823 205.883 67.3755C205.909 67.7942 205.832 68.2129 205.657 68.5944C205.483 68.976 205.217 69.3086 204.883 69.563C204.081 70.1005 203.125 70.3618 202.161 70.3073C201.693 70.3107 201.225 70.2726 200.763 70.1936C200.362 70.1295 199.967 70.0345 199.581 69.9095C199.325 69.8232 199.083 69.7028 198.859 69.5516ZM211.112 70.3073C210.65 70.318 210.192 70.2329 209.765 70.0573C209.388 69.8819 209.085 69.5804 208.907 69.205C208.678 68.6811 208.573 68.1114 208.6 67.5402V61.7675H207.333V60.5345C207.776 60.4095 208.123 60.2959 208.367 60.1993C208.497 60.1512 208.615 60.0755 208.713 59.9774C208.811 59.8793 208.887 59.7612 208.935 59.6311C208.985 59.4948 209.041 59.3357 209.106 59.1539L209.31 58.5459L209.549 57.8357H210.93V60.1084H213.68V61.7561H210.901V66.4095C210.888 66.8811 210.919 67.3527 210.992 67.8186C211.001 67.9327 211.036 68.0432 211.094 68.1418C211.152 68.2403 211.232 68.3241 211.328 68.3868C211.549 68.4772 211.787 68.5181 212.027 68.5061C212.218 68.5044 212.407 68.4857 212.595 68.4493C212.802 68.4106 213.007 68.3613 213.209 68.3016C213.367 68.2556 213.519 68.1931 213.663 68.1141L214.016 69.4209C213.793 69.5925 213.548 69.7339 213.288 69.8414C212.952 69.9817 212.604 70.0919 212.248 70.1709C211.876 70.258 211.494 70.3037 211.112 70.3073ZM219.932 70.3073C219.297 70.3466 218.661 70.2435 218.071 70.0056C217.481 69.7677 216.952 69.401 216.522 68.9323C215.672 67.852 215.247 66.4976 215.329 65.1254C215.312 64.2237 215.494 63.3294 215.863 62.5061C216.202 61.76 216.748 61.127 217.437 60.6823C218.198 60.213 219.078 59.9742 219.972 59.9948C220.463 59.9807 220.953 60.0498 221.421 60.1993C221.867 60.3482 222.279 60.5857 222.631 60.8982C222.996 61.2355 223.283 61.6485 223.472 62.1084C223.697 62.6624 223.81 63.255 223.808 63.8527V64.8641C223.805 65.1292 223.779 65.3936 223.728 65.6539H216.636L216.817 64.2845H221.671C221.701 63.8358 221.673 63.3849 221.586 62.9436C221.517 62.5674 221.33 62.223 221.051 61.9607C220.721 61.6912 220.3 61.559 219.875 61.5914C219.444 61.5835 219.022 61.7128 218.67 61.9607C218.27 62.2858 217.986 62.7326 217.863 63.2334C217.648 64.0367 217.566 64.8695 217.619 65.6993C217.622 66.2949 217.772 66.8805 218.056 67.4039C218.292 67.8067 218.65 68.1234 219.079 68.3073C219.537 68.4948 220.028 68.5874 220.523 68.58C220.816 68.5773 221.109 68.5526 221.398 68.5061C221.724 68.4617 222.046 68.3972 222.364 68.313C222.61 68.2555 222.847 68.1657 223.069 68.0459L223.495 69.347C223.217 69.5539 222.908 69.7164 222.58 69.83C222.167 69.9754 221.743 70.0874 221.313 70.1652C220.858 70.2556 220.396 70.3027 219.932 70.3073Z" fill="#293A7D"/>
</g>
<defs>
<clipPath id="clip0_489_1459">
<rect width="275.625" height="75" fill="white"/>
</clipPath>
</defs>
</svg>
