<svg width="75" height="82" viewBox="0 0 75 82" fill="none" xmlns="http://www.w3.org/2000/svg">
<path d="M19.0527 62.647C15.7218 55.9856 19.6075 48.2654 23.9551 42.9493C0.0833025 39.0746 29.8154 -0.798408 38.8727 13.8302C41.5005 18.0574 42.4189 18.9456 42.4189 18.9456C40.8454 17.0973 46.3318 15.7169 50.1195 15.6563C59.7487 15.5095 62.8398 27.2372 56.2406 34.3305C73.5667 37.7497 58.998 62.3527 46.5113 62.2955C44.6767 69.3121 34.2532 74.5378 31.6718 67.024C27.2062 68.7755 21.3551 67.2397 19.0527 62.647Z" fill="#FFB953"/>
<path d="M34.9084 47.1721C34.6585 47.1721 34.4189 47.0664 34.2422 46.8783C34.0656 46.6902 33.9663 46.4351 33.9663 46.1691V34.133C33.9663 33.962 34.0073 33.7939 34.0855 33.6445C34.1637 33.4952 34.2765 33.3696 34.4131 33.2797C34.5497 33.1898 34.7057 33.1386 34.8661 33.1309C35.0265 33.1232 35.1862 33.1593 35.3298 33.2358L46.635 39.2539C46.7915 39.3372 46.9232 39.4652 47.0152 39.6237C47.1072 39.7821 47.1559 39.9648 47.1559 40.1511C47.1559 40.3374 47.1072 40.52 47.0152 40.6784C46.9232 40.8369 46.7915 40.965 46.635 41.0482L35.3298 47.0663C35.199 47.1359 35.0547 47.1721 34.9084 47.1721ZM35.8505 35.7558V44.5463L44.1072 40.1511L35.8505 35.7558Z" fill="#F9F7EE"/>
<path d="M39.4612 28.1144C41.6351 28.1144 43.7602 28.8203 45.5677 30.1429C47.3752 31.4654 48.784 33.3452 49.6159 35.5446C50.4478 37.7439 50.6655 40.164 50.2414 42.4988C49.8173 44.8336 48.7704 46.9782 47.2333 48.6615C45.6961 50.3448 43.7376 51.4911 41.6055 51.9555C39.4734 52.42 37.2634 52.1816 35.255 51.2706C33.2466 50.3596 31.53 48.8169 30.3223 46.8376C29.1145 44.8582 28.4699 42.5312 28.4699 40.1506C28.4699 36.9584 29.6279 33.897 31.6892 31.6397C33.7505 29.3825 36.5461 28.1144 39.4612 28.1144ZM39.4612 26.1084C36.925 26.1084 34.4458 26.932 32.337 28.4749C30.2283 30.0179 28.5847 32.211 27.6141 34.7769C26.6436 37.3428 26.3896 40.1662 26.8844 42.8901C27.3792 45.614 28.6005 48.1161 30.3938 50.08C32.1872 52.0438 34.4721 53.3812 36.9595 53.923C39.447 54.4648 42.0253 54.1868 44.3685 53.1239C46.7116 52.0611 48.7143 50.2613 50.1233 47.9521C51.5324 45.6428 52.2844 42.9279 52.2844 40.1506C52.2844 36.4264 50.9334 32.8547 48.5286 30.2213C46.1238 27.5878 42.8622 26.1084 39.4612 26.1084Z" fill="#F9F7EE"/>
</svg>
