<svg width="952" height="1014" viewBox="0 0 952 1014" fill="none" xmlns="http://www.w3.org/2000/svg">
<path d="M182.171 312.097C260.065 245.031 370.927 276.877 451.71 322.459C438.722 -26.8308 1036.98 274.349 870.554 446.279C822.49 496.11 813.365 511.761 813.365 511.761C833.252 483.967 865.81 557.444 876.665 610.842C904.169 746.615 759.662 825.461 649.753 753.351C651.274 1008.68 292.167 876.274 259.725 699.468C163.478 694.529 67.7238 562.729 158.71 503.712C124.033 445.787 128.482 358.419 182.171 312.097Z" fill="#FFB953"/>
<path d="M592.75 223.128C609.39 279.749 566.148 330.922 522.875 363.04C709.608 436.891 408.268 683.159 357.662 555.565C342.954 518.675 336.907 510.241 336.907 510.241C346.765 527.163 300.354 527.374 269.687 520.768C191.734 503.917 184.825 409.404 249.006 368.038C114.41 309.844 269.858 150.843 370.563 174.567C396.166 124.894 488.345 104.792 497.623 166.467C536.364 161.542 581.231 184.079 592.75 223.128Z" fill="#6D81DA"/>
</svg>
