<svg width="17" height="17" viewBox="0 0 17 17" fill="none" xmlns="http://www.w3.org/2000/svg">
<g clip-path="url(#clip0_236_2914)">
<mask id="mask0_236_2914" style="mask-type:luminance" maskUnits="userSpaceOnUse" x="0" y="0" width="17" height="17">
<path d="M16.1463 0H0V16.1463H16.1463V0Z" fill="white"/>
</mask>
<g mask="url(#mask0_236_2914)">
<path d="M8.07335 1.3457C4.37314 1.3457 1.3457 4.37314 1.3457 8.07335C1.3457 11.7735 4.37314 14.801 8.07335 14.801C11.7735 14.801 14.801 11.7735 14.801 8.07335C14.801 4.37314 11.7735 1.3457 8.07335 1.3457ZM8.07335 13.4555C5.10646 13.4555 2.69123 11.0402 2.69123 8.07335C2.69123 5.10646 5.10646 2.69123 8.07335 2.69123C11.0402 2.69123 13.4555 5.10646 13.4555 8.07335C13.4555 11.0402 11.0402 13.4555 8.07335 13.4555ZM8.40973 4.70952H7.40058V8.74611L10.899 10.899L11.4372 10.0244L8.40973 8.2079V4.70952Z" fill="#4662C7"/>
</g>
</g>
<defs>
<clipPath id="clip0_236_2914">
<rect width="16.1463" height="16.1463" fill="white"/>
</clipPath>
</defs>
</svg>
