<svg width="1512" height="189" viewBox="0 0 1512 189" fill="none" xmlns="http://www.w3.org/2000/svg">
<g clip-path="url(#clip0_489_1120)">
<g clip-path="url(#clip1_489_1120)">
<g clip-path="url(#clip2_489_1120)">
<mask id="mask0_489_1120" style="mask-type:alpha" maskUnits="userSpaceOnUse" x="0" y="0" width="1512" height="189">
<path d="M1512 189H0V0H1512V189Z" fill="#C4C4C4"/>
</mask>
<g mask="url(#mask0_489_1120)">
<path d="M805.422 60.6658C800.973 65.5724 801.739 73.6669 805.67 79.0002C809.601 84.3351 815.917 87.3502 822.227 89.3376C825.227 90.2915 828.551 91.0342 831.551 89.9992C833.459 89.239 835.147 88.0167 836.465 86.4421C838.912 83.7353 840.77 80.5506 841.923 77.0891C843.076 73.6275 843.499 69.9645 843.164 66.3313C847.807 68.2864 852.632 69.7762 857.568 70.7787C859.503 71.1685 861.551 71.4683 863.404 70.7787C865.707 69.9312 867.215 67.7784 868.573 65.7437C872.623 59.675 876.824 53.1944 877.05 45.9031C877.41 36.3158 870.298 27.3575 861.297 24.0352C852.294 20.7115 841.942 22.4597 833.584 27.1699C834.652 24.914 835.191 22.4444 835.161 19.9488C835.132 17.4532 834.533 14.9972 833.412 12.7676C831.641 9.27844 828.033 6.30759 824.17 6.87754C822.721 7.15034 821.352 7.74529 820.164 8.61841C817.309 10.6412 815.088 13.4337 813.76 16.6705C812.432 19.9072 812.051 23.4548 812.662 26.8997C806.825 24.6052 802.324 18.4833 796.053 18.6487C792.947 18.7535 790.119 20.4708 787.869 22.6325C779.857 30.411 779 43.1641 781.686 53.9902C783.067 59.5421 785.28 65.0098 788.979 69.3465C792.676 73.6817 797.98 76.9006 803.705 77.1782" fill="#F9663F"/>
<path d="M861.53 44.0653C858.228 51.4392 849.279 52.8715 842.024 52.3163C854.597 76.7209 802.024 75.2503 808.131 57.4695C809.88 52.3311 810.007 50.9136 810.007 50.9136C809.527 53.5552 804.756 49.4134 802.204 45.9774C795.724 37.2377 803.368 26.8028 813.593 28.2735C804.973 10.156 834.913 7.606 843.105 19.0981C850.097 16.2262 861.304 22.3997 856.789 29.6688C861.206 32.6175 863.802 38.9859 861.53 44.0653Z" fill="#DFD4E4"/>
<path d="M832.332 94.2003C833.249 92.0585 834.548 90.1012 836.165 88.424C835.399 87.4394 834.808 86.3306 834.417 85.146C833.84 83.3742 833.712 81.4868 834.045 79.6533C834.377 77.8198 835.16 76.0977 836.323 74.6417C837.722 73.0389 839.332 71.6332 841.109 70.463C842.94 69.174 844.861 68.0636 847.155 68.0179C851.11 67.9352 854.366 70.8529 856.241 74.0791C856.857 75.1675 857.388 76.3014 857.831 77.4708C858.259 78.4631 858.627 79.4789 858.934 80.517C860.967 81.2671 863.03 81.9714 865.003 82.8425C867.148 83.7949 868.918 85.1903 869.61 87.5085C869.867 88.5034 869.925 89.5396 869.779 90.557C869.633 91.5744 869.287 92.5528 868.761 93.4354C868.21 94.3525 867.483 95.1511 866.622 95.7848C865.76 96.4185 864.781 96.8747 863.742 97.1268C862.635 97.4094 861.489 97.5027 860.351 97.4029C860.851 98.8148 861.013 100.324 860.827 101.809C860.641 103.295 860.111 104.717 859.28 105.963C857.954 107.882 856.173 109.441 854.095 110.502C853.574 110.842 852.974 111.043 852.352 111.085C851.731 111.127 851.109 111.008 850.547 110.741C849.511 110.079 848.604 109.236 847.869 108.251C846.525 106.627 845.494 104.767 844.83 102.767C843.982 103.892 843.33 105.31 842.475 106.391C841.712 107.387 840.647 108.11 839.439 108.449C838.231 108.789 836.946 108.727 835.776 108.273C830.082 106.075 830.314 98.8972 832.332 94.2003Z" fill="#EF76A4"/>
<path d="M652.496 33.8176C648.596 25.0468 637.965 23.3148 629.346 23.9291C644.35 -5.07209 581.822 -3.48921 589.008 17.6803C591.078 23.7947 591.259 25.475 591.259 25.475C590.689 22.3388 584.958 27.2233 581.941 31.334C574.2 41.7084 583.261 54.1322 595.445 52.4223C585.129 73.9521 620.741 77.0735 630.523 63.4345C638.829 66.8778 652.174 59.5703 646.826 50.9059C652.077 47.4478 655.182 39.8715 652.496 33.8176Z" fill="#F2F2F2"/>
<path d="M669.346 64.1479C666.655 59.4731 665.109 52.2867 670.848 49.2346C667.997 44.7326 665.769 38.4616 667.352 33.1342C673.286 24.1331 687.607 23.1571 691.036 34.9578C697.036 32.7075 699.954 38.9637 699.978 44.043C706.122 45.7381 716.601 48.6115 713.766 57.0368C710.142 67.7478 696.069 74.5754 686.999 65.9626C683.27 72.9172 672.685 69.9774 669.346 64.1479Z" fill="#46B1CB"/>
<path d="M698.726 51.4393C701.607 45.437 709.048 44.4182 715.02 45.0251C705.162 24.5451 748.628 26.9077 743.197 41.4991C742.473 43.2355 741.908 45.0325 741.509 46.8708C741.974 44.7106 745.859 48.2218 747.855 51.1085C753.031 58.4839 746.482 66.9373 738.057 65.5124C744.809 80.6811 719.963 82.137 713.481 72.4522C707.629 74.7025 698.478 69.3234 702.401 63.4127C698.741 60.8922 696.729 55.5574 698.726 51.4393Z" fill="#EF76A4"/>
<path d="M789.639 46.286C786.978 46.069 784.406 45.2229 782.137 43.8172C781.462 46.4957 779.594 48.904 777.831 50.9667C775.445 53.6747 772.744 56.3458 769.271 57.6127C765.46 59.0229 761.364 58.1827 757.719 56.6825C754.124 55.3011 750.944 53.0205 748.483 50.0587C748.319 49.8564 748.168 49.6393 748.018 49.4208C745.69 49.0497 743.51 48.0449 741.715 46.5165C739.921 44.9882 738.582 42.9952 737.846 40.7563C736.947 38.1346 736.996 35.2813 737.981 32.6913C739.158 29.9006 742.16 28.8966 744.898 28.3104C747.661 27.7203 750.506 27.6114 753.307 27.9885C754.316 24.2256 756.712 20.9841 760.013 18.9148C763.314 16.8456 767.276 16.1019 771.102 16.833C771.439 16.901 772.211 17.2229 772.542 17.0885C772.873 16.9526 772.842 16.7725 772.97 16.5628C774.143 14.433 775.702 12.5403 777.568 10.9814C779.248 9.67768 781.249 8.85086 783.359 8.58792C785.312 8.35158 787.293 8.55207 789.158 9.17489C791.024 9.79772 792.728 10.8273 794.147 12.1892C796.079 13.9844 797.231 16.4641 797.358 19.0981C797.353 20.331 796.982 21.5344 796.292 22.5577C798.574 23.533 800.604 25.0156 802.227 26.8929C803.318 28.1642 804.125 29.6533 804.596 31.261C805.067 32.8688 805.19 34.5584 804.957 36.2174C803.765 43.2399 796.083 46.8043 789.639 46.286Z" fill="#FFCFFF"/>
<path d="M761.942 14.4466C757.576 5.31703 746.308 3.81686 737.246 4.73233C752.189 -26.2873 686.346 -22.7022 694.56 -0.615796C696.939 5.76738 697.103 7.5378 697.103 7.5378C696.413 4.25245 690.525 9.57102 687.486 13.9978C679.647 25.1517 689.571 38.0037 702.34 35.7977C692.167 58.7834 729.744 60.9967 739.632 46.3005C748.492 49.6907 762.324 41.5667 756.421 32.6024C761.92 28.8062 764.958 20.7338 761.942 14.4466Z" fill="#F2F2F2"/>
<path d="M1316.55 45.4073C1319 51.6339 1326.35 53.1489 1332.37 52.9835C1318.11 69.0839 1355.81 70.4187 1360.25 58.5132C1358.99 54.2002 1358.49 54.0865 1358.49 54.0865C1361.74 54.3951 1363.38 51.9942 1365.59 49.2256C1371.29 42.2341 1365.34 33.3216 1356.83 34.1396C1364.64 19.4803 1339.96 16.2319 1332.7 25.4441C1327.03 22.8114 1317.53 27.501 1320.99 33.6966C1317.24 35.9469 1314.86 41.1164 1316.55 45.4073Z" fill="#EF76A4"/>
<path d="M1412.35 25.3555C1414.65 23.2879 1416.55 20.8222 1417.97 18.0776C1421.1 19.1541 1424.51 19.1396 1427.63 18.0365C1430.76 16.9334 1433.41 14.8065 1435.17 12.0015C1436.6 9.5727 1437.68 6.95712 1438.38 4.23036C1439.23 1.37912 1439.8 -1.49427 1438.87 -4.40458C1437.27 -9.40127 1432.23 -12.2525 1427.38 -13.2197C1425.74 -13.5312 1424.08 -13.7113 1422.41 -13.7601C1420.98 -13.8634 1419.55 -13.8885 1418.12 -13.8354C1416.31 -16.0857 1414.54 -18.3359 1412.6 -20.4666C1410.5 -22.7538 1407.99 -24.3751 1404.78 -24.2555C1403.42 -24.1552 1402.1 -23.7887 1400.89 -23.177C1399.68 -22.5653 1398.61 -21.7205 1397.72 -20.6911C1396.81 -19.6063 1396.12 -18.3506 1395.7 -16.997C1395.27 -15.6434 1395.12 -14.2189 1395.25 -12.8062C1395.36 -11.2859 1395.73 -9.79624 1396.35 -8.4031C1394.37 -8.42892 1392.4 -7.9898 1390.62 -7.12086C1388.84 -6.25193 1387.28 -4.97732 1386.08 -3.39904C1384.22 -0.909389 1383.03 2.00536 1382.59 5.07791C1382.32 6.76562 1382.41 8.46072 1383.75 9.6907C1385.03 10.7096 1386.48 11.4877 1388.03 11.9867C1390.64 12.9926 1393.41 13.5014 1396.21 13.4869C1395.17 15.0624 1393.61 16.4873 1392.68 17.9875C1391.74 19.3691 1391.28 21.0196 1391.37 22.6864C1391.46 24.3531 1392.1 25.9442 1393.18 27.216C1398.42 33.2994 1407.27 29.9166 1412.35 25.3555ZM652.768 18.4836C649.767 16.3013 645.265 17.2005 642.603 19.7136C639.939 22.2267 638.559 25.9255 637.823 29.5711C637.472 31.312 637.246 33.1946 638.003 34.8233C638.536 35.841 639.309 36.7136 640.255 37.3659C641.91 38.5719 643.797 39.4208 645.797 39.8585C647.798 40.2962 649.867 40.3132 651.874 39.9085C651.065 42.6173 650.523 45.3986 650.254 48.2127C650.052 49.2869 650.14 50.3956 650.51 51.4243C651.109 52.6616 652.407 53.3748 653.63 53.9669C657.253 55.8658 661.132 57.8163 665.199 57.5313C670.569 57.1563 675.146 52.6852 676.452 47.4626C677.757 42.2415 676.181 36.5774 673.067 32.2127C674.386 32.6677 675.79 32.8182 677.175 32.653C678.56 32.4878 679.89 32.0112 681.064 31.2588C682.903 30.0658 684.342 27.8687 683.803 25.7527C683.563 24.9583 683.148 24.2274 682.588 23.6147C681.286 22.1496 679.596 21.0831 677.714 20.5388C675.831 19.9945 673.832 19.9946 671.95 20.539C672.88 17.1488 676.023 14.268 675.543 10.7863C675.202 9.05875 674.235 7.51789 672.828 6.4585C668.012 2.45996 660.825 2.70654 654.966 4.89038C651.906 5.90227 649.12 7.60662 646.826 9.87083C645.689 11.0072 644.794 12.3625 644.196 13.8545C643.598 15.3466 643.309 16.9445 643.346 18.5515M1244.58 58.5206C1248.97 58.0693 1253.23 56.8182 1257.17 54.8292C1258.52 56.7589 1260.19 58.4479 1262.1 59.8259C1264.97 61.8487 1268.3 63.1299 1271.79 63.5558C1275.28 63.9816 1278.82 63.5387 1282.1 62.2666C1285.79 60.6465 1289.23 58.5259 1292.34 55.9647C1295.73 53.422 1298.78 50.5487 1300.14 46.4217C1302.5 39.3179 1299.08 31.8081 1294.29 26.6165C1292.67 24.8856 1290.91 23.2854 1289.04 21.831C1287.48 20.5096 1285.85 19.2748 1284.16 18.1322C1283.97 14.051 1283.83 9.93285 1283.36 5.86639C1282.86 1.46328 1281.32 -2.51309 1277.52 -5.05573C1275.88 -6.07345 1274.05 -6.75754 1272.14 -7.06891C1270.24 -7.38027 1268.29 -7.31283 1266.4 -6.87043C1264.44 -6.38898 1262.59 -5.52157 1260.97 -4.31871C1259.34 -3.11586 1257.97 -1.6016 1256.94 0.135859C1255.79 1.98034 1254.97 4.01105 1254.52 6.1366C1252.26 4.4377 1249.62 3.29416 1246.83 2.79793C1244.05 2.3017 1241.18 2.46663 1238.47 3.27946C1234.26 4.56854 1230.44 6.88924 1227.36 10.0303C1225.63 11.7254 1224.32 13.7808 1224.82 16.3249C1225.44 18.567 1226.45 20.6791 1227.82 22.5589C1230.01 25.8886 1232.78 28.7897 1236.01 31.1186C1233.47 32.0636 1230.53 32.3559 1228.16 33.3688C1223.6 35.2736 1220.66 39.3696 1221.01 44.3884C1221.86 55.9942 1234.9 59.5335 1244.58 58.5206Z" fill="#F2F2F2"/>
<path d="M1295.69 13.0145C1297.48 14.5933 1298.86 16.573 1299.73 18.7908C1301.66 17.23 1304.28 16.4652 1306.65 15.9779C1309.8 15.3179 1313.19 14.8528 1316.35 15.7904C1319.83 16.8329 1322.28 19.6162 1324.13 22.6549C1325.97 25.5758 1327.03 28.9214 1327.2 32.3692V33.0677C1328.67 34.5803 1329.7 36.4697 1330.18 38.5287C1330.65 40.5877 1330.54 42.7367 1329.87 44.7399C1329.1 47.1013 1327.54 49.1221 1325.45 50.4557C1323.1 51.8141 1320.4 50.937 1318.14 49.8857C1315.84 48.8431 1313.74 47.4092 1311.93 45.648C1309.19 47.8055 1305.73 48.8438 1302.25 48.5543C1298.77 48.2648 1295.53 46.6688 1293.18 44.0872C1292.97 43.8613 1292.59 43.2397 1292.28 43.1422C1292.07 43.1186 1291.87 43.1718 1291.69 43.2914C1289.72 44.1695 1287.6 44.678 1285.44 44.7916C1283.54 44.8211 1281.67 44.3419 1280.01 43.4036C1278.49 42.5317 1277.18 41.3328 1276.17 39.8932C1275.16 38.4536 1274.49 36.8089 1274.19 35.0773C1273.77 32.7516 1274.28 30.3532 1275.61 28.4002C1276.27 27.5173 1277.18 26.8535 1278.22 26.4955C1277.11 24.5699 1276.45 22.4178 1276.29 20.2009C1276.19 18.7018 1276.41 17.1986 1276.94 15.7915C1277.47 14.3843 1278.29 13.1054 1279.35 12.0399C1283.94 7.60582 1291.35 9.1887 1295.69 13.0145Z" fill="#F6AB0B"/>
<path d="M933.681 100.037C928.999 98.7819 923.507 95.1968 925.204 89.608C920.536 88.5582 915.174 85.9772 912.787 81.642C910.852 72.1743 919.292 62.4821 928.962 67.7712C931.399 62.519 937.168 64.6571 940.402 67.8598C945.368 65.0321 953.845 60.2392 957.356 67.3577C961.857 76.4578 957.251 89.7129 946.035 90.0141C948.061 96.7428 939.479 101.598 933.681 100.037Z" fill="#859400"/>
<path d="M949.758 74.8913C945.316 79.7048 947.11 86.8337 949.818 92.0548C927.605 90.5015 945.496 129.182 956.802 119.008C958.109 117.718 959.527 116.546 961.04 115.506C959.233 116.706 963.84 118.978 967.222 119.743C975.843 121.813 981.176 112.767 976.832 105.617C993.089 106.262 985.421 83.1113 974.243 80.6956C974.161 74.5679 965.992 68.1906 962.009 73.9448C958.363 71.4848 952.818 71.5838 949.758 74.8913Z" fill="#4662C7"/>
<path d="M1475.16 9.3689C1478.2 11.064 1479.15 15.3032 1478.05 18.6255C1476.96 21.9492 1474.3 24.5081 1471.43 26.5413C1470.07 27.5232 1468.54 28.4461 1466.85 28.4018C1465.77 28.3309 1464.72 27.9958 1463.79 27.4258C1462.12 26.4602 1460.67 25.1582 1459.53 23.6023C1458.38 22.0463 1457.58 20.2702 1457.15 18.3863C1455.14 20.1328 1452.96 21.6732 1450.64 22.9843C1449.78 23.5713 1448.76 23.9089 1447.72 23.9603C1446.43 23.755 1445.25 23.1511 1444.33 22.2342C1441.33 19.8495 1438.12 17.2759 1436.79 13.6598C1435.02 8.90378 1437.11 3.23231 1441.09 0.0960878C1445.06 -3.03865 1450.55 -3.87882 1455.49 -2.90428C1454.59 -3.86697 1453.93 -5.01897 1453.54 -6.27481C1453.15 -7.53065 1453.05 -8.8581 1453.24 -10.1586C1453.56 -12.2066 1454.89 -14.2841 1456.92 -14.6592C1457.7 -14.7667 1458.48 -14.695 1459.23 -14.4495C1460.99 -13.8981 1462.56 -12.8572 1463.76 -11.448C1464.95 -10.0388 1465.72 -8.31928 1465.98 -6.48939C1468.52 -8.6053 1469.8 -12.4237 1472.97 -13.3539C1474.59 -13.7282 1476.28 -13.4933 1477.74 -12.6939C1483.05 -10.1055 1485.59 -3.83453 1485.99 2.054C1486.3 5.07718 1485.91 8.13041 1484.86 10.9813C1484.32 12.3988 1483.5 13.6925 1482.45 14.7847C1481.4 15.8768 1480.13 16.7448 1478.74 17.3364" fill="#05946B"/>
<path d="M1006.82 94.1618C1008.22 95.4128 1009.31 96.9756 1010 98.7244C1011.62 97.5605 1013.49 96.7896 1015.46 96.4726C1017.96 95.9558 1020.63 95.6251 1023.09 96.3309C1025.84 97.1784 1027.8 99.3312 1029.24 101.747C1030.68 104.038 1031.52 106.662 1031.66 109.369V109.93C1032.84 111.128 1033.66 112.629 1034.04 114.267C1034.42 115.905 1034.34 117.616 1033.8 119.21C1033.19 121.069 1031.96 122.659 1030.31 123.712C1028.46 124.799 1026.32 124.095 1024.54 123.269C1022.72 122.428 1021.07 121.282 1019.64 119.879C1017.47 121.59 1014.73 122.414 1011.98 122.182C1009.22 121.951 1006.66 120.682 1004.8 118.633C1004.63 118.46 1004.34 117.951 1004.09 117.883C1003.93 117.87 1003.77 117.909 1003.63 117.995C1002.09 118.692 1000.43 119.099 998.734 119.195C997.231 119.215 995.751 118.837 994.441 118.1C993.241 117.406 992.209 116.455 991.419 115.315C990.629 114.175 990.101 112.875 989.873 111.507C989.549 109.679 989.947 107.796 990.983 106.255C991.508 105.56 992.229 105.037 993.053 104.755C992.182 103.235 991.669 101.537 991.553 99.789C991.473 98.6047 991.645 97.4168 992.059 96.3043C992.473 95.1917 993.119 94.18 993.954 93.3364C997.548 89.8857 1003.38 91.1452 1006.82 94.1618Z" fill="#F6AB0B"/>
<path d="M934.936 62.813C931.934 68.8964 924.312 69.7824 918.228 69.0603C927.921 90.0659 883.72 86.9223 889.489 72.1744C890.264 70.4056 890.877 68.5701 891.32 66.6904C890.809 68.8964 886.908 65.2493 884.92 62.2489C879.774 54.6269 886.615 46.15 895.145 47.7638C888.536 32.1964 913.794 31.1392 920.322 41.1164C926.323 38.9488 935.513 44.5066 931.447 50.5088C935.107 53.1341 936.999 58.6195 934.936 62.813Z" fill="#DDDEF6"/>
<path d="M1093.85 133.914C1088.59 132.511 1082.47 128.513 1084.37 122.288C1079.17 121.124 1073.19 118.236 1070.53 113.405C1068.38 102.857 1077.78 92.0534 1088.57 97.9434C1091.27 92.0992 1097.72 94.4779 1101.29 98.0409C1106.82 94.881 1116.29 89.5639 1120.23 97.4783C1125.23 107.643 1120.12 122.4 1107.6 122.722C1109.9 130.261 1100.31 135.656 1093.85 133.914Z" fill="#859400"/>
<path d="M1101.71 84.9572C1102.79 82.4241 1104.31 80.1065 1106.21 78.1163C1104.4 75.7796 1103.44 72.9004 1103.47 69.9465C1103.51 66.9926 1104.54 64.1374 1106.41 61.8446C1108.06 59.948 1109.97 58.2871 1112.07 56.9084C1114.23 55.4083 1116.5 54.0646 1119.22 54.0055C1123.9 53.9154 1127.75 57.3957 1129.97 61.1846C1130.7 62.4803 1131.33 63.8293 1131.85 65.22C1132.35 66.3967 1132.78 67.5988 1133.15 68.8213C1135.56 69.6689 1137.99 70.5164 1140.33 71.5751C1142.87 72.7003 1144.96 74.3511 1145.77 77.0886C1146.07 78.2618 1146.14 79.4838 1145.97 80.684C1145.8 81.8838 1145.4 83.0379 1144.78 84.0801C1144.13 85.1613 1143.27 86.1026 1142.25 86.8495C1141.23 87.5964 1140.08 88.1342 1138.85 88.4316C1137.53 88.7704 1136.17 88.8793 1134.82 88.7535C1135.41 90.4313 1135.6 92.225 1135.38 93.9915C1135.16 95.7579 1134.53 97.4481 1133.54 98.927C1131.97 101.197 1129.87 103.04 1127.41 104.29C1126.06 105.04 1124.61 105.408 1123.18 104.628C1121.95 103.846 1120.88 102.847 1120.01 101.679C1118.42 99.7575 1117.21 97.5601 1116.42 95.1972C1115.39 96.5261 1114.66 98.2359 1113.63 99.4364C1112.73 100.622 1111.47 101.483 1110.04 101.889C1108.61 102.295 1107.09 102.224 1105.7 101.687C1099 99.0008 1099.31 90.5534 1101.71 84.9572Z" fill="#019AE9"/>
<path d="M988.182 62.6018C986.41 64.111 984.376 65.2808 982.18 66.0525C982.675 68.5036 982.321 71.0502 981.175 73.273C980.03 75.4959 978.161 77.2623 975.878 78.2814C973.911 79.0944 971.841 79.6296 969.727 79.8716C967.476 80.2083 965.301 80.3441 963.222 79.3548C959.659 77.6568 958.047 73.5918 957.821 69.8635C957.756 68.6128 957.791 67.3578 957.927 66.113C957.994 65.0351 958.122 63.9646 958.31 62.9015C956.81 61.326 955.308 59.7667 953.929 58.1012C952.427 56.2924 951.475 54.2518 951.903 51.8745C952.117 50.8727 952.527 49.9229 953.108 49.0797C953.69 48.2364 954.433 47.5163 955.293 46.9605C957.12 45.8138 959.327 45.4389 961.43 45.9181C962.554 46.1578 963.628 46.5915 964.603 47.1997C964.791 45.7144 965.322 44.2933 966.154 43.0486C966.987 41.8039 968.097 40.7698 969.397 40.0281C971.442 38.9075 973.734 38.3123 976.065 38.296C976.689 38.2148 977.323 38.2964 977.905 38.5329C978.488 38.7694 978.999 39.1528 979.389 39.6456C980.021 40.7006 980.453 41.8628 980.665 43.0742C981.138 45.1255 981.227 47.2467 980.928 49.3304C982.211 48.7235 983.41 47.6958 984.678 47.1554C985.808 46.6042 987.086 46.4348 988.32 46.6729C989.554 46.911 990.677 47.5436 991.521 48.4755C995.549 52.9923 992.083 59.2706 988.182 62.6018Z" fill="#EF76A4"/>
<path d="M795.13 98.5281C793.443 97.5462 792.88 95.1911 793.54 93.3306C794.296 91.5024 795.609 89.9587 797.292 88.9187C798.009 88.3138 798.899 87.9515 799.835 87.8836C800.437 87.926 801.019 88.1167 801.53 88.4388C802.472 88.9814 803.292 89.7137 803.938 90.5892C804.583 91.4647 805.04 92.4645 805.28 93.5255C806.413 92.5582 807.64 91.706 808.942 90.9814C809.432 90.6608 809.999 90.4772 810.584 90.4499C811.309 90.5532 811.981 90.8899 812.498 91.4096C814.193 92.7592 815.97 94.2077 816.698 96.2409C817.119 97.6104 817.109 99.076 816.669 100.439C816.229 101.803 815.38 102.998 814.238 103.863C813.077 104.709 811.746 105.293 810.337 105.577C808.928 105.86 807.475 105.836 806.076 105.505C806.578 106.047 806.951 106.696 807.168 107.403C807.385 108.109 807.439 108.855 807.328 109.586C807.338 109.995 807.246 110.4 807.061 110.765C806.875 111.129 806.602 111.442 806.266 111.675C805.931 111.909 805.543 112.057 805.137 112.104C804.73 112.152 804.319 112.099 803.938 111.95C802.953 111.62 802.082 111.017 801.427 110.211C800.772 109.404 800.36 108.428 800.239 107.396C798.807 108.573 798.086 110.711 796.294 111.221C795.388 111.432 794.436 111.298 793.623 110.847C790.659 109.345 789.264 105.842 789.039 102.549C788.88 100.852 789.109 99.1418 789.707 97.5462C790.015 96.7546 790.479 96.0331 791.072 95.4247C791.665 94.8164 792.374 94.3337 793.158 94.0054" fill="#05946B"/>
<path d="M1182.14 89.1577C1178.84 96.5257 1169.89 97.958 1162.63 97.4102C1175.2 121.821 1122.63 120.352 1128.73 102.572C1130.49 97.4249 1130.61 96.0074 1130.61 96.0074C1130.13 98.6475 1125.36 94.5072 1122.81 91.0713C1116.33 82.3315 1123.98 71.904 1134.19 73.3673C1125.57 55.2573 1155.51 52.6984 1163.71 64.1919C1170.72 61.3333 1181.92 67.5142 1177.42 74.7464C1181.81 77.7099 1184.41 84.0724 1182.14 89.1577Z" fill="#64BFEB"/>
<path d="M664.441 38.5592C662.667 40.0654 660.633 41.2348 658.439 42.0099C658.687 43.245 658.722 44.5134 658.544 45.7604C658.259 47.5982 657.525 49.3371 656.405 50.8225C655.286 52.3078 653.818 53.4936 652.13 54.2743C650.162 55.0865 648.092 55.6245 645.978 55.8734C643.774 56.21 641.553 56.3385 639.489 55.3477C635.911 53.6526 634.306 49.5788 634.073 45.8505C634.014 44.5983 634.051 43.3447 634.185 42.1C634.253 41.0206 634.381 39.9457 634.569 38.8811C633.067 37.3056 631.567 35.7449 630.188 34.0867C628.686 32.272 627.734 30.2314 628.162 27.8526C628.374 26.8523 628.783 25.9042 629.365 25.0634C629.947 24.2226 630.691 23.5059 631.552 22.9549C632.455 22.3789 633.463 21.9899 634.519 21.8108C635.574 21.6318 636.655 21.6663 637.696 21.9124C638.817 22.1515 639.888 22.5826 640.862 23.1867C641.047 21.7004 641.578 20.2781 642.411 19.0339C643.245 17.7898 644.359 16.7584 645.664 16.0224C647.708 14.9103 649.998 14.3275 652.325 14.3273C652.946 14.2439 653.579 14.324 654.161 14.5596C654.742 14.7952 655.252 15.1783 655.641 15.671C656.28 16.7228 656.715 17.8854 656.924 19.0981C657.397 21.1499 657.486 23.2715 657.187 25.3558C658.477 24.7401 659.669 23.7198 660.937 23.1793C662.067 22.6288 663.345 22.4599 664.579 22.6979C665.813 22.936 666.936 23.5681 667.78 24.4994C671.793 28.9867 668.342 35.2355 664.441 38.5592ZM1056.85 154.59C1056.54 157.936 1053.25 160.426 1049.9 160.786C1046.55 161.146 1043.25 159.804 1040.35 158.124C1038.88 157.42 1037.68 156.27 1036.91 154.837C1036.54 153.862 1036.42 152.811 1036.55 151.776C1036.73 149.93 1037.29 148.141 1038.19 146.522C1039.1 144.902 1040.33 143.488 1041.8 142.369C1039.48 141.298 1037.27 140.004 1035.2 138.506C1034.35 137.975 1033.66 137.222 1033.19 136.33C1032.85 135.128 1032.89 133.848 1033.3 132.669C1034.15 129.068 1035.19 125.272 1037.81 122.677C1041.27 119.286 1047.06 118.828 1051.37 121.056C1055.68 123.286 1058.59 127.809 1059.7 132.511C1060.18 131.343 1060.92 130.299 1061.86 129.457C1062.81 128.615 1063.93 127.997 1065.14 127.651C1067.05 127.126 1069.37 127.456 1070.51 129.098C1070.92 129.731 1071.18 130.45 1071.26 131.199C1071.48 132.962 1071.19 134.75 1070.43 136.356C1069.67 137.962 1068.47 139.319 1066.97 140.269C1069.84 141.665 1073.67 141.251 1075.75 143.659C1076.72 144.924 1077.18 146.499 1077.06 148.086C1076.9 153.756 1072.41 158.438 1067.43 161.154C1064.92 162.632 1062.09 163.504 1059.18 163.698C1057.73 163.792 1056.27 163.589 1054.9 163.103C1053.53 162.617 1052.27 161.857 1051.2 160.869" fill="#F6AB0B"/>
<path d="M1181.78 98.162C1183.63 94.2978 1188.4 93.6584 1192.24 94.0497C1185.9 80.9216 1213.77 82.4366 1210.29 91.7994C1209.82 92.9128 1209.46 94.0689 1209.2 95.2502C1209.5 93.8548 1211.99 96.0977 1213.28 97.973C1216.59 102.698 1212.39 108.146 1206.99 107.201C1211.31 116.953 1195.39 117.868 1191.24 111.664C1187.49 113.089 1181.64 109.654 1184.13 105.858C1181.79 104.237 1180.5 100.824 1181.78 98.162Z" fill="#F9663F"/>
<path d="M654.501 17.8386C657.443 11.702 665.004 10.6891 671.095 11.3122C661.057 -9.52801 705.304 -7.12861 699.783 7.71823C699.04 9.48863 698.459 11.321 698.042 13.1948C698.522 10.9888 702.476 14.568 704.508 17.53C709.76 25.0324 703.113 33.6289 694.531 32.1819C701.403 47.6356 676.121 49.1358 669.475 39.2487C663.541 41.499 654.216 36.0756 658.222 30.0512C654.538 27.485 652.475 22.0616 654.501 17.8386Z" fill="#5E2779"/>
<path d="M1040.68 95.9765C1043.62 89.8414 1051.18 88.8299 1057.27 89.4501C1047.23 68.6114 1091.48 71.0122 1085.96 85.8576C1085.23 87.6295 1084.67 89.4604 1084.27 91.3342C1084.74 89.1282 1088.69 92.7 1090.73 95.6708C1095.98 103.172 1089.34 111.77 1080.75 110.329C1087.61 125.775 1062.35 127.283 1055.69 117.396C1049.76 119.646 1040.43 114.215 1044.44 108.183C1040.7 105.626 1038.63 100.199 1040.68 95.9765Z" fill="#05946B"/>
<path d="M596.543 36.4195C596.132 34.375 596.209 32.2626 596.767 30.2533C594.554 30.1883 592.386 29.6079 590.436 28.5582C587.893 27.343 585.268 25.8871 583.557 23.5542C581.667 21.0115 581.404 17.7262 581.735 14.6505C581.993 11.633 583.027 8.73335 584.735 6.23262C584.855 6.07463 584.974 5.90187 585.11 5.74535C584.877 3.90777 585.155 2.04161 585.914 0.351661C586.672 -1.33828 587.881 -2.78668 589.408 -3.83458C591.187 -5.08833 593.345 -5.68731 595.515 -5.52967C597.878 -5.25208 599.266 -3.20409 600.33 -1.29194C601.381 0.663444 602.087 2.78533 602.417 4.9805C605.481 4.91718 608.455 6.01982 610.738 8.06546C613.02 10.1111 614.441 12.9471 614.712 16.0001C614.712 16.2703 614.659 16.9229 614.832 17.1326C614.967 17.2535 615.138 17.3272 615.319 17.3423C617.17 17.7643 618.925 18.528 620.496 19.594C621.847 20.5733 622.907 21.9005 623.564 23.4346C624.172 24.8542 624.455 26.3914 624.394 27.9344C624.333 29.4773 623.929 30.9873 623.211 32.3545C622.282 34.2024 620.667 35.6133 618.711 36.2851C617.778 36.5453 616.789 36.5268 615.867 36.2319C615.632 38.1649 614.957 40.0182 613.894 41.6494C613.173 42.753 612.224 43.6898 611.111 44.3974C609.999 45.105 608.748 45.5671 607.443 45.7528C601.906 46.4128 597.525 41.394 596.543 36.4195Z" fill="#DFD4E4"/>
<path d="M1417.98 25.6182C1418.87 23.4814 1420.14 21.5237 1421.73 19.8404C1420.19 17.869 1419.37 15.4313 1419.4 12.9291C1419.43 10.427 1420.31 8.00982 1421.9 6.07593C1423.29 4.47117 1424.9 3.06523 1426.68 1.89726C1428.51 0.591984 1430.47 -0.503638 1432.75 -0.542028C1436.7 -0.632098 1439.96 2.28707 1441.84 5.51189C1442.45 6.60018 1442.98 7.73405 1443.43 8.90355C1443.85 9.89656 1444.22 10.9137 1444.53 11.9497C1446.56 12.6998 1448.62 13.4041 1450.6 14.2827C1452.74 15.2277 1454.51 16.623 1455.2 18.9412C1455.46 19.9373 1455.52 20.9746 1455.37 21.9931C1455.23 23.0117 1454.88 23.9913 1454.36 24.8755C1453.81 25.7872 1453.08 26.5817 1452.23 27.2136C1451.37 27.8455 1450.4 28.3023 1449.37 28.5581C1448.26 28.8446 1447.12 28.9385 1445.98 28.8357C1446.49 30.2469 1446.65 31.7566 1446.47 33.2433C1446.28 34.73 1445.75 36.1521 1444.91 37.3953C1443.59 39.3146 1441.81 40.8746 1439.73 41.9343C1439.21 42.2875 1438.61 42.4995 1437.98 42.5495C1437.36 42.5994 1436.73 42.4856 1436.16 42.2192C1435.12 41.557 1434.21 40.7131 1433.48 39.7283C1432.15 38.1023 1431.13 36.2426 1430.48 34.2443C1429.63 35.3695 1428.98 36.7884 1428.12 37.8678C1427.36 38.8661 1426.29 39.589 1425.08 39.9273C1423.87 40.2656 1422.58 40.2009 1421.41 39.743C1415.69 37.4854 1415.98 30.3432 1417.98 25.6182ZM1009.51 95.6176C1010.43 93.5399 1011.73 91.6504 1013.34 90.0436C1011.81 88.1594 1010.99 85.7998 1011.02 83.3743C1011.05 80.9489 1011.93 78.6105 1013.5 76.7649C1014.9 75.2045 1016.51 73.8463 1018.28 72.7294C1020.11 71.4832 1022.03 70.4038 1024.33 70.3669C1028.29 70.2916 1031.54 73.1045 1033.41 76.2171C1034.03 77.2729 1034.57 78.377 1035.01 79.5187C1035.43 80.476 1035.8 81.4549 1036.11 82.4511C1038.15 83.2012 1040.2 83.8627 1042.18 84.7029C1044.32 85.6183 1046.08 86.9532 1046.78 89.2034C1047.03 90.1603 1047.09 91.1586 1046.94 92.1375C1046.8 93.1164 1046.45 94.0554 1045.93 94.8971C1044.79 96.6968 1042.98 97.9741 1040.91 98.4526C1039.8 98.7298 1038.65 98.8211 1037.52 98.7228C1038.01 100.083 1038.18 101.544 1037.99 102.98C1037.8 104.417 1037.27 105.787 1036.44 106.975C1035.1 108.834 1033.32 110.336 1031.27 111.349C1030.74 111.69 1030.14 111.894 1029.51 111.942C1028.89 111.991 1028.26 111.882 1027.69 111.627C1026.65 110.995 1025.74 110.179 1025 109.22C1023.67 107.674 1022.64 105.892 1021.97 103.968C1021.12 105.047 1020.46 106.45 1019.61 107.448C1018.83 108.418 1017.76 109.117 1016.55 109.445C1015.35 109.772 1014.08 109.711 1012.91 109.271C1007.22 107.11 1007.44 100.186 1009.51 95.6176Z" fill="#019AE9"/>
<path d="M972.88 67.3581C975.642 61.1388 983.181 59.9162 989.279 60.3444C978.635 39.8113 1022.93 40.9291 1017.85 55.9177C1017.16 57.7096 1016.63 59.5598 1016.27 61.4459C1016.68 59.1956 1020.77 62.6848 1022.87 65.5951C1028.35 72.9469 1021.93 81.7014 1013.31 80.5379C1020.63 95.7981 995.401 98.0026 988.469 88.3341C982.587 90.7704 973.128 85.5877 976.923 79.4585C973.18 76.9986 970.982 71.6416 972.88 67.3581Z" fill="#05946B"/>
<path d="M877.215 70.9373C880.037 74.0499 879.557 79.1883 877.052 82.5947C874.546 86.0011 870.54 87.8985 866.549 89.1654C864.635 89.7738 862.535 90.2536 860.614 89.5862C859.402 89.1019 858.326 88.3297 857.478 87.336C855.928 85.6117 854.751 83.5853 854.022 81.3842C853.292 79.1831 853.026 76.8549 853.24 74.546C850.29 75.7944 847.221 76.7417 844.08 77.3736C842.871 77.7111 841.592 77.7111 840.383 77.3736C838.882 76.842 837.952 75.4688 837.088 74.1695C834.546 70.3142 831.838 66.1886 831.672 61.5522C831.448 55.454 835.912 49.7663 841.664 47.643C847.418 45.5197 853.983 46.6463 859.294 49.6467C858.623 48.2125 858.284 46.6451 858.304 45.0617C858.323 43.4782 858.7 41.9196 859.407 40.5024C860.524 38.289 862.797 36.399 865.288 36.7504C866.209 36.9243 867.078 37.3039 867.832 37.8608C869.648 39.1441 871.062 40.9171 871.909 42.9732C872.757 45.0292 873.002 47.2837 872.617 49.4739C876.368 48.018 879.197 44.1244 883.179 44.2233C885.166 44.4031 887.017 45.3082 888.378 46.7659C893.465 51.7095 894.028 59.8261 892.318 66.7143C891.532 70.2743 889.947 73.6089 887.681 76.4655C886.536 77.8959 885.112 79.0795 883.497 79.9448C881.881 80.8102 880.107 81.3394 878.282 81.5006" fill="#F6AB0B"/>
<path d="M1117.36 65.347C1115.76 66.6943 1113.87 67.6454 1111.84 68.123C1112.85 70.0893 1113.39 72.265 1113.41 74.4766C1113.59 77.3057 1113.56 80.2987 1112.35 82.9551C1111.01 85.858 1108.29 87.6579 1105.43 88.8436C1102.67 90.0755 1099.63 90.5768 1096.62 90.2995C1096.42 90.2847 1096.21 90.2522 1096.02 90.2005C1094.51 91.2979 1092.74 91.958 1090.88 92.1079C1089.03 92.2577 1087.17 91.8914 1085.51 91.0496C1083.56 90.0924 1082 88.4814 1081.11 86.4959C1080.21 84.2973 1081.33 82.0691 1082.52 80.2234C1083.74 78.3675 1085.26 76.7314 1087.02 75.3847C1085.49 72.7312 1085.01 69.5946 1085.7 66.6071C1086.39 63.6197 1088.18 61.0035 1090.72 59.2858C1090.94 59.1352 1091.57 58.8871 1091.66 58.6331C1091.7 58.457 1091.68 58.2713 1091.6 58.1075C1091.08 56.2869 1090.89 54.3865 1091.05 52.4965C1091.26 50.8402 1091.91 49.2706 1092.93 47.9502C1093.89 46.7441 1095.1 45.7637 1096.47 45.0791C1097.85 44.3945 1099.36 44.0226 1100.9 43.99C1102.97 43.9132 1104.98 44.6513 1106.51 46.0454C1107.2 46.7381 1107.66 47.6255 1107.83 48.5881C1109.64 47.8753 1111.59 47.5854 1113.52 47.7405C1114.84 47.8439 1116.11 48.2243 1117.27 48.8568C1118.43 49.4892 1119.44 50.3593 1120.23 51.4098C1123.52 55.835 1121.21 62.0691 1117.36 65.3485V65.347Z" fill="#F9663F"/>
<path d="M1111.09 68.3855C1113.5 73.7794 1120.04 74.8307 1125.34 74.432C1116.15 92.2866 1154.6 91.2146 1150.14 78.1825C1149.54 76.6277 1149.08 75.0212 1148.76 73.3822C1149.13 75.3106 1152.64 72.3013 1154.48 69.7735C1159.22 63.3814 1153.63 55.752 1146.15 56.8255C1152.45 43.5778 1130.56 41.7173 1124.57 50.1189C1119.48 48.0178 1111.26 52.5346 1114.57 57.8458C1111.33 60.0518 1109.44 64.7103 1111.09 68.3855Z" fill="#4662C7"/>
<path d="M1091.33 53.4812C1086.95 44.3501 1075.69 42.85 1066.63 43.7654C1081.57 12.7517 1015.73 16.3383 1023.94 38.4232C1026.32 44.8005 1026.49 46.5709 1026.49 46.5709C1025.78 43.2841 1019.89 48.6041 1016.86 53.0294C1009.02 64.1922 1018.95 77.0353 1031.72 74.8382C1021.54 97.8238 1059.11 100.036 1069.01 85.3395C1077.86 88.7312 1091.7 80.5998 1085.8 71.6341C1091.3 67.8452 1094.33 59.7448 1091.33 53.4812ZM1217.36 15.6635C1211.8 4.07247 1197.49 2.15885 1186 3.32238C1204.99 -36.0856 1121.33 -31.5319 1131.76 -3.42995C1134.76 4.68081 1135.05 6.92372 1135.05 6.92372C1134.2 2.75243 1126.68 9.46635 1122.82 15.1231C1112.85 29.3084 1125.47 45.5949 1141.68 42.8352C1128.71 72.0386 1176.51 74.8456 1189.08 56.2025C1200.33 60.4402 1217.9 50.2018 1210.4 38.7983C1217.33 33.9153 1221.19 23.6591 1217.36 15.6635ZM1345.91 43.067C1350.3 42.624 1354.57 41.3808 1358.5 39.3992C1359.85 41.332 1361.52 43.0232 1363.43 44.4018C1366.31 46.4232 1369.64 47.7028 1373.13 48.1271C1376.62 48.5514 1380.16 48.1071 1383.43 46.8337C1387.12 45.2163 1390.56 43.0981 1393.67 40.5391C1397.06 37.9965 1400.11 35.1157 1401.47 30.9887C1403.84 23.8924 1400.41 16.3752 1395.62 11.1762C1394 9.44969 1392.24 7.85215 1390.37 6.39806C1388.81 5.0768 1387.19 3.84202 1385.49 2.69927C1385.29 -1.38933 1385.16 -5.5001 1384.69 -9.55769C1384.18 -13.9697 1382.65 -17.946 1378.86 -20.4887C1377.21 -21.5075 1375.38 -22.1916 1373.47 -22.5018C1371.56 -22.8119 1369.61 -22.742 1367.73 -22.296C1365.76 -21.8183 1363.9 -20.9513 1362.26 -19.7456C1360.63 -18.54 1359.25 -17.02 1358.21 -15.2749C1357.06 -13.4293 1356.25 -11.3983 1355.79 -9.27271C1353.53 -10.9645 1350.89 -12.1016 1348.1 -12.5929C1345.32 -13.0841 1342.45 -12.916 1339.74 -12.1018C1335.54 -10.8116 1331.72 -8.49048 1328.64 -5.34948C1326.94 -3.65439 1325.64 -1.59901 1326.09 0.943634C1326.71 3.18794 1327.73 5.30269 1329.1 7.18654C1331.28 10.5178 1334.05 13.4193 1337.29 15.7462C1334.74 16.6838 1331.8 16.9835 1329.43 17.9965C1324.87 19.8938 1321.93 23.9972 1322.28 29.0087C1323.19 40.5465 1336.23 44.0799 1345.91 43.067Z" fill="#DDDEF6"/>
<path d="M1244.64 41.0562C1240.74 32.2869 1230.1 30.5549 1221.48 31.1691C1236.49 2.16796 1173.97 3.75084 1181.15 24.9203C1183.22 31.0421 1183.4 32.7151 1183.4 32.7151C1182.82 29.5789 1177.09 34.4633 1174.07 38.5741C1166.33 48.9484 1175.39 61.3722 1187.58 59.6697C1177.26 81.1833 1212.87 84.3136 1222.65 70.6819C1230.96 74.1253 1244.3 66.8178 1238.95 58.1533C1244.24 54.6878 1247.33 47.1116 1244.64 41.0562ZM953.396 66.1356C948.956 71.0348 949.721 79.1367 953.644 84.4627C957.567 89.7887 963.898 92.8127 970.2 94.8001C973.201 95.7599 976.525 96.4952 979.525 95.4675C981.433 94.701 983.125 93.4805 984.454 91.912C986.899 89.2026 988.756 86.016 989.907 82.5531C991.059 79.0903 991.481 75.4263 991.146 71.7923C995.789 73.7547 1000.62 75.2475 1005.56 76.2486C1007.48 76.6384 1009.54 76.9529 1011.39 76.2486C1013.68 75.401 1015.2 73.2482 1016.55 71.2135C1020.6 65.1448 1024.81 58.6716 1025.03 51.3788C1025.38 41.7841 1018.28 32.8273 1009.28 29.5183C1000.28 26.2108 989.923 27.9443 981.566 32.6545C982.63 30.3963 983.168 27.9261 983.139 25.4299C983.11 22.9337 982.516 20.4765 981.4 18.2433C979.63 14.763 976.008 11.7848 972.144 12.3622C970.696 12.6354 969.329 13.2331 968.145 14.1104C965.293 16.1354 963.074 18.9282 961.746 22.1643C960.418 25.4004 960.035 28.9469 960.643 32.3917C954.815 30.0824 950.305 23.9753 944.042 24.1407C940.936 24.2308 938.107 25.9554 935.857 28.1245C927.845 35.8956 926.99 48.6487 929.676 59.4822C931.048 65.0341 933.261 70.4944 936.967 74.8459C940.674 79.1958 945.97 82.3911 951.693 82.6775M867.104 39.6697C869.097 41.348 871.455 42.535 873.991 43.1352C872.61 45.4682 872.191 48.4242 872.025 51.0717C871.808 54.6125 871.83 58.3408 873.353 61.6203C875.042 65.2438 878.432 67.4867 882.002 68.9795C885.46 70.518 889.256 71.1379 893.023 70.7794C893.276 70.7631 893.526 70.728 893.774 70.6746C895.647 72.0362 897.859 72.8547 900.167 73.0399C902.475 73.2251 904.79 72.7699 906.856 71.7244C909.296 70.5314 911.239 68.5194 912.347 66.0396C913.465 63.2932 912.086 60.5173 910.593 58.2138C909.087 55.8903 907.191 53.8446 904.988 52.1673C906.895 48.8601 907.479 44.9531 906.622 41.2327C905.765 37.5124 903.53 34.2548 900.368 32.1156C900.083 31.9192 899.333 31.6121 899.197 31.2666C899.144 31.0451 899.167 30.8133 899.265 30.6066C899.924 28.3335 900.158 25.9582 899.954 23.6003C899.695 21.5321 898.881 19.5725 897.599 17.9288C896.411 16.4099 894.898 15.1748 893.173 14.3133C891.447 13.4518 889.551 12.9855 887.622 12.9483C885.041 12.8447 882.522 13.7577 880.607 15.491C879.741 16.3436 879.151 17.4359 878.912 18.6272C876.654 17.7239 874.219 17.3467 871.793 17.5242C870.152 17.6472 868.556 18.1198 867.112 18.9103C865.668 19.7008 864.41 20.7909 863.421 22.1075C859.408 27.7863 862.28 35.5575 867.104 39.6697Z" fill="#DDDEF6"/>
<path d="M756.406 77.043C757.997 80.6001 762.333 81.2808 765.837 81.0342C759.752 92.8496 785.185 92.1379 782.243 83.5783C781.837 82.5521 781.532 81.489 781.328 80.4037C781.568 81.6795 783.872 79.6536 785.08 78.019C788.214 73.7813 784.508 68.7462 779.572 69.452C783.743 60.696 769.257 59.4587 765.319 65.0179C761.929 63.6226 756.52 66.6082 758.71 70.1047C756.564 71.5 755.312 74.5816 756.406 77.043Z" fill="#FFC400"/>
<path d="M245.192 85.8948C240.743 90.8014 241.501 98.8959 245.439 104.229C249.378 109.564 255.68 112.572 261.995 114.567C264.997 115.512 268.319 116.263 271.321 115.227C273.227 114.462 274.915 113.238 276.235 111.664C278.68 108.957 280.538 105.774 281.691 102.313C282.844 98.8529 283.268 95.1911 282.934 91.5589C287.576 93.5142 292.401 95.0045 297.337 96.0078C299.272 96.3976 301.32 96.6973 303.174 96.0078C305.477 95.1602 306.985 93.0074 308.343 90.9668C312.393 84.9055 316.594 78.416 316.82 71.1321C317.18 61.5433 310.068 52.5865 301.065 49.2642C292.064 45.9405 281.71 47.6887 273.354 52.399C274.42 50.1423 274.958 47.6727 274.929 45.1771C274.899 42.6816 274.301 40.2256 273.182 37.9951C271.411 34.5075 267.803 31.5366 263.938 32.0992C262.487 32.3758 261.116 32.973 259.925 33.8474C257.072 35.8717 254.852 38.6644 253.525 41.9008C252.197 45.1371 251.815 48.684 252.424 52.1288C246.587 49.8342 242.085 43.7124 235.814 43.8777C232.709 43.9752 229.88 45.6998 227.63 47.86C219.618 55.6415 218.763 68.3931 221.447 79.2178C222.828 84.7697 225.041 90.2315 228.74 94.574C232.439 98.9181 237.743 102.13 243.466 102.407" fill="#DDDEF6"/>
<path d="M301.3 69.2936C297.998 76.6675 289.049 78.0998 281.795 77.5446C294.368 101.957 241.795 100.479 247.894 82.6978C249.65 77.5683 249.777 76.1507 249.777 76.1507C249.297 78.7835 244.526 74.6491 241.975 71.2057C235.493 62.4748 243.138 52.04 253.355 53.5018C244.743 35.3917 274.684 32.8417 282.876 44.3353C289.867 41.4619 301.074 47.6354 296.559 54.9045C300.977 57.8458 303.565 64.2452 301.3 69.2936Z" fill="#64BFEB"/>
<path d="M272.108 119.429C273.025 117.288 274.321 115.331 275.934 113.651C275.173 112.665 274.585 111.556 274.195 110.373C273.617 108.602 273.489 106.715 273.822 104.881C274.154 103.048 274.937 101.326 276.099 99.8704C277.496 98.2653 279.107 96.8593 280.886 95.6918C282.716 94.4027 284.637 93.2923 286.933 93.2466C290.886 93.1639 294.141 96.0757 296.017 99.3079C296.632 100.396 297.164 101.53 297.607 102.7C298.033 103.69 298.402 104.705 298.71 105.738C300.743 106.488 302.806 107.2 304.779 108.071C306.924 109.024 308.694 110.419 309.378 112.73C309.638 113.725 309.698 114.763 309.552 115.782C309.406 116.8 309.059 117.78 308.531 118.663C307.981 119.579 307.256 120.378 306.395 121.011C305.535 121.645 304.557 122.101 303.519 122.354C302.412 122.637 301.265 122.731 300.127 122.632C300.628 124.043 300.792 125.552 300.606 127.038C300.419 128.525 299.889 129.947 299.055 131.191C297.728 133.099 295.947 134.646 293.871 135.692C293.351 136.036 292.751 136.239 292.13 136.283C291.508 136.326 290.886 136.208 290.323 135.94C289.287 135.278 288.38 134.434 287.645 133.449C286.317 131.82 285.3 129.961 284.644 127.965C283.797 129.09 283.144 130.509 282.289 131.588C281.525 132.586 280.459 133.308 279.249 133.646C278.039 133.984 276.753 133.92 275.582 133.464C269.821 131.303 270.084 124.124 272.108 119.429Z" fill="#EF76A4"/>
<path d="M92.2676 59.0462C88.368 50.2754 77.7368 48.5434 69.1181 49.1577C84.1214 20.1565 21.5875 21.7394 28.7784 42.9089C30.8456 49.0233 31.0376 50.711 31.0376 50.711C30.4617 47.5763 24.7326 52.4519 21.7205 56.5626C13.9685 66.9384 23.0345 79.3608 35.2162 77.6509C24.895 99.1807 60.5127 102.31 70.2949 88.6705C78.6006 92.1065 91.9458 84.8078 86.5888 76.1345C91.8483 72.6764 94.9535 65.1001 92.2676 59.0462Z" fill="#DDDEF6"/>
<path d="M109.115 89.3764C106.422 84.6957 104.876 77.5077 110.615 74.4631C107.764 69.961 105.529 63.6901 107.119 58.3553C113.046 49.3527 127.374 48.3781 130.803 60.1788C136.804 57.9285 139.723 64.1847 139.745 69.2641C145.889 70.9592 156.37 73.8326 153.533 82.2578C149.91 92.9688 135.837 99.8038 126.76 91.1837C123.039 98.1383 112.454 95.197 109.115 89.3764Z" fill="#859400"/>
<path d="M138.494 76.6678C141.373 70.667 148.815 69.6467 154.788 70.2462C144.93 49.7737 188.389 52.1362 182.964 66.7202C182.239 68.4588 181.671 70.2591 181.269 72.0993C181.741 69.9391 185.62 73.4503 187.622 76.337C192.799 83.7051 186.251 92.1658 177.825 90.7409C184.578 105.91 159.732 107.366 153.242 97.6807C147.39 99.931 138.239 94.5519 142.169 88.6338C138.509 86.1133 136.498 80.749 138.494 76.6678Z" fill="#DDDEF6"/>
<path d="M229.409 71.5145C226.748 71.2975 224.176 70.4514 221.907 69.0457C221.232 71.7242 219.364 74.1325 217.601 76.1879C215.215 78.9047 212.514 81.5744 209.042 82.8427C205.231 84.2528 201.135 83.4127 197.489 81.9125C193.894 80.5285 190.714 78.2447 188.254 75.2798C188.089 75.0775 187.938 74.8663 187.789 74.6493C185.461 74.2797 183.28 73.2755 181.485 71.7469C179.69 70.2183 178.351 68.2246 177.616 65.9848C176.719 63.3635 176.767 60.5109 177.752 57.9213C178.929 55.1306 181.93 54.1251 184.668 53.5403C187.431 52.9456 190.276 52.8362 193.077 53.217C194.085 49.4534 196.481 46.211 199.782 44.1415C203.083 42.072 207.046 41.3289 210.872 42.0615C211.209 42.1295 211.983 42.4513 212.312 42.317C212.643 42.1826 212.612 42.0025 212.74 41.7913C213.9 39.6765 215.441 37.7946 217.285 36.2409C218.966 34.937 220.967 34.1101 223.078 33.8474C225.03 33.61 227.011 33.8102 228.876 34.4336C230.743 35.0557 232.447 36.0857 233.866 37.4488C235.798 39.2434 236.95 41.7235 237.076 44.3576C237.07 45.5905 236.699 46.7939 236.011 47.8157C238.292 48.7919 240.321 50.275 241.944 52.1524C243.033 53.4248 243.84 54.9139 244.311 56.5213C244.782 58.1288 244.906 59.8178 244.675 61.4769C243.534 68.4979 235.853 72.0239 229.409 71.5145Z" fill="#F9663F"/>
<path d="M201.712 39.6682C197.338 30.546 186.078 29.0459 177.016 29.9613C191.959 -1.05829 126.116 2.5268 134.33 24.6117C136.707 30.9964 136.873 32.7668 136.873 32.7668C136.183 29.4741 130.286 34.8 127.256 39.2179C119.415 50.3807 129.341 63.2239 142.109 61.0267C131.937 84.0124 169.506 86.2257 179.401 71.5295C188.253 74.9197 202.094 66.7957 196.191 57.8226C201.689 54.0352 204.719 45.9702 201.712 39.6682Z" fill="#DDDEF6"/>
<path d="M751.065 81.8903C753.519 88.1155 760.871 89.6304 766.887 89.4651C752.633 105.566 790.33 106.893 794.772 94.9948C793.512 90.6818 793.009 90.5681 793.009 90.5681C796.257 90.8767 797.9 88.4758 800.105 85.7072C805.807 78.7157 799.866 69.8047 791.35 70.6212C799.16 55.9545 774.472 52.7223 767.262 61.9272C761.583 59.2856 752.086 63.9826 755.553 70.1782C751.764 72.4285 749.378 77.5994 751.065 81.8903Z" fill="#EF76A4"/>
<path d="M852.124 50.5769C854.422 48.5107 856.326 46.0448 857.743 43.2989C860.873 44.3795 864.277 44.3687 867.401 43.2681C870.524 42.1675 873.183 40.042 874.945 37.2377C876.371 34.8019 877.449 32.1781 878.147 29.4429C878.995 26.5931 879.565 23.7124 878.642 20.8094C877.044 15.8054 872.003 12.9615 867.15 11.9943C865.512 11.6798 863.851 11.4997 862.184 11.4539C860.753 11.3506 859.318 11.3255 857.884 11.3786C856.085 9.12834 854.307 6.87805 852.371 4.74737C850.271 2.46018 847.758 0.831538 844.547 0.958522C843.195 1.06019 841.876 1.42732 840.666 2.03893C839.456 2.65054 838.378 3.49463 837.495 4.52295C836.582 5.60711 835.894 6.86137 835.469 8.21323C835.044 9.56509 834.891 10.9877 835.02 12.3989C835.129 13.9224 835.502 15.4152 836.123 16.8109C834.139 16.7875 832.178 17.2268 830.393 18.0939C828.609 18.961 827.052 20.232 825.844 21.8061C823.994 24.2972 822.798 27.2121 822.364 30.2845C822.087 31.9796 822.184 33.6747 823.519 34.9047C824.798 35.9206 826.248 36.6983 827.802 37.2007C830.413 38.1993 833.185 38.7079 835.98 38.7009C834.937 40.2764 833.376 41.7013 832.446 43.2015C831.509 44.581 831.05 46.2295 831.14 47.8947C831.229 49.5598 831.862 51.1498 832.941 52.4212C838.193 58.5282 847.045 55.1469 852.124 50.5769ZM92.5362 43.7419C89.5344 41.5596 85.0339 42.4676 82.3628 44.9734C79.6931 47.4791 78.3199 51.1838 77.5846 54.8309C77.2391 56.5777 77.0073 58.4618 77.7721 60.0816C78.3009 61.1018 79.074 61.9753 80.0224 62.6242C81.6774 63.8302 83.5649 64.6791 85.5654 65.1171C87.5658 65.555 89.6354 65.5725 91.6429 65.1683C90.8279 67.8749 90.2845 70.6567 90.0232 73.4725C89.8175 74.5488 89.9052 75.6607 90.2771 76.6914C90.8781 77.9288 92.176 78.6405 93.3986 79.2341C97.0221 81.1314 100.901 83.0746 104.966 82.797C110.338 82.4219 114.914 77.9509 116.219 72.7298C117.524 67.5087 115.949 61.8372 112.829 57.4784C114.149 57.9317 115.554 58.0816 116.94 57.9167C118.326 57.7518 119.656 57.2764 120.833 56.526C122.671 55.3329 124.111 53.1343 123.571 51.0184C123.333 50.224 122.918 49.4931 122.355 48.8818C121.055 47.4157 119.365 46.3485 117.482 45.8041C115.599 45.2597 113.601 45.2604 111.718 45.8062C112.649 42.4145 115.792 39.5337 115.312 36.0535C114.969 34.3255 114.002 32.7842 112.595 31.7242C107.78 27.7256 100.592 27.9737 94.7334 30.1561C91.6734 31.1686 88.8882 32.8734 86.5945 35.138C85.4569 36.2736 84.5619 37.6285 83.9636 39.1204C83.3654 40.6123 83.0764 42.2103 83.1143 43.8172M684.351 83.7509C688.738 83.2995 693.005 82.0484 696.941 80.0595C698.292 81.9889 699.958 83.6775 701.869 85.0547C704.744 87.0764 708.074 88.3563 711.563 88.7805C715.052 89.2048 718.592 88.7603 721.868 87.4866C725.555 85.8695 729 83.7513 732.108 81.192C735.499 78.6493 738.538 75.7759 739.91 71.649C742.274 64.5452 738.845 57.0354 734.058 51.8453C732.436 50.113 730.68 48.51 728.808 47.0509C727.252 45.7317 725.624 44.4994 723.932 43.3595C723.736 39.2709 723.594 35.1528 723.129 31.0952C722.627 26.6906 721.088 22.7142 717.292 20.1716C715.649 19.1526 713.822 18.4679 711.914 18.1565C710.007 17.8451 708.056 17.9132 706.175 18.3569C704.212 18.8382 702.364 19.7048 700.739 20.9063C699.113 22.1078 697.743 23.6202 696.707 25.3558C695.561 27.201 694.743 29.2314 694.292 31.3565C692.025 29.6595 689.392 28.5177 686.604 28.0227C683.816 27.5278 680.951 27.6936 678.238 28.5067C674.032 29.7958 670.215 32.1165 667.135 35.2576C665.395 36.9527 664.09 39.0095 664.592 41.5596C665.206 43.8023 666.222 45.9147 667.592 47.7936C669.775 51.1251 672.552 54.0266 675.784 56.3532C673.242 57.2982 670.3 57.5906 667.931 58.6035C663.369 60.5024 660.428 64.6057 660.774 69.6246C661.629 81.2304 674.667 84.7638 684.351 83.7509Z" fill="#DDDEF6"/>
<path d="M735.462 38.2432C737.247 39.8208 738.631 41.8009 739.498 44.0195C741.419 42.4602 744.044 41.6939 746.416 41.1993C749.574 40.5392 752.957 40.0741 756.115 41.0191C759.603 42.0616 762.049 44.8449 763.902 47.8837C765.74 50.8028 766.797 54.1454 766.971 57.5906V58.2964C768.445 59.8108 769.473 61.7019 769.942 63.7623C770.412 65.8226 770.305 67.9725 769.633 69.976C768.872 72.3405 767.306 74.3635 765.208 75.6932C762.875 77.0576 760.174 76.1731 757.908 75.1218C755.609 74.0808 753.51 72.6467 751.705 70.8841C748.959 73.0409 745.499 74.0789 742.02 73.7893C738.541 73.4998 735.3 71.9043 732.949 69.3233C732.732 69.0989 732.365 68.4758 732.049 68.3783C731.842 68.3562 731.634 68.4079 731.464 68.529C729.49 69.407 727.372 69.9155 725.215 70.0292C723.312 70.0673 721.435 69.5875 719.784 68.6412C718.254 67.7675 716.937 66.5631 715.931 65.116C714.926 63.6689 714.255 62.0155 713.97 60.2765C713.543 57.9509 714.052 55.551 715.387 53.5994C716.047 52.7171 716.956 52.0535 717.998 51.6947C716.887 49.7693 716.228 47.6171 716.071 45.4001C715.97 43.9007 716.19 42.3971 716.716 40.9895C717.242 39.582 718.063 38.3029 719.123 37.2377C723.708 32.8345 731.118 34.4174 735.462 38.2432Z" fill="#F6AB0B"/>
<path d="M373.452 125.264C368.771 124.012 363.28 120.426 364.975 114.837C360.309 113.787 354.945 111.199 352.559 106.871C350.624 97.403 359.063 87.7108 368.733 92.9999C371.163 87.7478 376.94 89.8858 380.173 93.0885C385.139 90.2609 393.617 85.4606 397.127 92.5791C401.629 101.687 397.022 114.934 385.801 115.234C387.832 121.972 379.221 126.818 373.452 125.264Z" fill="#859400"/>
<path d="M389.529 100.119C385.087 104.928 386.88 112.054 389.588 117.276C367.391 115.708 385.268 154.41 396.574 144.2C397.878 142.909 399.296 141.739 400.811 140.703C399.004 141.904 403.609 144.178 406.994 144.941C415.605 147.005 420.946 137.966 416.603 130.809C432.851 131.454 425.192 108.303 414.015 105.895C413.932 99.7672 405.762 93.3885 401.779 99.1441C398.171 96.7049 392.59 96.8112 389.529 100.119Z" fill="#4662C7"/>
<path d="M446.588 119.39C447.991 120.641 449.08 122.204 449.768 123.953C451.39 122.789 453.26 122.018 455.23 121.701C457.729 121.184 460.4 120.854 462.86 121.56C465.613 122.407 467.571 124.56 469.004 126.968C470.447 129.264 471.281 131.89 471.427 134.598V135.159C472.607 136.356 473.433 137.857 473.811 139.495C474.19 141.134 474.107 142.845 473.572 144.439C472.96 146.297 471.726 147.888 470.077 148.941C468.231 150.022 466.093 149.323 464.308 148.498C462.492 147.656 460.835 146.51 459.409 145.108C457.237 146.817 454.498 147.639 451.744 147.408C448.99 147.177 446.426 145.909 444.569 143.862C444.398 143.681 444.104 143.179 443.858 143.111C443.698 143.096 443.537 143.133 443.4 143.216C441.856 143.917 440.194 144.324 438.501 144.417C437 144.44 435.519 144.065 434.21 143.33C433.005 142.635 431.969 141.682 431.177 140.539C430.385 139.396 429.855 138.091 429.627 136.719C429.302 134.891 429.7 133.009 430.737 131.469C431.26 130.771 431.982 130.248 432.807 129.969C431.939 128.448 431.426 126.75 431.307 125.003C431.227 123.818 431.401 122.63 431.816 121.517C432.232 120.405 432.879 119.393 433.715 118.55C437.315 115.114 443.152 116.368 446.588 119.392V119.39Z" fill="#F6AB0B"/>
<path d="M374.719 88.0403C371.717 94.1237 364.095 95.0023 358.012 94.2817C367.704 115.287 323.503 112.151 329.272 97.4032C330.046 95.6341 330.659 93.7987 331.103 91.9192C330.592 94.1252 326.691 90.4781 324.703 87.4777C319.558 79.8483 326.398 71.3788 334.929 72.9838C328.319 57.4252 353.578 56.368 360.105 66.3452C366.106 64.1776 375.296 69.7353 371.23 75.7302C374.839 78.3629 376.767 83.8469 374.719 88.0403Z" fill="#DDDEF6"/>
<path d="M533.616 159.144C528.366 157.742 522.229 153.742 524.141 147.516C518.944 146.345 512.964 143.465 510.302 138.633C508.147 128.086 517.556 117.276 528.305 123.165C531.006 117.328 537.451 119.699 541.058 123.27C546.588 120.111 556.063 114.793 560.001 122.7C565.005 132.873 559.889 147.629 547.368 147.95C549.656 155.482 540.069 160.885 533.616 159.143V159.144Z" fill="#859400"/>
<path d="M541.479 110.186C542.555 107.653 544.079 105.335 545.979 103.345C544.173 101.008 543.21 98.1286 543.245 95.175C543.281 92.2215 544.313 89.3664 546.174 87.0731C547.828 85.1747 549.734 83.5115 551.838 82.1296C553.999 80.6294 556.273 79.2946 558.981 79.234C563.669 79.144 567.518 82.6242 569.739 86.4131C570.468 87.708 571.097 89.0561 571.621 90.4485C572.118 91.6253 572.552 92.8258 572.919 94.0499C575.328 94.8974 577.758 95.7376 580.098 96.8037C582.641 97.9288 584.719 99.5796 585.537 102.317C585.842 103.489 585.912 104.71 585.742 105.908C585.572 107.107 585.166 108.261 584.547 109.301C583.896 110.385 583.037 111.328 582.018 112.077C580.999 112.825 579.842 113.363 578.613 113.66C577.299 113.999 575.936 114.108 574.585 113.982C575.18 115.66 575.375 117.454 575.153 119.22C574.932 120.986 574.3 122.677 573.309 124.155C571.744 126.425 569.637 128.268 567.18 129.518C565.83 130.268 564.382 130.636 562.942 129.857C561.72 129.07 560.648 128.071 559.776 126.908C558.192 124.986 556.977 122.789 556.19 120.426C555.155 121.755 554.427 123.464 553.399 124.665C552.501 125.85 551.242 126.711 549.811 127.117C548.381 127.523 546.857 127.452 545.47 126.915C538.771 124.26 539.078 115.791 541.479 110.186Z" fill="#019AE9"/>
<path d="M427.983 87.8304C426.211 89.3381 424.177 90.5077 421.982 91.2811C422.476 93.7321 422.121 96.2782 420.976 98.5007C419.831 100.723 417.963 102.49 415.68 103.51C413.712 104.319 411.643 104.854 409.529 105.1C407.316 105.437 405.104 105.573 403.032 104.582C399.462 102.887 397.857 98.8204 397.623 95.0921C397.564 93.84 397.603 92.5864 397.737 91.3416C397.805 90.2653 397.93 89.1932 398.112 88.1301C396.61 86.5546 395.11 84.9939 393.73 83.321C392.23 81.521 391.284 79.473 391.705 77.0958C392.141 75.0758 393.36 73.3111 395.096 72.1892C396.922 71.0423 399.129 70.6674 401.232 71.1467C402.358 71.3879 403.434 71.8215 404.413 72.4284C404.596 70.9424 405.124 69.5198 405.955 68.2745C406.786 67.0292 407.898 65.9957 409.2 65.2567C411.245 64.1371 413.536 63.5421 415.868 63.5247C416.491 63.4412 417.126 63.5218 417.709 63.7585C418.292 63.9952 418.803 64.3797 419.192 64.8743C419.827 65.9283 420.262 67.0907 420.475 68.3028C420.947 70.3553 421.036 72.4756 420.737 74.559C422.012 73.9448 423.22 72.9245 424.488 72.3841C425.616 71.8313 426.893 71.6611 428.126 71.8993C429.359 72.1375 430.481 72.7711 431.322 73.7041C435.32 78.2357 431.855 84.4993 427.983 87.8304Z" fill="#EF76A4"/>
<path d="M234.899 123.75C233.204 122.768 232.649 120.412 233.309 118.558C234.065 116.729 235.377 115.183 237.059 114.14C237.777 113.536 238.668 113.176 239.603 113.112C240.205 113.156 240.787 113.347 241.298 113.668C242.235 114.213 243.048 114.946 243.687 115.821C244.327 116.697 244.778 117.695 245.012 118.753C246.143 117.784 247.369 116.932 248.672 116.21C249.161 115.885 249.73 115.702 250.316 115.679C251.04 115.783 251.711 116.12 252.228 116.638C253.924 117.988 255.695 119.429 256.43 121.461C256.851 122.832 256.84 124.298 256.4 125.663C255.96 127.027 255.111 128.224 253.969 129.09C252.812 129.926 251.489 130.503 250.09 130.782C248.691 131.062 247.248 131.038 245.859 130.712C246.362 131.252 246.736 131.899 246.954 132.604C247.17 133.31 247.224 134.056 247.112 134.785C247.122 135.111 247.067 135.435 246.951 135.739C246.836 136.043 246.661 136.321 246.437 136.558C246.214 136.794 245.945 136.984 245.648 137.116C245.351 137.248 245.03 137.32 244.705 137.328C244.368 137.335 244.034 137.276 243.721 137.155C242.736 136.824 241.865 136.221 241.209 135.415C240.553 134.609 240.139 133.633 240.015 132.602C238.59 133.78 237.87 135.918 236.077 136.427C235.17 136.635 234.218 136.499 233.406 136.045C230.443 134.545 229.04 131.048 228.823 127.748C228.665 126.053 228.893 124.345 229.49 122.751C229.798 121.959 230.263 121.237 230.855 120.627C231.448 120.017 232.157 119.533 232.941 119.203" fill="#05946B"/>
<path d="M621.906 114.386C618.604 121.755 609.662 123.187 602.401 122.639C614.966 147.05 562.393 145.579 568.5 127.8C570.256 122.654 570.383 121.236 570.383 121.236C569.896 123.869 565.132 119.736 562.581 116.3C556.093 107.559 563.737 97.1328 573.962 98.5961C565.342 80.4787 595.282 77.9272 603.481 89.4207C610.473 86.5474 621.673 92.7282 617.157 99.9988C621.583 102.931 624.179 109.301 621.906 114.386Z" fill="#64BFEB"/>
<path d="M104.21 63.7874C102.436 65.2934 100.402 66.4629 98.2075 67.2382C98.4538 68.4736 98.4869 69.7421 98.305 70.9886C98.02 72.8216 97.2858 74.5556 96.1679 76.036C95.05 77.5163 93.5831 78.6971 91.8982 79.4729C89.9302 80.2821 87.8605 80.8172 85.7469 81.0632C83.5409 81.4087 81.3216 81.5283 79.2574 80.539C75.6796 78.8425 74.0746 74.7775 73.8413 71.0492C73.7822 69.797 73.8207 68.5434 73.9536 67.2987C74.0215 66.2208 74.1499 65.1488 74.3374 64.0872C72.8357 62.5117 71.3356 60.9509 69.9476 59.2928C68.4474 57.4766 67.5024 55.4375 67.9232 53.0513C68.3593 51.0339 69.5787 49.2721 71.3134 48.1536C72.2188 47.5814 73.2286 47.1946 74.2845 47.0154C75.3404 46.8362 76.4214 46.8682 77.4648 47.1097C78.5849 47.3519 79.6554 47.7834 80.6305 48.3854C80.8166 46.9013 81.3469 45.4813 82.1794 44.2387C83.0118 42.996 84.1233 41.9652 85.425 41.2285C87.4695 40.1179 89.759 39.5352 92.0857 39.5334C92.7079 39.4483 93.3416 39.5266 93.9244 39.7606C94.5072 39.9946 95.019 40.3764 95.4095 40.8682C96.0467 41.924 96.4818 43.0892 96.6926 44.3042C97.1657 46.356 97.2549 48.4776 96.9555 50.5619C98.2445 49.9461 99.4375 48.9258 100.706 48.3854C101.835 47.8345 103.113 47.6654 104.347 47.9034C105.581 48.1415 106.704 48.7739 107.547 49.7055C111.576 54.2001 108.109 60.4932 104.21 63.7874ZM502.725 182.571C502.508 184.911 500.212 186.652 497.879 186.9C495.546 187.147 493.243 186.209 491.209 185.04C490.186 184.549 489.345 183.745 488.809 182.744C488.556 182.065 488.47 181.334 488.562 180.613C488.684 179.325 489.073 178.077 489.703 176.947C490.333 175.817 491.191 174.831 492.222 174.05C490.602 173.302 489.059 172.397 487.615 171.348C487.02 170.986 486.535 170.468 486.213 169.849C485.968 169.012 485.994 168.119 486.288 167.297C486.882 164.784 487.601 162.144 489.439 160.328C491.855 157.966 495.892 157.642 498.899 159.196C500.381 160.039 501.665 161.189 502.667 162.568C503.67 163.947 504.367 165.523 504.713 167.193C505.049 166.378 505.566 165.65 506.223 165.063C506.88 164.476 507.662 164.045 508.509 163.802C509.838 163.433 511.465 163.667 512.261 164.806C512.543 165.261 512.715 165.775 512.763 166.308C512.914 167.538 512.712 168.786 512.181 169.905C511.649 171.025 510.811 171.97 509.762 172.631C511.765 173.605 514.436 173.322 515.892 175.002C516.567 175.884 516.893 176.985 516.807 178.093C516.686 182.047 513.559 185.317 510.055 187.215C508.294 188.237 506.324 188.843 504.293 188.987C503.279 189.049 502.263 188.907 501.305 188.567C500.347 188.228 499.468 187.699 498.719 187.012" fill="#F6AB0B"/>
<path d="M621.531 123.389C623.384 119.527 628.147 118.889 631.988 119.279C625.657 106.15 653.519 107.665 650.046 117.028C649.577 118.143 649.21 119.298 648.951 120.479C649.25 119.091 651.741 121.327 653.032 123.211C656.34 127.936 652.139 133.383 646.737 132.436C651.067 142.189 635.146 143.097 630.984 136.892C627.232 138.319 621.38 134.89 623.879 131.087C621.531 129.467 620.27 126.052 621.531 123.389Z" fill="#F9663F"/>
<path d="M94.2697 43.0599C97.2095 36.9234 104.772 35.9178 110.863 36.5335C100.826 15.6933 145.072 18.1016 139.55 32.9396C138.808 34.7094 138.225 36.5423 137.811 38.4161C138.29 36.2175 142.243 39.7894 144.276 42.7602C149.529 50.2611 142.881 58.8592 134.299 57.4106C141.164 72.8643 115.882 74.3572 109.243 64.4775C103.309 66.7278 93.9847 61.3043 97.9906 55.2726C94.2845 52.7152 92.2438 47.2903 94.2697 43.0599Z" fill="#4662C7"/>
<path d="M480.451 121.199C483.391 115.063 490.953 114.057 497.045 114.673C487 93.8325 531.254 96.2408 525.732 111.079C525.004 112.852 524.437 114.688 524.037 116.563C524.509 114.312 528.463 117.929 530.504 120.899C535.755 128.4 529.109 136.998 520.518 135.557C527.383 150.996 502.108 152.504 495.462 142.624C489.528 144.874 480.203 139.435 484.209 133.412C480.496 130.853 478.426 125.429 480.451 121.199Z" fill="#05946B"/>
<path d="M36.3116 61.6497C35.9014 59.6022 35.9788 57.4868 36.5375 55.4747C34.326 55.4111 32.1598 54.8333 30.2105 53.787C27.656 52.5718 25.0424 51.1159 23.3296 48.783C21.4396 46.2403 21.1739 42.955 21.4987 39.8793C21.7627 36.8611 22.8001 33.9619 24.5109 31.4614C24.6142 31.2901 24.7471 31.1247 24.88 30.9668C24.6459 29.1311 24.9218 27.2665 25.6774 25.5773C26.4427 23.8912 27.6524 22.4452 29.1768 21.3942C30.9584 20.1419 33.1178 19.5432 35.2898 19.6991C37.6479 19.9767 39.0344 22.0247 40.1005 23.9368C41.152 25.8917 41.8574 28.0139 42.1854 30.2093C45.2486 30.1458 48.2216 31.2474 50.5039 33.2915C52.7862 35.3356 54.2075 38.1698 54.4806 41.2215C54.4806 41.4991 54.429 42.1517 54.6018 42.3614C54.737 42.4828 54.908 42.5569 55.0891 42.5725C56.9395 42.9943 58.6951 43.7575 60.2659 44.8228C61.6156 45.8036 62.6756 47.1304 63.3342 48.6634C63.942 50.0816 64.2258 51.6177 64.1647 53.1595C64.1037 54.7013 63.6994 56.2101 62.9812 57.5759C62.0512 59.4251 60.4358 60.8382 58.4792 61.5139C57.547 61.7746 56.5589 61.7567 55.6368 61.4622C55.3952 63.393 54.7208 65.2443 53.6641 66.8782C52.9434 67.9821 51.9946 68.9188 50.8816 69.6253C49.7686 70.3319 48.5172 70.7918 47.2116 70.9742C41.6375 71.6416 37.3245 66.6228 36.3116 61.6497Z" fill="#64BFEB"/>
<path d="M857.75 50.8379C858.642 48.7024 859.913 46.7456 861.5 45.0616C859.96 43.0915 859.136 40.655 859.166 38.154C859.196 35.653 860.078 33.237 861.666 31.3045C863.063 29.6998 864.673 28.2938 866.451 27.1258C868.282 25.8205 870.24 24.7249 872.522 24.6792C876.474 24.5965 879.73 27.5156 881.605 30.7419C882.222 31.8293 882.754 32.9628 883.196 34.1321C883.624 35.1246 883.992 36.1418 884.299 37.1783C886.332 37.9284 888.395 38.6327 890.367 39.5038C892.513 40.4562 894.285 41.8516 894.967 44.1698C895.226 45.1645 895.284 46.2009 895.139 47.2184C894.993 48.236 894.647 49.2144 894.119 50.0967C893.573 51.01 892.852 51.8063 891.997 52.4398C891.142 53.0733 890.17 53.5315 889.137 53.7881C888.031 54.071 886.885 54.1643 885.747 54.0642C886.25 55.4755 886.415 56.9851 886.229 58.4717C886.042 59.9584 885.51 61.3805 884.674 62.6239C883.344 64.5259 881.566 66.0719 879.498 67.1259C878.977 67.479 878.374 67.6909 877.746 67.7409C877.119 67.7908 876.489 67.6771 875.919 67.4109C874.884 66.7482 873.977 65.9044 873.241 64.9199C871.911 63.2923 870.894 61.4331 870.24 59.436C869.393 60.5611 868.74 61.9786 867.885 63.0521C867.123 64.0508 866.056 64.7745 864.846 65.1141C863.637 65.4537 862.349 65.3907 861.179 64.9347C855.461 62.7435 855.724 55.5733 857.75 50.8379ZM448.522 119.346C449.446 117.266 450.746 115.374 452.355 113.765C450.829 111.88 450.01 109.522 450.038 107.097C450.067 104.672 450.943 102.333 452.513 100.486C453.916 98.93 455.526 97.5746 457.299 96.4578C459.13 95.2116 461.051 94.1322 463.345 94.0953C467.307 94.02 470.563 96.8255 472.431 99.9454C473.051 101.001 473.585 102.105 474.028 103.247C474.442 104.207 474.778 105.181 475.131 106.179C477.165 106.93 479.22 107.59 481.2 108.43C483.338 109.345 485.101 110.682 485.8 112.932C486.051 113.889 486.106 114.887 485.96 115.866C485.814 116.844 485.471 117.783 484.952 118.625C483.808 120.423 482.003 121.698 479.926 122.174C478.818 122.454 477.672 122.546 476.534 122.444C477.032 123.804 477.195 125.265 477.008 126.701C476.822 128.138 476.291 129.508 475.462 130.696C474.122 132.557 472.344 134.059 470.285 135.07C469.76 135.413 469.157 135.619 468.532 135.668C467.907 135.718 467.279 135.61 466.706 135.355C465.675 134.718 464.766 133.903 464.022 132.947C462.702 131.385 461.684 129.591 461.02 127.658C460.172 128.738 459.52 130.141 458.665 131.138C457.882 132.108 456.813 132.807 455.61 133.134C454.408 133.462 453.132 133.401 451.966 132.961C446.234 130.838 446.452 123.914 448.522 119.346Z" fill="#019AE9"/>
<path d="M412.65 92.5807C415.41 86.3673 422.949 85.1447 429.049 85.5729C418.405 65.0399 462.703 66.1576 457.616 81.1462C456.927 82.9386 456.399 84.7893 456.041 86.6759C456.453 84.4256 460.541 87.9133 462.635 90.8251C468.119 98.1754 461.705 106.93 453.085 105.768C460.392 121.027 435.171 123.225 428.238 113.563C422.357 115.999 412.897 110.816 416.693 104.68C412.98 102.234 410.729 96.8716 412.65 92.5807Z" fill="#05946B"/>
<path d="M316.956 96.1658C319.776 99.2784 319.296 104.417 316.791 107.823C314.285 111.228 310.272 113.127 306.289 114.394C304.376 115.002 302.274 115.482 300.355 114.815C299.141 114.333 298.064 113.56 297.219 112.564C295.671 110.846 294.496 108.826 293.767 106.631C293.038 104.436 292.77 102.114 292.981 99.8114C290.029 101.057 286.96 102.004 283.82 102.639C282.608 102.977 281.326 102.977 280.114 102.639C278.614 102.107 277.691 100.734 276.829 99.4349C274.286 95.5811 271.578 91.4541 271.413 86.8176C271.187 80.7121 275.651 75.0243 281.405 72.9084C287.159 70.794 293.724 71.9117 299.035 74.9047C298.362 73.471 298.022 71.9034 298.042 70.3197C298.061 68.736 298.439 67.1772 299.147 65.7604C300.265 63.5544 302.537 61.6644 305.028 62.0099C305.949 62.1829 306.818 62.5626 307.571 63.1203C309.386 64.4038 310.8 66.1765 311.648 68.2322C312.495 70.2878 312.741 72.5418 312.358 74.732C316.108 73.2776 318.936 69.3839 322.92 69.4813C324.907 69.658 326.759 70.5637 328.119 72.024C333.205 76.9601 333.768 85.0856 332.057 91.9723C331.272 95.5328 329.687 98.8677 327.42 101.724C326.273 103.14 324.852 104.31 323.242 105.165C321.633 106.019 319.867 106.541 318.052 106.698" fill="#F6AB0B"/>
<path d="M557.119 90.5843C555.526 91.9299 553.636 92.8783 551.605 93.3513C552.617 95.3187 553.156 97.4945 553.181 99.7065C553.361 102.541 553.332 105.527 552.124 108.182C550.78 111.086 548.057 112.888 545.199 114.079C542.434 115.304 539.403 115.802 536.392 115.526C536.187 115.515 535.983 115.482 535.784 115.43C534.283 116.528 532.506 117.189 530.652 117.338C528.798 117.488 526.939 117.121 525.281 116.278C523.327 115.325 521.769 113.716 520.878 111.732C519.977 109.526 521.088 107.305 522.288 105.461C523.5 103.602 525.023 101.965 526.789 100.622C525.256 97.9668 524.785 94.8296 525.471 91.8414C526.157 88.8533 527.95 86.2358 530.488 84.5156C530.714 84.365 531.335 84.1169 531.425 83.863C531.47 83.6864 531.449 83.4996 531.366 83.3373C530.844 81.5152 530.657 79.6134 530.818 77.7264C531.028 76.072 531.678 74.5043 532.701 73.1874C533.653 71.9717 534.865 70.9835 536.247 70.2944C537.629 69.6053 539.147 69.2327 540.691 69.2036C542.758 69.1209 544.774 69.8568 546.302 71.2516C546.993 71.943 547.454 72.831 547.622 73.7943C549.431 73.0848 551.378 72.795 553.315 72.9467C554.629 73.0493 555.906 73.4293 557.062 74.0618C558.218 74.6943 559.227 75.5649 560.022 76.616C563.285 81.0634 560.983 87.2915 557.119 90.5843Z" fill="#F9663F"/>
<path d="M550.857 93.6145C553.273 99.0084 559.814 100.058 565.11 99.661C555.92 117.516 594.367 116.444 589.912 103.411C589.311 101.855 588.849 100.249 588.531 98.6112C588.899 100.54 592.401 97.5303 594.247 95.0025C598.988 88.6104 593.4 80.981 585.921 82.0545C592.221 68.8068 570.324 66.9389 564.338 75.3479C559.251 73.2468 551.03 77.7636 554.337 83.0748C551.098 85.2498 549.206 89.9393 550.857 93.6145Z" fill="#4662C7"/>
<path d="M531.096 78.7085C526.722 69.5789 515.462 68.0772 506.399 68.9927C521.343 37.973 455.499 41.5581 463.714 63.6446C466.084 70.0292 466.257 71.7996 466.257 71.7996C465.551 68.5128 459.663 73.8328 456.624 78.2581C448.785 89.4209 458.71 102.264 471.478 100.067C461.313 123.053 498.883 125.257 508.77 110.568C517.63 113.96 531.471 105.828 525.559 96.8628C531.074 93.0739 534.104 85.003 531.096 78.7085ZM657.128 40.8922C651.576 29.3012 637.262 27.3876 625.77 28.5585C644.757 -10.8569 561.097 -6.30316 571.531 21.8062C574.532 29.9169 574.809 32.1598 574.809 32.1598C573.962 27.9885 566.445 34.7025 562.589 40.3666C552.62 54.5519 565.237 70.831 581.457 68.0787C568.478 97.2836 616.28 100.089 628.846 81.446C640.099 85.6852 657.659 75.4453 650.173 64.0418C657.097 59.1514 660.961 48.8893 657.128 40.8922ZM785.686 68.3031C790.071 67.8523 794.336 66.6064 798.274 64.6265C799.624 66.5604 801.29 68.2526 803.203 69.632C806.078 71.6529 809.409 72.9322 812.898 73.3562C816.387 73.7802 819.927 73.3358 823.203 72.0624C826.89 70.4382 830.336 68.3125 833.443 65.7457C836.834 63.2016 839.872 60.3223 841.245 56.2027C843.609 49.099 840.18 41.5818 835.393 36.3828C833.771 34.6553 832.015 33.0577 830.143 31.6046C828.587 30.2835 826.959 29.0511 825.265 27.9132C825.063 23.8172 824.929 19.7065 824.464 15.6474C823.953 11.2369 822.423 7.26793 818.627 4.72529C816.984 3.70331 815.155 3.01667 813.245 2.70496C811.336 2.39325 809.384 2.46264 807.501 2.90912C805.538 3.38974 803.69 4.2562 802.064 5.45805C800.439 6.65989 799.069 8.17308 798.035 9.9095C796.893 11.7575 796.076 13.787 795.619 15.9103C793.351 14.2155 790.717 13.0767 787.928 12.5856C785.14 12.0945 782.275 12.2647 779.564 13.0826C775.358 14.3702 771.541 16.6911 768.462 19.8335C766.774 21.5212 765.462 23.5854 765.927 26.1281C766.539 28.3716 767.555 30.4843 768.927 32.3621C771.097 35.7137 773.863 38.6381 777.09 40.9897C774.546 41.9347 771.606 42.227 769.227 43.2399C764.673 45.1447 761.725 49.2407 762.077 54.2595C762.963 65.7457 776.001 69.3087 785.686 68.3031Z" fill="#DDDEF6"/>
<path d="M684.412 66.2843C680.511 57.515 669.865 55.783 661.253 56.3913C676.257 27.3946 613.736 28.9775 620.915 50.1484C622.994 56.2702 623.165 57.9432 623.165 57.9432C622.588 54.807 616.857 59.6914 613.841 63.8022C606.099 74.1765 615.153 86.6003 627.344 84.8978C617.029 106.411 652.64 109.542 662.423 95.9101C670.728 99.3534 684.073 92.0459 678.716 83.374C684.006 79.9085 687.105 72.3308 684.412 66.2843ZM393.166 89.8635C388.724 94.7613 389.489 102.863 393.412 108.191C397.337 113.517 403.668 116.533 409.969 118.527C412.971 119.488 416.293 120.225 419.295 119.195C421.201 118.431 422.89 117.21 424.215 115.64C426.66 112.93 428.518 109.744 429.671 106.281C430.824 102.819 431.248 99.1547 430.915 95.5202C435.556 97.4784 440.381 98.9682 445.318 99.9676C447.239 100.359 449.302 100.673 451.147 99.9676C453.443 99.1201 454.966 96.9673 456.317 94.934C460.359 88.8654 464.568 82.3906 464.794 75.0994C465.152 65.5047 458.087 56.5478 449.085 53.2315C440.082 49.9151 429.73 51.656 421.372 56.3677C422.434 54.1098 422.97 51.6407 422.94 49.1459C422.91 46.6512 422.315 44.1957 421.2 41.9638C419.429 38.4836 415.813 35.5053 411.943 36.0827C410.494 36.3512 409.126 36.9493 407.945 37.8309C405.091 39.8527 402.87 42.6439 401.542 45.8793C400.213 49.1147 399.832 52.661 400.442 56.1049C394.613 53.8014 390.097 47.6958 383.841 47.8524C380.727 47.9498 377.907 49.6759 375.648 51.8361C367.643 59.6088 366.788 72.3692 369.474 83.1939C370.847 88.7458 373.061 94.2135 376.758 98.5649C380.457 102.916 385.761 106.112 391.493 106.397M306.872 64.8963C308.869 66.575 311.229 67.7646 313.766 68.3707C312.378 70.6963 311.959 73.6597 311.794 76.2998C311.577 79.8406 311.599 83.5689 313.121 86.8469C314.816 90.4704 318.201 92.7133 321.771 94.2076C325.229 95.7451 329.024 96.3675 332.792 96.0149C333.044 96.0001 333.295 95.9617 333.542 95.9027C335.414 97.2653 337.626 98.085 339.934 98.2715C342.243 98.4581 344.557 98.0042 346.624 96.9599C349.063 95.7641 351.006 93.7523 352.116 91.2736C353.233 88.5272 351.853 85.7513 350.36 83.442C348.854 81.1212 346.958 79.078 344.757 77.4028C346.663 74.0945 347.245 70.1868 346.386 66.4664C345.528 62.7459 343.291 59.4889 340.127 57.3511C339.85 57.1547 339.1 56.8476 338.958 56.5021C338.912 56.2803 338.936 56.0498 339.026 55.842C339.692 53.5677 339.928 51.1893 339.723 48.8284C339.462 46.7629 338.648 44.8061 337.368 43.1643C336.18 41.6433 334.668 40.4062 332.943 39.5431C331.217 38.68 329.32 38.2126 327.391 38.175C324.81 38.0787 322.294 38.9913 320.375 40.7191C319.51 41.5714 318.92 42.6631 318.68 43.8538C316.42 42.9561 313.986 42.5781 311.56 42.7523C309.918 42.8783 308.321 43.3529 306.876 44.1445C305.431 44.936 304.171 46.0264 303.181 47.343C299.175 52.9923 302.048 60.7856 306.872 64.8963Z" fill="#DDDEF6"/>
<path d="M737.614 -1.30664C736.969 -1.17966 736.114 0.103469 735.656 0.553821C734.774 1.40696 733.84 2.2039 732.858 2.93994H751.02C746.653 2.48959 742.769 0.951021 738.814 -0.931596C738.402 -1.1265 738.042 -1.39671 737.614 -1.30664ZM695.049 2.93256H698.544C697.937 2.47483 697.345 2.00971 696.774 1.5062C696.227 1.9787 695.649 2.46745 695.049 2.93256Z" fill="#FFFFB6"/>
<path d="M196.175 102.271C197.765 105.827 202.1 106.509 205.604 106.262C199.521 118.078 224.951 117.366 222.012 108.805C221.605 107.779 221.298 106.717 221.096 105.632C221.335 106.908 223.639 104.882 224.847 103.246C227.983 99.0081 224.277 93.973 219.34 94.6714C223.504 85.9169 209.025 84.6795 205.087 90.2462C201.696 88.8508 196.287 91.8364 198.477 95.3255C196.331 96.7283 195.079 99.8113 196.175 102.271Z" fill="#F6AB0B"/>
<path d="M1010.13 123.165C1009.98 123.165 1009.84 123.225 1009.73 123.332C1009.62 123.438 1009.56 123.583 1009.56 123.735C1009.56 123.886 1009.62 124.031 1009.73 124.138C1009.84 124.244 1009.98 124.305 1010.13 124.305C1010.28 124.305 1010.43 124.244 1010.54 124.138C1010.64 124.031 1010.7 123.886 1010.7 123.735C1010.7 123.583 1010.64 123.438 1010.54 123.332C1010.43 123.225 1010.28 123.165 1010.13 123.165ZM1002.67 123.187C1002.56 123.186 1002.45 123.219 1002.35 123.282C1002.26 123.345 1002.18 123.434 1002.14 123.538C1002.09 123.669 1002.09 123.814 1002.14 123.946C1002.18 124.077 1002.28 124.187 1002.4 124.253C1002.53 124.319 1002.67 124.338 1002.81 124.305C1002.94 124.272 1003.06 124.19 1003.14 124.074C1003.2 123.989 1003.24 123.889 1003.24 123.785C1003.25 123.682 1003.22 123.578 1003.18 123.487C1003.13 123.395 1003.05 123.319 1002.96 123.267C1002.87 123.214 1002.77 123.185 1002.67 123.187ZM0.0589783 1.43238V27.5912H25.766C26.9203 29.3637 28.1879 31.0599 29.5608 32.6691C35.972 40.232 45.1916 45.7603 55.0639 46.2328L55.2737 43.9825C56.0902 45.81 57.0958 47.5471 58.274 49.1652C65.0263 58.4085 76.068 63.6444 86.9769 67.0951C92.2275 68.7902 97.9286 70.0586 103.083 68.2439C106.473 67.0656 109.22 64.6869 111.604 62.0763C116.842 56.3188 120.522 49.3185 122.295 41.7396C136.482 77.3351 230.99 66.3155 220.096 27.5764H228.034C229.708 29.9561 231.679 32.1117 233.901 33.9906C224.898 51.792 238.934 82.5119 258.971 72.077C265.724 84.3429 282.003 92.4226 295.82 87.4924C303.975 84.5599 309.744 79.0169 313.697 72.0844C314.338 73.6208 315.016 75.1416 315.73 76.6455C318.087 81.6112 321.019 86.698 325.904 89.2554C329.039 90.9062 332.655 91.327 336.225 91.3048C342.552 91.2111 348.79 89.8066 354.547 87.18C360.303 84.5534 365.452 80.7618 369.669 76.0446C372.653 84.2734 376.453 92.183 381.012 99.6548C382.79 102.564 384.823 105.527 387.853 107.088C391.605 109.022 396.159 108.393 400.352 107.718C411.304 105.946 422.775 103.968 431.905 97.8903C455.063 106.367 484.853 96.9306 489.069 69.9242C497.74 73.7721 506.083 70.599 512.115 64.4166C512.115 65.7012 512.22 66.9829 512.363 68.2586C513.089 73.7688 515.29 78.9807 518.731 83.3447C521.92 87.393 525.969 90.6813 530.586 92.9714C535.202 95.2614 540.27 96.4957 545.423 96.585C552.084 96.585 559.384 94.5518 564.177 89.6688C566.442 87.372 567.97 84.4519 568.567 81.2819C574.604 83.6838 581.112 84.6717 587.591 84.1701C596.308 83.3816 604.793 79.0833 609.931 71.8674C611.896 69.1189 613.332 66.0277 614.163 62.7526C617.358 61.4078 620.403 59.73 623.247 57.747C626.603 55.3531 629.769 52.7021 632.714 49.8179C634.268 48.4214 635.769 46.968 637.215 45.4605C637.72 47.1208 638.355 48.7387 639.114 50.2992C635.419 52.7965 632.68 56.4741 631.348 60.7303C630.015 64.9864 630.166 69.5689 631.777 73.7278C633.254 77.2285 635.205 80.5096 637.575 83.4791C639.961 86.6832 642.601 89.6304 646.473 90.9815C653.143 93.3144 660.283 90.1871 665.227 85.7308C666.877 84.2116 668.412 82.5715 669.819 80.8242C671.081 79.3665 672.265 77.8435 673.367 76.2616C677.23 76.1361 681.124 76.0682 684.966 75.6784C689.121 75.2649 692.902 73.877 695.362 70.3214C697.26 67.3459 697.952 63.7591 697.298 60.2911C700.607 60.517 704.05 59.4436 707.163 58.2579C712.007 56.3488 716.484 53.6157 720.396 50.1796C725.799 54.9562 732.808 57.512 740.018 57.334C747.227 57.156 754.103 54.2573 759.263 49.2199C759.728 48.7621 760.583 47.5233 761.228 47.3653C761.659 47.3564 762.08 47.4881 762.429 47.7403C766.525 49.6909 770.538 51.2885 775.138 51.665C779.08 51.9683 783.031 51.1978 786.571 49.4354C787.491 48.9777 788.38 48.458 789.233 47.8836C801.664 58.9253 817.838 64.7311 826.097 55.2575C834.169 62.3613 845.797 65.9035 856.105 62.2343C864.267 59.3018 870.027 53.7573 873.989 46.8263C874.63 48.3627 875.308 49.8835 876.022 51.3874C878.377 56.3531 881.311 61.4384 886.194 63.9973C889.331 65.6481 892.947 66.0674 896.517 66.0379C902.844 65.9497 909.083 64.5486 914.84 61.9233C920.597 59.2979 925.746 55.5056 929.961 50.7865C932.945 59.0133 936.742 66.922 941.295 74.3953C943.082 77.3056 945.114 80.269 948.145 81.8297C951.896 83.764 956.449 83.135 960.635 82.4588C971.588 80.6884 983.066 78.6714 992.188 72.6322C1015.35 81.1077 1045.14 71.6636 1049.35 44.6661C1058.03 48.5141 1066.37 45.3321 1072.41 39.1586C1072.42 40.4432 1072.5 41.7248 1072.65 42.9991C1073.38 48.5082 1075.58 53.7196 1079.02 58.0866C1082.21 62.1377 1086.26 65.4283 1090.88 67.7196C1095.5 70.011 1100.57 71.2457 1105.72 71.3343C1112.38 71.3343 1119.68 69.2937 1124.48 64.4166C1126.71 62.0955 1128.21 59.1644 1128.78 55.9928C1134.82 58.394 1141.32 59.382 1147.8 58.881C1156.52 58.094 1165 53.8016 1170.14 46.5783C1172.11 43.8323 1173.54 40.7437 1174.38 37.4708C1177.58 36.1271 1180.62 34.4472 1183.46 32.4594C1186.82 30.0655 1189.98 27.4171 1192.93 24.5376C1194.48 23.1381 1195.99 21.6818 1197.43 20.1714C1197.94 21.8316 1198.57 23.4495 1199.33 25.0101C1195.63 27.5143 1192.89 31.2023 1191.56 35.4689C1190.23 39.7355 1190.39 44.3272 1192.02 48.4904C1193.49 51.9916 1195.44 55.2732 1197.81 58.2431C1200.2 61.4473 1202.84 64.3945 1206.71 65.7441C1213.38 68.077 1220.52 64.9497 1225.47 60.4934C1227.12 58.9749 1228.66 57.3353 1230.07 55.5883C1231.33 54.1268 1232.51 52.6014 1233.61 51.0183C1237.48 50.9002 1241.37 50.8234 1245.2 50.4336C1249.37 50.0202 1253.15 48.6322 1255.61 45.0781C1257.51 42.1031 1258.2 38.5148 1257.54 35.0478C1260.85 35.2722 1264.29 34.2003 1267.4 33.0146C1272.25 31.1031 1276.73 28.3697 1280.64 24.9348C1286.05 29.711 1293.06 32.2665 1300.26 32.0885C1307.47 31.9105 1314.35 29.0121 1319.51 23.9751C1319.97 23.5173 1320.83 22.2874 1321.47 22.122C1321.9 22.1121 1322.32 22.2439 1322.67 22.497C1326.77 24.4476 1330.78 26.0452 1335.42 26.4203C1339.34 26.72 1343.27 25.9552 1346.79 24.2069C1347.7 23.7491 1348.59 23.2338 1349.44 22.6624C1363.25 34.9046 1381.65 40.7267 1388.73 26.3523C1393.28 17.0278 1395.01 14.9872 1395.01 14.9872C1392.12 19.2264 1404.14 20.074 1412.18 18.844C1422.51 17.3438 1428.58 10.3671 1430.04 2.339H1448.47C1458.14 7.23085 1468.31 11.4021 1478.99 10.6668C1486.41 10.0495 1493.46 7.1486 1499.17 2.36262H1512V-34.9294H1510.12V-35.3266H-4.57764e-05V1.43238H0.0589783Z" fill="#F9F7EE"/>
</g>
</g>
</g>
</g>
<defs>
<clipPath id="clip0_489_1120">
<rect width="1512" height="189" fill="white" transform="matrix(-1 0 0 -1 1512 189)"/>
</clipPath>
<clipPath id="clip1_489_1120">
<rect width="1512" height="189" fill="white" transform="matrix(-1 0 0 -1 1512 189)"/>
</clipPath>
<clipPath id="clip2_489_1120">
<rect width="1512" height="189" fill="white" transform="matrix(-1 0 0 -1 1512 189)"/>
</clipPath>
</defs>
</svg>
